<svg width="19" height="18" viewBox="0 0 19 18" fill="none" xmlns="http://www.w3.org/2000/svg">
<path d="M9.74687 15.5266C10.3798 15.4833 11.0074 15.3822 11.6219 15.2246C12.3808 15.4527 13.1819 15.5044 13.9639 15.3756C13.9951 15.3718 14.0264 15.3694 14.0579 15.3686C14.3369 15.3686 14.7029 15.5286 15.2369 15.8656V15.3116C15.2371 15.2151 15.2632 15.1204 15.3124 15.0374C15.3617 14.9543 15.4323 14.8861 15.5169 14.8396C15.7495 14.7082 15.9645 14.5606 16.1619 14.3966C16.9399 13.7466 17.3789 12.8786 17.3789 11.9606C17.3789 11.6576 17.3309 11.3556 17.2359 11.0676C17.4711 10.6357 17.6601 10.1801 17.7999 9.70858C18.2499 10.3736 18.4919 11.1586 18.4949 11.9606C18.4949 13.2086 17.9069 14.3726 16.8879 15.2236C16.7172 15.3656 16.5389 15.4962 16.3529 15.6156V16.9136C16.3529 17.3596 15.8309 17.6166 15.4629 17.3506C15.1142 17.094 14.7538 16.8538 14.3829 16.6306C14.2757 16.5688 14.1648 16.5137 14.0509 16.4656C13.7413 16.5114 13.4288 16.5345 13.1159 16.5346C11.8459 16.5346 10.6719 16.1576 9.74687 15.5266ZM3.02587 12.9316C1.42187 11.5886 0.494873 9.75758 0.494873 7.79558C0.494873 3.78758 4.32687 0.582581 9.00587 0.582581C13.6859 0.582581 17.5189 3.78658 17.5189 7.79558C17.5189 11.8046 13.6859 15.0076 9.00587 15.0076C8.48521 15.0081 7.96529 14.968 7.45087 14.8876C7.23087 14.9386 6.34887 15.4556 5.07887 16.3706C4.61887 16.7026 3.96687 16.3826 3.96687 15.8236V13.6106C3.6375 13.407 3.32334 13.1797 3.02687 12.9306M7.48187 13.5226C7.52054 13.5226 7.55954 13.5256 7.59887 13.5316C8.05887 13.6076 8.52787 13.6459 9.00587 13.6466C12.9589 13.6466 16.1219 11.0016 16.1219 7.79458C16.1219 4.58858 12.9589 1.94458 9.00687 1.94458C5.05487 1.94458 1.88987 4.58858 1.88987 7.79458C1.88987 9.34458 2.62987 10.8046 3.93587 11.8976C4.26521 12.1722 4.62387 12.4189 5.01187 12.6376C5.11712 12.696 5.20498 12.7813 5.26647 12.8848C5.32797 12.9883 5.36089 13.1062 5.36187 13.2266V14.5026C6.36687 13.8376 7.02787 13.5226 7.48187 13.5226Z" fill="url(#paint0_linear_25_64)"/>
<path d="M5.55689 9.02057C5.85525 9.02057 6.1414 8.90204 6.35238 8.69106C6.56336 8.48009 6.68189 8.19394 6.68189 7.89557C6.68189 7.5972 6.56336 7.31105 6.35238 7.10007C6.1414 6.8891 5.85525 6.77057 5.55689 6.77057C5.25852 6.77057 4.97237 6.8891 4.76139 7.10007C4.55041 7.31105 4.43188 7.5972 4.43188 7.89557C4.43188 8.19394 4.55041 8.48009 4.76139 8.69106C4.97237 8.90204 5.25852 9.02057 5.55689 9.02057Z" fill="url(#paint1_linear_25_64)"/>
<path d="M9.21387 9.02057C9.51224 9.02057 9.79838 8.90204 10.0094 8.69106C10.2203 8.48009 10.3389 8.19394 10.3389 7.89557C10.3389 7.5972 10.2203 7.31105 10.0094 7.10007C9.79838 6.8891 9.51224 6.77057 9.21387 6.77057C8.9155 6.77057 8.62935 6.8891 8.41837 7.10007C8.20739 7.31105 8.08887 7.5972 8.08887 7.89557C8.08887 8.19394 8.20739 8.48009 8.41837 8.69106C8.62935 8.90204 8.9155 9.02057 9.21387 9.02057Z" fill="url(#paint2_linear_25_64)"/>
<path d="M12.8699 9.02057C13.1682 9.02057 13.4544 8.90204 13.6654 8.69106C13.8763 8.48009 13.9949 8.19394 13.9949 7.89557C13.9949 7.5972 13.8763 7.31105 13.6654 7.10007C13.4544 6.8891 13.1682 6.77057 12.8699 6.77057C12.5715 6.77057 12.2854 6.8891 12.0744 7.10007C11.8634 7.31105 11.7449 7.5972 11.7449 7.89557C11.7449 8.19394 11.8634 8.48009 12.0744 8.69106C12.2854 8.90204 12.5715 9.02057 12.8699 9.02057Z" fill="url(#paint3_linear_25_64)"/>
<defs>
<linearGradient id="paint0_linear_25_64" x1="17.4126" y1="12.5722" x2="2.48817" y2="10.5181" gradientUnits="userSpaceOnUse">
<stop stop-color="#0C6271"/>
<stop offset="1" stop-color="#117D90"/>
</linearGradient>
<linearGradient id="paint1_linear_25_64" x1="6.5466" y1="8.36911" x2="4.67684" y2="8.12784" gradientUnits="userSpaceOnUse">
<stop stop-color="#0C6271"/>
<stop offset="1" stop-color="#117D90"/>
</linearGradient>
<linearGradient id="paint2_linear_25_64" x1="10.2036" y1="8.36911" x2="8.33382" y2="8.12784" gradientUnits="userSpaceOnUse">
<stop stop-color="#0C6271"/>
<stop offset="1" stop-color="#117D90"/>
</linearGradient>
<linearGradient id="paint3_linear_25_64" x1="13.8596" y1="8.36911" x2="11.9898" y2="8.12784" gradientUnits="userSpaceOnUse">
<stop stop-color="#0C6271"/>
<stop offset="1" stop-color="#117D90"/>
</linearGradient>
</defs>
</svg>
