<svg width="75" height="75" viewBox="0 0 75 75" fill="none" xmlns="http://www.w3.org/2000/svg">
<path d="M41.5787 8.13839C41.1321 7.36502 40.4898 6.72282 39.7164 6.27633C38.943 5.82983 38.0656 5.59478 37.1726 5.59478C36.2795 5.59478 35.4022 5.82983 34.6288 6.27633C33.8553 6.72282 33.2131 7.36502 32.7665 8.13839L5.34353 55.6427C4.89697 56.4161 4.66187 57.2935 4.66187 58.1866C4.66186 59.0797 4.89693 59.9571 5.34347 60.7306C5.79001 61.504 6.43228 62.1463 7.20572 62.5929C7.97916 63.0395 8.85653 63.2746 9.74964 63.2747H64.6013C65.4944 63.2746 66.3718 63.0395 67.1452 62.5929C67.9187 62.1463 68.561 61.504 69.0075 60.7306C69.454 59.9571 69.6891 59.0797 69.6891 58.1866C69.6891 57.2935 69.454 56.4161 69.0074 55.6427L41.5787 8.13839ZM21.1268 37.7533L15.2024 47.9084C15.1005 48.0849 14.9541 48.2314 14.7777 48.3333C14.6014 48.4353 14.4013 48.4891 14.1976 48.4893C13.9933 48.4887 13.7928 48.4338 13.6168 48.3301C13.3506 48.1751 13.157 47.9207 13.0783 47.623C12.9997 47.3252 13.0425 47.0084 13.1974 46.7421L19.1218 36.5871C19.2853 36.3395 19.5373 36.1639 19.8261 36.0962C20.115 36.0286 20.4188 36.074 20.6752 36.2231C20.9316 36.3723 21.1213 36.6139 21.2052 36.8984C21.2892 37.183 21.2611 37.4889 21.1268 37.7533ZM23.8299 32.4435L23.0052 33.8851C22.8522 34.1526 22.5992 34.3485 22.3018 34.4295C22.0045 34.5106 21.6871 34.4702 21.4195 34.3172C21.1519 34.1642 20.9561 33.9112 20.8751 33.6139C20.794 33.3165 20.8344 32.9991 20.9874 32.7316L21.8122 31.2888C21.9653 31.0212 22.2184 30.8254 22.5159 30.7445C22.8134 30.6636 23.1308 30.7041 23.3984 30.8572C23.666 31.0104 23.8617 31.2635 23.9427 31.561C24.0236 31.8585 23.9831 32.1759 23.8299 32.4435ZM37.1726 59.6968C36.0026 59.6968 34.8589 59.3498 33.8861 58.6998C32.9133 58.0497 32.1552 57.1258 31.7075 56.0448C31.2599 54.9638 31.1429 53.7744 31.3713 52.6269C31.5997 51.4794 32.1633 50.4254 32.9908 49.5983C33.8183 48.7711 34.8725 48.208 36.02 47.98C37.1676 47.752 38.357 47.8695 39.4378 48.3175C40.5186 48.7656 41.4422 49.5241 42.0919 50.4972C42.7416 51.4702 43.0881 52.614 43.0877 53.784C43.0846 55.3517 42.4603 56.8542 41.3516 57.9624C40.2429 59.0707 38.7402 59.6943 37.1726 59.6968ZM38.239 44.1308C38.149 44.3389 38.0001 44.5162 37.8106 44.6408C37.6212 44.7654 37.3993 44.8317 37.1726 44.8317C36.9458 44.8317 36.724 44.7654 36.5345 44.6408C36.345 44.5162 36.1961 44.3389 36.1062 44.1308C35.4719 42.6613 29.9135 29.6706 29.9135 26.1636C29.9135 24.2381 30.6784 22.3914 32.0399 21.0298C33.4015 19.6683 35.2482 18.9033 37.1737 18.9033C39.0993 18.9033 40.946 19.6683 42.3075 21.0298C43.6691 22.3914 44.434 24.2381 44.434 26.1636C44.4317 29.673 38.8732 42.6636 38.239 44.1331V44.1308Z" fill="url(#paint0_linear_66_1097)"/>
<path d="M37.1726 21.2303C35.8641 21.2318 34.6095 21.7523 33.6842 22.6776C32.7589 23.603 32.2384 24.8575 32.2368 26.1661C32.2368 28.1409 34.8935 35.1944 37.1726 40.6866C39.4518 35.1921 42.1085 28.1409 42.1085 26.1661C42.1069 24.8575 41.5864 23.603 40.6611 22.6776C39.7358 21.7523 38.4812 21.2318 37.1726 21.2303ZM14.1163 65.6027H24.7326V68.7508H14.1163V65.6027ZM49.6127 65.6027H60.229V68.7508H49.6127V65.6027ZM37.1726 50.1912C36.4623 50.1912 35.7679 50.4018 35.1773 50.7965C34.5866 51.1911 34.1263 51.752 33.8544 52.4082C33.5825 53.0645 33.5113 53.7866 33.6498 54.4833C33.7883 55.18 34.1302 55.82 34.6324 56.3224C35.1347 56.8248 35.7745 57.1669 36.4712 57.3057C37.1679 57.4444 37.89 57.3734 38.5464 57.1017C39.2027 56.8301 39.7637 56.3699 40.1586 55.7794C40.5534 55.1888 40.7642 54.4945 40.7644 53.7842C40.7623 52.8321 40.3832 51.9197 39.7101 51.2464C39.037 50.573 38.1247 50.1937 37.1726 50.1912Z" fill="url(#paint1_linear_66_1097)"/>
<defs>
<linearGradient id="paint0_linear_66_1097" x1="65.7792" y1="46.5742" x2="11.9801" y2="38.7478" gradientUnits="userSpaceOnUse">
<stop stop-color="#0C6271"/>
<stop offset="1" stop-color="#117D90"/>
</linearGradient>
<linearGradient id="paint1_linear_66_1097" x1="57.4564" y1="54.9918" x2="19.0999" y2="50.189" gradientUnits="userSpaceOnUse">
<stop stop-color="#0C6271"/>
<stop offset="1" stop-color="#117D90"/>
</linearGradient>
</defs>
</svg>
