<svg width="75" height="75" viewBox="0 0 75 75" fill="none" xmlns="http://www.w3.org/2000/svg">
<path fill-rule="evenodd" clip-rule="evenodd" d="M47.2902 37.4359C41.7255 43.0006 32.6195 43.0006 27.055 37.4359C21.4902 31.8712 22.263 23.4431 27.055 17.2006L32.7788 9.74402H41.5665L47.2904 17.2006C52.082 23.4431 52.8549 31.8712 47.2902 37.4359ZM68.2762 64.4879V53.248C68.2762 52.8481 67.9501 52.522 67.5502 52.522H61.5527C61.3603 52.5224 61.1759 52.599 61.0398 52.7351C60.9037 52.8711 60.8271 53.0556 60.8267 53.248V64.4879H58.8041C58.1612 64.4879 57.8355 65.2609 58.2846 65.721L64.0318 71.6094C64.0994 71.6787 64.1802 71.7338 64.2695 71.7714C64.3587 71.809 64.4545 71.8284 64.5514 71.8284C64.6482 71.8284 64.7441 71.809 64.8333 71.7714C64.9225 71.7338 65.0033 71.6787 65.0709 71.6094L70.8183 65.721C71.2674 65.2609 70.9417 64.4879 70.2988 64.4879H68.2762ZM13.5183 64.4879V53.248C13.5183 52.8481 13.1922 52.522 12.7923 52.522H6.79487C6.60243 52.5224 6.41799 52.599 6.28191 52.7351C6.14584 52.8711 6.06922 53.0556 6.06884 53.248V64.4879H4.04627C3.4033 64.4879 3.07761 65.2609 3.52673 65.721L9.27396 71.6094C9.34157 71.6787 9.42237 71.7338 9.5116 71.7714C9.60082 71.809 9.69668 71.8284 9.79351 71.8284C9.89034 71.8284 9.98619 71.809 10.0754 71.7714C10.1646 71.7338 10.2454 71.6787 10.3131 71.6094L16.0603 65.721C16.5094 65.2609 16.1837 64.4879 15.5407 64.4879H13.5183ZM65.2116 27.5403C65.2116 26.7405 64.5594 26.0882 63.7596 26.0882H57.4077C56.6079 26.0882 55.9556 26.7405 55.9556 27.5403V29.2647C55.9556 39.5954 47.5032 48.0478 37.1726 48.0478C26.8419 48.0478 18.3895 39.5954 18.3895 29.2647V27.5403C18.3895 26.7405 17.7373 26.0882 16.9375 26.0882H10.5856C9.78581 26.0882 9.13355 26.7405 9.13355 27.5403V29.2647C9.13355 42.991 19.1296 54.4956 32.2016 56.8591V63.3793H29.1285C28.4588 63.3793 28.1462 64.2086 28.6492 64.6506L36.6933 71.7205C36.8254 71.8376 36.9959 71.9022 37.1725 71.9022C37.3491 71.9022 37.5196 71.8376 37.6518 71.7205L45.6959 64.6506C46.1989 64.2086 45.8862 63.3793 45.2165 63.3793H42.1434V56.8591C55.2154 54.4956 65.2115 42.991 65.2115 29.2647V27.5403H65.2116ZM34.1731 30.871C34.7751 31.4389 35.3655 31.8912 36.1797 32.093L36.1929 32.6394C36.2003 32.9072 36.3135 33.1612 36.5077 33.3457C36.702 33.5302 36.9614 33.6302 37.2292 33.6239C37.497 33.6176 37.7514 33.5054 37.9367 33.3119C38.122 33.1185 38.2231 32.8595 38.2179 32.5917L38.2054 32.0726C39.7359 31.6683 40.9439 30.3619 40.9439 28.7296C40.9439 26.6991 39.1207 25.2533 37.1729 25.2533C36.3462 25.2533 35.4307 24.7157 35.4307 23.8099C35.4307 22.9033 36.3538 22.3666 37.1729 22.3666C37.8048 22.3666 38.5594 22.7207 38.7709 23.0427C38.843 23.1556 38.9369 23.2531 39.047 23.3295C39.1571 23.4059 39.2813 23.4596 39.4124 23.4876C39.5434 23.5156 39.6788 23.5173 39.8105 23.4926C39.9422 23.4679 40.0677 23.4173 40.1797 23.3436C40.2917 23.27 40.388 23.1749 40.4629 23.0638C40.5379 22.9527 40.59 22.8278 40.6163 22.6964C40.6425 22.5649 40.6425 22.4296 40.616 22.2982C40.5896 22.1668 40.5373 22.042 40.4622 21.931C39.9878 21.2093 38.9914 20.7156 38.1687 20.4885L38.1524 19.81C38.1449 19.5422 38.0317 19.2884 37.8375 19.104C37.6433 18.9195 37.384 18.8195 37.1162 18.8258C36.8485 18.8321 36.5941 18.9442 36.4088 19.1376C36.2235 19.3309 36.1223 19.5898 36.1274 19.8576L36.1419 20.4666C34.6081 20.8707 33.4016 22.1749 33.4015 23.8099C33.4015 25.8434 35.228 27.2861 37.1726 27.2861C37.9992 27.2861 38.9107 27.8237 38.9107 28.7295C38.9107 29.6353 37.9991 30.1728 37.1726 30.1728C36.4236 30.1728 36.087 29.8882 35.5627 29.3935C35.4657 29.3023 35.3517 29.231 35.2272 29.1838C35.1027 29.1367 34.9701 29.1145 34.837 29.1185C34.7039 29.1226 34.5729 29.1528 34.4515 29.2075C34.3301 29.2622 34.2206 29.3402 34.1294 29.4372C33.9451 29.6332 33.8461 29.8943 33.8543 30.1632C33.8625 30.432 33.9772 30.6866 34.1731 30.871ZM32.975 7.71114L31.1981 4.61841C30.6402 3.64727 31.3371 2.44308 32.4572 2.44308H41.8881C43.0081 2.44308 43.7051 3.64727 43.1472 4.61841L41.3703 7.71114H32.975Z" fill="url(#paint0_linear_66_1094)"/>
<defs>
<linearGradient id="paint0_linear_66_1094" x1="66.9554" y1="51.7912" x2="10.644" y2="44.7081" gradientUnits="userSpaceOnUse">
<stop stop-color="#0C6271"/>
<stop offset="1" stop-color="#117D90"/>
</linearGradient>
</defs>
</svg>
