<svg width="75" height="75" viewBox="0 0 75 75" fill="none" xmlns="http://www.w3.org/2000/svg">
<path fill-rule="evenodd" clip-rule="evenodd" d="M3.88416 11.9548V42.8574H47.3747C47.8016 36.7167 52.724 31.7957 58.8604 31.3673V11.9548H3.88416ZM16.9483 34.1422C16.9483 35.1426 16.1293 35.9558 15.1332 35.9558C14.1313 35.9558 13.3182 35.1426 13.3182 34.1422C13.3182 33.1417 14.1313 32.3286 15.1332 32.3286C16.1293 32.3271 16.9483 33.1417 16.9483 34.1422ZM25.9554 26.1428C24.9593 26.1428 24.1461 25.3297 24.1461 24.3292C24.1461 23.3287 24.9593 22.5156 25.9554 22.5156C26.9573 22.5156 27.7763 23.3287 27.7763 24.3292C27.7763 25.3297 26.9573 26.1428 25.9554 26.1428ZM38.5984 30.8388C38.5984 31.8392 37.7853 32.6524 36.7834 32.6524C35.7873 32.6524 34.9741 31.8392 34.9741 30.8388C34.9741 29.8383 35.7858 29.0251 36.7834 29.0251C37.7853 29.0237 38.5984 29.8383 38.5984 30.8388ZM47.6113 22.4865C46.6152 22.4865 45.8021 21.6734 45.8021 20.6729C45.8021 19.6724 46.6152 18.8593 47.6113 18.8593C48.6133 18.8593 49.4264 19.6724 49.4264 20.6729C49.4264 21.6719 48.6133 22.4865 47.6113 22.4865ZM49.0823 43.7286C49.0823 37.8551 53.8624 33.0764 59.7331 33.0764C65.6096 33.0764 70.3897 37.8551 70.3897 43.7286C70.3897 49.6022 65.6096 54.3809 59.7331 54.3809C53.8624 54.3809 49.0823 49.6022 49.0823 43.7286ZM63.7945 44.6013H59.7331C59.2525 44.6013 58.8619 44.2107 58.8619 43.7301V37.7026C58.8619 37.222 59.2539 36.8314 59.7331 36.8314C60.2137 36.8314 60.6043 37.222 60.6043 37.7026V42.8589H63.7945C64.2751 42.8589 64.6657 43.2495 64.6657 43.7301C64.6657 44.2093 64.2751 44.6013 63.7945 44.6013ZM45.198 57.3678H17.5465V60.7554H45.198V57.3678ZM34.7258 51.4536H28.0188V55.6253H34.7258V51.4536ZM47.3747 44.6013H3.88416V49.7126H48.8804C48.0105 48.1395 47.4965 46.3947 47.3747 44.6013ZM15.1332 30.5846C15.8563 30.5846 16.5388 30.8039 17.1022 31.18L22.819 25.9976C22.5518 25.4995 22.4037 24.9318 22.4037 24.3292C22.4037 22.3689 23.9995 20.7731 25.9554 20.7731C27.9186 20.7731 29.5129 22.3689 29.5129 24.3292C29.5129 24.6878 29.4592 25.032 29.3648 25.3587L34.2815 28.3151C34.9276 27.6762 35.8119 27.2812 36.7834 27.2812C37.4891 27.2812 38.1468 27.4889 38.7044 27.8432L44.5039 22.395C44.2111 21.8679 44.0581 21.2745 44.0596 20.6715C44.0596 18.7097 45.6554 17.1154 47.6113 17.1154C49.5745 17.1154 51.1689 18.7097 51.1689 20.6715C51.1689 22.6317 49.5731 24.2275 47.6113 24.2275C46.9056 24.2275 46.2537 24.0199 45.6961 23.6641L39.8966 29.1137C40.1812 29.6248 40.3409 30.2115 40.3409 30.8373C40.3409 32.7976 38.7451 34.3934 36.7834 34.3934C34.826 34.3934 33.2316 32.7976 33.2316 30.8373C33.2316 30.4801 33.2854 30.1345 33.3798 29.8078L28.4631 26.8514C27.8169 27.4903 26.9326 27.8853 25.9554 27.8853C25.2323 27.8853 24.5556 27.666 23.9864 27.2885L18.2697 32.4723C18.5368 32.9689 18.685 33.5381 18.685 34.1407C18.685 36.101 17.0891 37.6968 15.1332 37.6968C13.17 37.6968 11.5757 36.101 11.5757 34.1407C11.5757 32.1804 13.17 30.5846 15.1332 30.5846Z" fill="url(#paint0_linear_66_1101)"/>
<defs>
<linearGradient id="paint0_linear_66_1101" x1="66.391" y1="46.6258" x2="11.8897" y2="37.0416" gradientUnits="userSpaceOnUse">
<stop stop-color="#0C6271"/>
<stop offset="1" stop-color="#117D90"/>
</linearGradient>
</defs>
</svg>
