<svg width="76" height="75" viewBox="0 0 76 75" fill="none" xmlns="http://www.w3.org/2000/svg">
<path d="M8.90028 17.5176C8.8972 17.2095 8.77186 16.9152 8.55183 16.6996C8.3318 16.4839 8.0351 16.3645 7.72702 16.3676C7.41893 16.3706 7.12469 16.496 6.90901 16.716C6.69334 16.936 6.57391 17.2327 6.57699 17.5408C6.62798 18.4998 7.01811 19.4094 7.67773 20.1073C8.33735 20.8052 9.22353 21.246 10.1781 21.351V22.0712C10.1781 22.3793 10.3005 22.6748 10.5183 22.8926C10.7362 23.1105 11.0316 23.2329 11.3397 23.2329C11.6478 23.2329 11.9433 23.1105 12.1611 22.8926C12.379 22.6748 12.5014 22.3793 12.5014 22.0712V21.3162C13.3251 21.2055 14.0984 20.8561 14.7259 20.3112C15.3534 19.7662 15.8077 19.0495 16.0328 18.2494C16.2186 17.3201 16.2186 15.0433 12.5014 13.1963V8.92142C12.8397 8.9862 13.1475 9.15969 13.3782 9.4155C13.6088 9.67131 13.7496 9.99545 13.7792 10.3386C13.7792 10.6467 13.9016 10.9422 14.1194 11.16C14.3373 11.3779 14.6327 11.5003 14.9408 11.5003C15.2489 11.5003 15.5444 11.3779 15.7622 11.16C15.9801 10.9422 16.1025 10.6467 16.1025 10.3386C16.0515 9.37967 15.6614 8.47004 15.0017 7.77212C14.3421 7.0742 13.4559 6.63341 12.5014 6.52843V5.80821C12.5014 5.50012 12.379 5.20466 12.1611 4.9868C11.9433 4.76895 11.6478 4.64657 11.3397 4.64657C11.0316 4.64657 10.7362 4.76895 10.5183 4.9868C10.3005 5.20466 10.1781 5.50012 10.1781 5.80821V6.56328C9.35437 6.67397 8.58107 7.02333 7.95354 7.56828C7.32602 8.11324 6.87173 8.82995 6.64669 9.63002C6.46083 10.5593 6.46083 12.8362 10.1781 14.6832V18.958C9.8374 18.8896 9.52832 18.7119 9.29773 18.452C9.06713 18.192 8.92759 17.864 8.90028 17.5176ZM12.5014 15.8913C13.5236 16.6115 13.8489 17.3201 13.756 17.7848C13.6558 18.0626 13.4891 18.3117 13.2704 18.5102C13.0517 18.7086 12.7876 18.8504 12.5014 18.9232V15.8913ZM8.92351 10.0947C9.02363 9.81682 9.19035 9.56775 9.40907 9.36928C9.62779 9.17081 9.89184 9.029 10.1781 8.95627V11.9882C9.15584 11.2679 8.83058 10.5593 8.92351 10.0947ZM67.2148 56.8044C67.2148 57.1125 67.3372 57.4079 67.5551 57.6258C67.7729 57.8436 68.0684 57.966 68.3765 57.966C68.6845 57.966 68.98 57.8436 69.1979 57.6258C69.4157 57.4079 69.5381 57.1125 69.5381 56.8044C69.4871 55.8454 69.097 54.9358 68.4374 54.2379C67.7777 53.54 66.8916 53.0992 65.937 52.9942V52.274C65.937 51.9659 65.8146 51.6704 65.5968 51.4526C65.3789 51.2347 65.0834 51.1123 64.7754 51.1123C64.4673 51.1123 64.1718 51.2347 63.954 51.4526C63.7361 51.6704 63.6137 51.9659 63.6137 52.274V53.029C62.79 53.1397 62.0167 53.4891 61.3892 54.034C60.7616 54.579 60.3074 55.2957 60.0823 56.0958C59.8965 57.0251 59.8965 59.3019 63.6137 61.1489V65.4238C63.273 65.3554 62.964 65.1777 62.7334 64.9178C62.5028 64.6578 62.3632 64.3298 62.3359 63.9833C62.3328 63.6753 62.2075 63.381 61.9875 63.1653C61.7674 62.9497 61.4707 62.8302 61.1626 62.8333C60.8546 62.8364 60.5603 62.9617 60.3446 63.1818C60.129 63.4018 60.0095 63.6985 60.0126 64.0066C60.0636 64.9655 60.4537 65.8752 61.1134 66.5731C61.773 67.271 62.6592 67.7118 63.6137 67.8168V68.537C63.6137 68.8451 63.7361 69.1405 63.954 69.3584C64.1718 69.5762 64.4673 69.6986 64.7754 69.6986C65.0834 69.6986 65.3789 69.5762 65.5968 69.3584C65.8146 69.1405 65.937 68.8451 65.937 68.537V67.7819C66.7607 67.6712 67.534 67.3219 68.1615 66.7769C68.7891 66.232 69.2434 65.5152 69.4684 64.7152C69.6543 63.7859 69.6543 61.509 65.937 59.662V55.3872C66.2753 55.452 66.5832 55.6254 66.8138 55.8813C67.0445 56.1371 67.1853 56.4612 67.2148 56.8044ZM63.6137 58.4539C62.5915 57.7337 62.2662 57.0251 62.3591 56.5604C62.4593 56.2826 62.626 56.0335 62.8447 55.835C63.0634 55.6366 63.3275 55.4948 63.6137 55.422V58.4539ZM67.1916 64.2505C67.0915 64.5284 66.9247 64.7774 66.706 64.9759C66.4873 65.1744 66.2233 65.3162 65.937 65.3889V62.357C66.9593 63.0773 67.2845 63.7859 67.1916 64.2505ZM20.1647 12.8629C25.3343 9.01429 31.6128 6.94647 38.0575 6.96985C42.7892 6.97129 47.4544 8.08408 51.6773 10.2186C55.9002 12.3531 59.5627 15.4496 62.3698 19.2588C65.1768 23.0679 67.0499 27.4831 67.8382 32.1486C68.6265 36.8142 68.3079 41.5997 66.9081 46.1196C66.8624 46.2651 66.8459 46.4182 66.8595 46.5701C66.8731 46.7221 66.9165 46.8698 66.9873 47.0049C67.0581 47.14 67.1549 47.2598 67.272 47.3575C67.3892 47.4551 67.5245 47.5287 67.6702 47.574C67.7821 47.6094 67.8989 47.6274 68.0163 47.6274C68.2638 47.6273 68.5048 47.5481 68.7042 47.4014C68.9035 47.2547 69.0508 47.0482 69.1246 46.8119C70.6337 41.9443 70.9781 36.7902 70.1301 31.765C69.2821 26.7399 67.2653 21.9843 64.2424 17.8814C61.2195 13.7786 57.2749 10.4434 52.7267 8.14449C48.1785 5.84563 43.1537 4.64747 38.0575 4.64657C31.1131 4.622 24.3481 6.85039 18.7777 10.9973C18.5303 11.1812 18.3661 11.4559 18.3213 11.7609C18.2764 12.0659 18.3545 12.3762 18.5384 12.6236C18.7224 12.871 18.997 13.0352 19.302 13.08C19.607 13.1249 19.9173 13.0468 20.1647 12.8629ZM55.9503 61.4835C50.7805 65.3313 44.5021 67.3986 38.0575 67.3753C33.3259 67.3739 28.6607 66.2611 24.4378 64.1266C20.2149 61.9921 16.5524 58.8955 13.7453 55.0864C10.9383 51.2773 9.06517 46.8621 8.27688 42.1966C7.48859 37.531 7.80717 32.7455 9.20695 28.2256C9.25826 28.0785 9.27946 27.9227 9.2693 27.7672C9.25913 27.6118 9.21782 27.46 9.1478 27.3209C9.07779 27.1817 8.98051 27.0581 8.86174 26.9573C8.74298 26.8565 8.60516 26.7806 8.45648 26.7342C8.30781 26.6878 8.15131 26.6717 7.99629 26.687C7.84128 26.7022 7.69092 26.7485 7.55416 26.8231C7.41739 26.8976 7.29702 26.9989 7.20019 27.1209C7.10337 27.2429 7.03207 27.3832 6.99054 27.5333C5.48168 32.4009 5.13744 37.5549 5.98557 42.58C6.83369 47.605 8.85046 52.3605 11.8733 56.4633C14.8962 60.566 18.8406 63.9013 23.3887 66.2002C27.9369 68.4992 32.9614 69.6975 38.0575 69.6986C45.0019 69.7229 51.7669 67.4945 57.3374 63.3479C57.5846 63.164 57.7486 62.8894 57.7934 62.5845C57.8382 62.2796 57.76 61.9694 57.5761 61.7222C57.3921 61.475 57.1175 61.3109 56.8126 61.2661C56.5078 61.2214 56.1976 61.2996 55.9503 61.4835Z" fill="url(#paint0_linear_66_1104)"/>
<path d="M62.4521 39.3333V35.0119C62.4523 34.6122 62.3675 34.2169 62.2033 33.8524C62.0391 33.4879 61.7992 33.1625 61.4996 32.8978C61.1984 32.6345 60.8452 32.4375 60.463 32.3194C60.0808 32.2014 59.6781 32.1649 59.2809 32.2124C59.1643 32.232 59.0446 32.2071 58.9456 32.1425C58.8466 32.078 58.7755 31.9785 58.7465 31.8639C58.253 29.9076 57.4783 28.0333 56.4464 26.2996C56.3863 26.1958 56.3661 26.0736 56.3896 25.956C56.4131 25.8384 56.4788 25.7334 56.5742 25.6607C56.8902 25.4172 57.1503 25.1086 57.3366 24.7559C57.523 24.4032 57.6315 24.0145 57.6545 23.6162C57.6785 23.2164 57.6174 22.8161 57.4752 22.4416C57.333 22.0671 57.113 21.7271 56.8298 21.4439L53.7863 18.4004C53.5047 18.115 53.1649 17.8935 52.7901 17.7512C52.4152 17.6089 52.0141 17.549 51.614 17.5757C51.2143 17.6 50.8244 17.7088 50.4699 17.8951C50.1155 18.0813 49.8046 18.3407 49.5579 18.656C49.4879 18.7514 49.3849 18.8174 49.2689 18.841C49.153 18.8646 49.0323 18.8442 48.9306 18.7838C47.1969 17.7519 45.3226 16.9772 43.3663 16.4837C43.2526 16.4533 43.1541 16.3819 43.0897 16.2833C43.0254 16.1847 42.9998 16.0657 43.0178 15.9494C43.0676 15.5524 43.0323 15.1493 42.9144 14.767C42.7964 14.3847 42.5985 14.0319 42.3337 13.732C42.0689 13.432 41.7434 13.1918 41.3786 13.0274C41.0139 12.8629 40.6184 12.7779 40.2183 12.7781H35.897C35.4969 12.7779 35.1013 12.8629 34.7366 13.0274C34.3719 13.1918 34.0463 13.432 33.7815 13.732C33.5167 14.0319 33.3188 14.3847 33.2008 14.767C33.0829 15.1493 33.0476 15.5524 33.0974 15.9494C33.1154 16.0657 33.0898 16.1847 33.0255 16.2833C32.9612 16.3819 32.8627 16.4533 32.7489 16.4837C30.7926 16.9772 28.9183 17.7519 27.1846 18.7838C27.081 18.8444 26.9586 18.8649 26.8409 18.8414C26.7231 18.8178 26.6181 18.7519 26.5457 18.656C26.3022 18.34 25.9937 18.08 25.6409 17.8936C25.2882 17.7072 24.8995 17.5988 24.5012 17.5757C24.1014 17.5517 23.7011 17.6128 23.3266 17.755C22.9522 17.8972 22.6121 18.1172 22.329 18.4004L19.2854 21.4439C19.002 21.7269 18.7819 22.0668 18.6397 22.4412C18.4974 22.8156 18.4364 23.2159 18.4606 23.6157C18.4847 24.0155 18.5935 24.4056 18.7798 24.7601C18.9661 25.1147 19.2255 25.4256 19.541 25.6723C19.6364 25.7423 19.7024 25.8453 19.726 25.9613C19.7496 26.0773 19.7292 26.1979 19.6688 26.2996C18.6369 28.0333 17.8622 29.9076 17.3687 31.8639C17.3397 31.9785 17.2687 32.078 17.1696 32.1425C17.0706 32.2071 16.9509 32.232 16.8344 32.2124C16.4372 32.1649 16.0344 32.2014 15.6522 32.3194C15.27 32.4375 14.9169 32.6345 14.6156 32.8978C14.316 33.1625 14.0762 33.4879 13.9119 33.8524C13.7477 34.2169 13.6629 34.6122 13.6631 35.0119V39.3333C13.6629 39.7331 13.7477 40.1283 13.9119 40.4928C14.0762 40.8573 14.316 41.1827 14.6156 41.4475C14.9169 41.7107 15.27 41.9077 15.6522 42.0258C16.0344 42.1438 16.4372 42.1803 16.8344 42.1328C16.9506 42.1158 17.069 42.1419 17.1674 42.206C17.2658 42.2702 17.3374 42.3681 17.3687 42.4813C17.8622 44.4376 18.6369 46.3119 19.6688 48.0456C19.7289 48.1494 19.7492 48.2716 19.7256 48.3892C19.7021 48.5068 19.6365 48.6118 19.541 48.6845C19.225 48.928 18.965 49.2366 18.7786 49.5893C18.5922 49.942 18.4838 50.3307 18.4607 50.729C18.4367 51.1288 18.4979 51.5292 18.64 51.9036C18.7822 52.2781 19.0022 52.6181 19.2854 52.9013L22.329 55.9448C22.6103 56.2306 22.95 56.4522 23.3249 56.5946C23.6999 56.7369 24.1011 56.7966 24.5012 56.7695C24.9009 56.7452 25.2908 56.6364 25.6453 56.4501C25.9997 56.2639 26.3106 56.0045 26.5573 55.6892C26.6273 55.5938 26.7303 55.5278 26.8463 55.5042C26.9623 55.4806 27.0829 55.501 27.1846 55.5614C28.9183 56.5933 30.7926 57.368 32.7489 57.8615C32.8627 57.8919 32.9612 57.9633 33.0255 58.0619C33.0898 58.1605 33.1154 58.2795 33.0974 58.3958C33.0476 58.7928 33.0829 59.1959 33.2008 59.5782C33.3188 59.9605 33.5167 60.3133 33.7815 60.6133C34.0463 60.9132 34.3719 61.1534 34.7366 61.3178C35.1013 61.4823 35.4969 61.5673 35.897 61.5671H40.2183C40.6184 61.5673 41.0139 61.4823 41.3786 61.3178C41.7434 61.1534 42.0689 60.9132 42.3337 60.6133C42.5985 60.3133 42.7964 59.9605 42.9144 59.5782C43.0323 59.1959 43.0676 58.7928 43.0178 58.3958C42.9998 58.2795 43.0254 58.1605 43.0897 58.0619C43.1541 57.9633 43.2526 57.8919 43.3663 57.8615C45.3226 57.368 47.1969 56.5933 48.9306 55.5614C49.0344 55.5013 49.1566 55.4811 49.2742 55.5046C49.3918 55.5281 49.4968 55.5938 49.5695 55.6892C49.8149 56.0047 50.1247 56.2643 50.4783 56.4507C50.8319 56.6371 51.2211 56.746 51.6201 56.7702C52.0191 56.7944 52.4186 56.7333 52.7922 56.5909C53.1657 56.4486 53.5046 56.2283 53.7863 55.9448L56.8298 52.9013C57.1132 52.6183 57.3334 52.2784 57.4756 51.904C57.6178 51.5296 57.6788 51.1293 57.6547 50.7295C57.6305 50.3297 57.5217 49.9396 57.3354 49.5851C57.1492 49.2305 56.8897 48.9196 56.5742 48.6729C56.4788 48.6029 56.4128 48.4999 56.3892 48.3839C56.3656 48.2679 56.386 48.1473 56.4464 48.0456C57.4783 46.3119 58.253 44.4376 58.7465 42.4813C58.7791 42.3689 58.851 42.2719 58.949 42.2079C59.0471 42.144 59.1648 42.1173 59.2809 42.1328C59.6781 42.1803 60.0808 42.1438 60.463 42.0258C60.8452 41.9077 61.1984 41.7107 61.4996 41.4475C61.7992 41.1827 62.0391 40.8573 62.2033 40.4928C62.3675 40.1283 62.4523 39.7331 62.4521 39.3333ZM38.0576 50.9613C35.3305 50.9613 32.6646 50.1526 30.397 48.6375C28.1295 47.1224 26.3621 44.9689 25.3185 42.4493C24.2749 39.9298 24.0018 37.1573 24.5338 34.4826C25.0659 31.8078 26.3791 29.3509 28.3075 27.4225C30.2359 25.4941 32.6928 24.1809 35.3676 23.6488C38.0423 23.1168 40.8148 23.3899 43.3343 24.4335C45.8539 25.4771 48.0074 27.2445 49.5225 29.512C51.0376 31.7795 51.8463 34.4455 51.8463 37.1726C51.8402 40.8277 50.3855 44.3314 47.8009 46.9159C45.2164 49.5005 41.7127 50.9552 38.0576 50.9613Z" fill="url(#paint1_linear_66_1104)"/>
<path d="M38.0576 48.638C44.3898 48.638 49.523 43.5048 49.523 37.1726C49.523 30.8404 44.3898 25.7072 38.0576 25.7072C31.7254 25.7072 26.5922 30.8404 26.5922 37.1726C26.5922 43.5048 31.7254 48.638 38.0576 48.638Z" fill="url(#paint2_linear_66_1104)"/>
<defs>
<linearGradient id="paint0_linear_66_1104" x1="66.6723" y1="50.8637" x2="12.614" y2="43.8882" gradientUnits="userSpaceOnUse">
<stop stop-color="#0C6271"/>
<stop offset="1" stop-color="#117D90"/>
</linearGradient>
<linearGradient id="paint1_linear_66_1104" x1="59.5186" y1="47.4408" x2="18.9747" y2="42.2092" gradientUnits="userSpaceOnUse">
<stop stop-color="#0C6271"/>
<stop offset="1" stop-color="#117D90"/>
</linearGradient>
<linearGradient id="paint2_linear_66_1104" x1="48.1443" y1="41.9987" x2="29.0886" y2="39.5398" gradientUnits="userSpaceOnUse">
<stop stop-color="#0C6271"/>
<stop offset="1" stop-color="#117D90"/>
</linearGradient>
</defs>
</svg>
