<svg width="78" height="120" viewBox="0 0 78 120" fill="none" xmlns="http://www.w3.org/2000/svg">
<path d="M18.9865 111.621L2.59916 101.377C0.657847 100.164 0.616495 97.3505 2.5213 96.0804L19.4208 84.8119C21.544 83.3961 24.3815 84.9587 24.3207 87.5103L23.8086 109.023C23.7505 111.465 21.0576 112.916 18.9865 111.621Z" fill="url(#paint0_linear_19_4039)" fill-opacity="0.22"/>
<path d="M52.7756 0.431897L26.6581 15.7231C24.599 16.9287 24.5735 19.8965 26.6115 21.1373L74.9642 50.575C75.9039 51.1471 76.4774 52.1678 76.4774 53.2682V111.35C76.4774 113.8 79.1505 115.314 81.2515 114.053L106.47 98.9194C107.419 98.3496 108 97.3233 108 96.2159V34.3375C108 33.2445 107.434 32.2294 106.504 31.655L56.0245 0.470414C55.0321 -0.142681 53.7822 -0.157498 52.7756 0.431897Z" fill="url(#paint1_linear_19_4039)" fill-opacity="0.22"/>
<path d="M24.9722 34.3208L1.56405 47.9768C-0.524305 49.1952 -0.520608 52.2144 1.57072 53.4276L34.7151 72.655C35.6873 73.219 36.2858 74.2582 36.2858 75.3823V116.842C36.2858 119.298 38.9693 120.811 41.0701 119.54L63.9293 105.703C64.8729 105.132 65.4495 104.109 65.4495 103.006V59.1212C65.4495 58.0282 64.8835 57.0132 63.9537 56.4388L28.2169 34.3618C27.226 33.7497 25.9783 33.7339 24.9722 34.3208Z" fill="url(#paint2_linear_19_4039)" fill-opacity="0.22"/>
<defs>
<linearGradient id="paint0_linear_19_4039" x1="54" y1="0" x2="54" y2="120" gradientUnits="userSpaceOnUse">
<stop stop-color="#14BA9C"/>
<stop offset="1" stop-color="#45E6C9"/>
</linearGradient>
<linearGradient id="paint1_linear_19_4039" x1="54" y1="0" x2="54" y2="120" gradientUnits="userSpaceOnUse">
<stop stop-color="#14BA9C"/>
<stop offset="1" stop-color="#45E6C9"/>
</linearGradient>
<linearGradient id="paint2_linear_19_4039" x1="54" y1="0" x2="54" y2="120" gradientUnits="userSpaceOnUse">
<stop stop-color="#14BA9C"/>
<stop offset="1" stop-color="#45E6C9"/>
</linearGradient>
</defs>
</svg>
