<svg width="543" height="109" viewBox="0 0 543 109" fill="none" xmlns="http://www.w3.org/2000/svg">
<circle cx="54.2056" cy="54.2427" r="53.2056" fill="#0F7285" stroke="#1A8395" stroke-width="2"/>
<path d="M83.1905 60.6211V64.3888H60.0663C60.4237 63.1583 60.4237 61.8516 60.0663 60.6211H83.1905ZM53.5962 67.4736C54.5789 67.4736 55.5395 67.1822 56.3566 66.6362C57.1737 66.0902 57.8105 65.3142 58.1866 64.4063C58.5626 63.4984 58.661 62.4993 58.4693 61.5355C58.2775 60.5717 57.8043 59.6864 57.1094 58.9915C56.4145 58.2966 55.5292 57.8234 54.5654 57.6317C53.6016 57.44 52.6025 57.5384 51.6946 57.9145C50.7867 58.2906 50.0107 58.9274 49.4648 59.7445C48.9188 60.5616 48.6274 61.5222 48.6274 62.5049C48.6303 63.8219 49.1547 65.084 50.0859 66.0152C51.0171 66.9464 52.2793 67.4708 53.5962 67.4736ZM46.8616 62.5049C46.8608 61.8674 46.9513 61.233 47.1303 60.6211H24.0054V64.3888H47.1303C46.9513 63.7768 46.8609 63.1425 46.8616 62.5049ZM56.9098 68.3709C55.8982 68.9404 54.757 69.2395 53.5961 69.2395C52.4353 69.2395 51.2941 68.9404 50.2825 68.3709L47.6051 73.8722L41.6104 86.1761H65.5855L59.5904 73.8722L56.9098 68.3709ZM26.8508 55.5702V33.1534L35.5192 28.1477V23.3772C35.5192 23.143 35.6123 22.9184 35.7779 22.7528C35.9435 22.5872 36.1681 22.4941 36.4023 22.4941C36.6365 22.4941 36.8612 22.5872 37.0268 22.7528C37.1924 22.9184 37.2854 23.143 37.2854 23.3772V28.1479L45.9536 33.1534V55.5702C45.9536 55.89 45.8268 56.1967 45.601 56.4232C45.3752 56.6497 45.0688 56.7774 44.749 56.7784H28.0555C27.7357 56.7775 27.4293 56.6497 27.2035 56.4233C26.9776 56.1968 26.8508 55.89 26.8508 55.5702ZM34.1216 33.6433C34.1222 34.0557 34.2347 34.4602 34.4469 34.8137C34.6592 35.1673 34.9633 35.4567 35.327 35.6511C35.6907 35.8455 36.1002 35.9377 36.5121 35.9178C36.924 35.8979 37.3228 35.7667 37.6661 35.5382C38.0093 35.3097 38.2842 34.9924 38.4614 34.62C38.6387 34.2477 38.7116 33.8342 38.6725 33.4237C38.6335 33.0132 38.4838 32.6209 38.2395 32.2887C37.9952 31.9565 37.6654 31.6968 37.2852 31.5371V33.6433C37.2852 33.8775 37.1921 34.1022 37.0265 34.2678C36.8609 34.4334 36.6363 34.5264 36.4021 34.5264C36.1679 34.5264 35.9433 34.4334 35.7776 34.2678C35.612 34.1022 35.519 33.8775 35.519 33.6433V31.5365C35.1044 31.7109 34.7506 32.004 34.502 32.3788C34.2534 32.7536 34.1211 33.1936 34.1216 33.6433ZM32.0307 43.3735C32.0307 44.378 32.5598 45.268 33.414 45.8936C34.288 46.5085 35.334 46.8313 36.4025 46.8159C37.0954 46.8001 37.7757 47.0027 38.3471 47.395C38.7546 47.6953 39.0083 48.0848 39.0083 48.4959C39.0083 48.907 38.7546 49.2967 38.3471 49.5969C37.7746 49.9865 37.0948 50.1877 36.4025 50.1724C35.8474 50.179 35.2986 50.0541 34.8011 49.8078C34.4229 49.6323 34.1109 49.3403 33.9109 48.9745C33.8607 48.8703 33.7904 48.777 33.7041 48.7C33.6178 48.6229 33.5172 48.5636 33.408 48.5254C33.2988 48.4872 33.1832 48.471 33.0677 48.4775C32.9522 48.484 32.8391 48.5132 32.7349 48.5634C32.6307 48.6137 32.5374 48.6839 32.4603 48.7702C32.3833 48.8565 32.324 48.9571 32.2858 49.0663C32.2476 49.1755 32.2313 49.2912 32.2379 49.4067C32.2444 49.5222 32.2736 49.6352 32.3238 49.7394C32.6911 50.4486 33.2762 51.0212 33.9931 51.373C34.4723 51.6188 34.9875 51.7868 35.5195 51.8705V52.8714C35.5195 52.9874 35.5423 53.1022 35.5867 53.2094C35.6311 53.3165 35.6961 53.4139 35.7781 53.4959C35.8601 53.5779 35.9575 53.6429 36.0646 53.6873C36.1718 53.7317 36.2866 53.7545 36.4026 53.7545C36.5185 53.7545 36.6334 53.7317 36.7405 53.6873C36.8477 53.6429 36.945 53.5779 37.027 53.4959C37.109 53.4139 37.1741 53.3165 37.2184 53.2094C37.2628 53.1022 37.2857 52.9874 37.2857 52.8714V51.8705C38.0445 51.7539 38.7656 51.4613 39.3912 51.0162C40.2454 50.3871 40.7745 49.497 40.7745 48.496C40.7745 47.4917 40.2454 46.6015 39.3912 45.9724C38.5162 45.3595 37.4709 45.0369 36.4027 45.0501C35.7102 45.0671 35.0299 44.8658 34.4582 44.4746C34.0506 44.1744 33.7968 43.7847 33.7968 43.3736C33.7968 42.9625 34.0506 42.573 34.4582 42.2727C35.0295 41.8803 35.7098 41.6777 36.4027 41.6936C36.9592 41.6869 37.5093 41.8131 38.0072 42.0618C38.3844 42.2373 38.6952 42.5295 38.8938 42.8951C38.9952 43.1056 39.1761 43.2671 39.3966 43.3442C39.5058 43.3824 39.6215 43.3987 39.737 43.3922C39.8525 43.3856 39.9656 43.3564 40.0698 43.3062C40.174 43.256 40.2673 43.1857 40.3443 43.0994C40.4214 43.0131 40.4807 42.9125 40.5189 42.8033C40.557 42.6941 40.5733 42.5785 40.5668 42.463C40.5603 42.3475 40.5311 42.2344 40.4808 42.1302C40.1136 41.4211 39.5285 40.8485 38.8115 40.4966C38.3324 40.2507 37.8172 40.0828 37.2852 39.9991V38.9946C37.2852 38.7604 37.1921 38.5358 37.0265 38.3702C36.8609 38.2046 36.6363 38.1115 36.4021 38.1115C36.1679 38.1115 35.9433 38.2046 35.7776 38.3702C35.612 38.5358 35.519 38.7604 35.519 38.9946V39.9991C34.7596 40.114 34.0382 40.4067 33.4135 40.8534C32.5595 41.4789 32.0307 42.369 32.0307 43.3735ZM61.2423 55.5702V33.1534L69.9107 28.1477V23.3772C69.9107 23.143 70.0038 22.9184 70.1694 22.7528C70.335 22.5872 70.5596 22.4941 70.7938 22.4941C71.028 22.4941 71.2526 22.5872 71.4183 22.7528C71.5839 22.9184 71.6769 23.143 71.6769 23.3772V28.1479L80.3451 33.1534V55.5702C80.3451 55.89 80.2183 56.1968 79.9924 56.4233C79.7666 56.6497 79.4602 56.7775 79.1404 56.7784H62.4469C62.1271 56.7774 61.8207 56.6497 61.5949 56.4232C61.3691 56.1967 61.2423 55.89 61.2423 55.5702ZM68.5131 33.6433C68.5137 34.0557 68.6261 34.4602 68.8384 34.8137C69.0507 35.1673 69.3548 35.4567 69.7185 35.6511C70.0821 35.8455 70.4917 35.9377 70.9036 35.9178C71.3155 35.8979 71.7143 35.7667 72.0576 35.5382C72.4008 35.3097 72.6757 34.9924 72.8529 34.62C73.0302 34.2477 73.1031 33.8342 73.064 33.4237C73.0249 33.0132 72.8753 32.6209 72.631 32.2887C72.3867 31.9565 72.0569 31.6968 71.6767 31.5371V33.6433C71.6767 33.8775 71.5836 34.1022 71.418 34.2678C71.2524 34.4334 71.0278 34.5264 70.7936 34.5264C70.5594 34.5264 70.3347 34.4334 70.1691 34.2678C70.0035 34.1022 69.9105 33.8775 69.9105 33.6433V31.5365C69.4959 31.7109 69.1421 32.004 68.8935 32.3788C68.6449 32.7536 68.5126 33.1936 68.5131 33.6433ZM66.4214 43.3735C66.4214 44.378 66.9505 45.268 67.8047 45.8936C68.6787 46.5085 69.7247 46.8313 70.7932 46.8159C71.4861 46.8001 72.1664 47.0027 72.7377 47.395C73.1453 47.6953 73.3991 48.0848 73.3991 48.4959C73.3991 48.907 73.1453 49.2967 72.7377 49.5969C72.1653 49.9865 71.4855 50.1877 70.7932 50.1724C70.2381 50.179 69.6893 50.0541 69.1917 49.8078C68.8136 49.6323 68.5017 49.3402 68.3016 48.9745C68.2514 48.8703 68.1812 48.777 68.0949 48.6999C68.0086 48.6229 67.908 48.5636 67.7988 48.5254C67.6896 48.4872 67.5739 48.471 67.4584 48.4775C67.3429 48.484 67.2298 48.5132 67.1256 48.5634C67.0214 48.6137 66.9281 48.6839 66.8511 48.7702C66.774 48.8565 66.7147 48.9571 66.6765 49.0663C66.6384 49.1755 66.6221 49.2912 66.6286 49.4067C66.6351 49.5222 66.6643 49.6352 66.7146 49.7394C67.0818 50.4486 67.6669 51.0212 68.3839 51.373C68.863 51.6188 69.3783 51.7868 69.9102 51.8705V52.8714C69.9102 53.1056 70.0033 53.3302 70.1689 53.4959C70.3345 53.6615 70.5591 53.7545 70.7933 53.7545C71.0275 53.7545 71.2521 53.6615 71.4178 53.4959C71.5834 53.3302 71.6764 53.1056 71.6764 52.8714V51.8705C72.4352 51.754 73.1563 51.4614 73.7818 51.0162C74.6361 50.3871 75.1652 49.497 75.1652 48.496C75.1652 47.4917 74.6361 46.6015 73.7818 45.9724C72.9068 45.3596 71.8616 45.037 70.7934 45.0501C70.1009 45.0671 69.4206 44.8657 68.8488 44.4746C68.4413 44.1744 68.1876 43.7847 68.1876 43.3736C68.1876 42.9625 68.4413 42.573 68.8488 42.2727C69.4201 41.8803 70.1005 41.6777 70.7934 41.6936C71.35 41.6869 71.9 41.8131 72.3979 42.0618C72.7752 42.2373 73.086 42.5295 73.2845 42.8951C73.3859 43.1056 73.5668 43.2671 73.7874 43.3442C74.0079 43.4213 74.25 43.4076 74.4605 43.3062C74.671 43.2048 74.8325 43.0239 74.9096 42.8033C74.9867 42.5828 74.973 42.3407 74.8716 42.1302C74.5043 41.4211 73.9192 40.8485 73.2023 40.4966C72.7231 40.2507 72.2079 40.0828 71.6759 39.9991V38.9946C71.6759 38.7604 71.5829 38.5358 71.4173 38.3702C71.2516 38.2046 71.027 38.1115 70.7928 38.1115C70.5586 38.1115 70.334 38.2046 70.1684 38.3702C70.0028 38.5358 69.9097 38.7604 69.9097 38.9946V39.9991C69.1504 40.114 68.4289 40.4067 67.8042 40.8534C66.951 41.4789 66.4214 42.369 66.4214 43.3735Z" fill="white"/>
<path d="M151.048 22.72C151.048 26.0648 148.834 27.841 145.327 27.841H140.875V34H138.315V17.5759H145.327C148.834 17.5759 151.048 19.3752 151.048 22.72ZM148.488 22.72C148.488 20.5747 147.265 19.5136 144.981 19.5136H140.875V25.9033H144.981C147.265 25.9033 148.488 24.8653 148.488 22.72ZM155.331 34H152.886V22.0972H155.216V24.8422C155.839 22.7431 156.9 21.9588 158.63 21.9588C158.953 21.9588 159.414 22.028 159.714 22.0972V24.2424L158.537 24.1963C156.6 24.1963 155.331 25.6957 155.331 28.3485V34ZM163.779 34H161.334V22.0972H163.779V34ZM162.556 20.0211C161.61 20.0211 161.103 19.4675 161.103 18.7293C161.103 17.9911 161.61 17.4145 162.556 17.4145C163.479 17.4145 164.009 17.9911 164.009 18.7293C164.009 19.4675 163.479 20.0211 162.556 20.0211ZM171.392 34.2307C167.724 34.2307 165.625 31.8317 165.625 28.0486C165.625 24.2655 167.724 21.8665 171.392 21.8665C175.152 21.8665 176.79 24.2655 176.79 26.48H174.529C174.299 25.0037 173.422 23.735 171.392 23.735C169.316 23.735 168.07 25.1882 168.07 28.0486C168.07 30.932 169.316 32.3622 171.392 32.3622C173.168 32.3622 174.276 31.4164 174.529 29.5249H176.79C176.79 31.9701 175.014 34.2307 171.392 34.2307ZM183.83 34.2307C180.047 34.2307 177.948 31.8317 177.948 28.0486C177.948 24.3808 179.931 21.8665 183.691 21.8665C187.451 21.8665 189.435 24.427 189.435 27.841C189.435 28.0716 189.412 28.2793 189.389 28.5099H180.393C180.462 31.3242 181.8 32.5467 183.83 32.5467C185.514 32.5467 186.575 31.6702 186.944 30.3092H189.181C188.651 32.7313 186.921 34.2307 183.83 34.2307ZM183.691 23.5504C181.846 23.5504 180.646 24.6577 180.393 26.8952H186.99C186.736 24.6577 185.537 23.5504 183.691 23.5504ZM204.559 34.2307C199.368 34.2307 196.577 30.7936 196.577 25.788C196.577 20.7823 199.368 17.3453 204.559 17.3453C209.034 17.3453 211.94 20.0211 211.94 23.4351H209.541C209.241 21.1514 207.627 19.4444 204.559 19.4444C200.983 19.4444 199.138 21.7281 199.138 25.788C199.138 29.8478 200.983 32.1315 204.559 32.1315C207.58 32.1315 209.241 30.5168 209.541 28.0024H211.94C211.94 31.4856 209.126 34.2307 204.559 34.2307ZM219.197 34.2307C215.414 34.2307 213.315 31.8317 213.315 28.0486C213.315 24.2655 215.414 21.8665 219.197 21.8665C222.98 21.8665 225.079 24.2655 225.079 28.0486C225.079 31.8317 222.98 34.2307 219.197 34.2307ZM219.197 32.3622C221.388 32.3622 222.634 30.932 222.634 28.0486C222.634 25.1882 221.388 23.735 219.197 23.735C217.006 23.735 215.76 25.1882 215.76 28.0486C215.76 30.932 217.006 32.3622 219.197 32.3622ZM242.894 34H240.542V26.5031C240.542 24.7038 239.965 23.8503 238.604 23.8503C237.174 23.8503 236.066 25.119 236.066 27.2874V34H233.714V26.5031C233.714 24.7038 233.137 23.8503 231.799 23.8503C230.369 23.8503 229.285 25.119 229.285 27.2874V34H226.932V22.0972H229.262V24.1732C229.815 22.7892 230.922 21.8665 232.56 21.8665C234.336 21.8665 235.398 22.6739 235.836 24.2655C236.436 22.7431 237.681 21.8665 239.319 21.8665C241.718 21.8665 242.894 23.2505 242.894 26.134V34ZM251.522 34.2307C249.607 34.2307 248.315 33.4464 247.646 31.9701V38.5212H245.201V22.0972H247.531V24.3116C248.177 22.7661 249.469 21.8665 251.522 21.8665C254.728 21.8665 256.735 24.1502 256.735 28.0486C256.735 31.947 254.728 34.2307 251.522 34.2307ZM250.968 32.3622C252.929 32.3622 254.29 31.0474 254.29 28.0486C254.29 25.0729 252.929 23.735 250.968 23.735C248.984 23.735 247.646 25.0729 247.646 28.0486C247.646 31.0474 248.984 32.3622 250.968 32.3622ZM262.388 34.2307C259.62 34.2307 258.121 32.8466 258.121 30.6321C258.121 28.8559 259.205 27.4488 262.157 27.1951L264.464 27.0105C265.871 26.8721 266.287 26.5492 266.287 25.788C266.287 24.427 265.502 23.6196 263.772 23.6196C262.157 23.6196 261.281 24.3116 261.166 25.788H258.767C258.767 23.3889 260.243 21.8665 263.749 21.8665C267.232 21.8665 268.732 23.3889 268.732 25.788V30.9551C268.732 32.5698 268.87 33.6079 269.101 34H266.909C266.54 33.5386 266.402 33.0542 266.402 31.947C265.756 33.4694 264.441 34.2307 262.388 34.2307ZM263.057 32.5467C265.156 32.5467 266.287 30.909 266.287 28.9482V27.9332C266.033 28.2562 265.387 28.4407 264.464 28.5099L262.942 28.6483C261.235 28.7867 260.566 29.5018 260.566 30.4707C260.566 31.6932 261.304 32.5467 263.057 32.5467ZM273.485 34H271.039V22.0972H273.369V24.8422C273.992 22.7431 275.053 21.9588 276.783 21.9588C277.106 21.9588 277.567 22.028 277.867 22.0972V24.2424L276.691 24.1963C274.753 24.1963 273.485 25.6957 273.485 28.3485V34ZM281.932 34H279.487V22.0972H281.932V34ZM280.71 20.0211C279.764 20.0211 279.256 19.4675 279.256 18.7293C279.256 17.9911 279.764 17.4145 280.71 17.4145C281.632 17.4145 282.163 17.9911 282.163 18.7293C282.163 19.4675 281.632 20.0211 280.71 20.0211ZM288.946 34.2307C285.209 34.2307 283.779 32.5929 283.779 30.3092H286.132C286.247 31.6702 286.847 32.5929 288.969 32.5929C291.045 32.5929 291.668 31.6932 291.668 30.6783C291.668 29.7325 290.976 29.2481 289.846 29.0866L287.654 28.7637C285.163 28.4177 284.102 27.5411 284.102 25.5573C284.102 23.5043 285.393 21.8665 288.946 21.8665C292.498 21.8665 293.79 23.5043 293.79 25.6034H291.437C291.322 24.4962 290.953 23.5043 288.923 23.5043C287.193 23.5043 286.547 24.2194 286.547 25.3728C286.547 26.3416 287.1 26.6876 288.023 26.826L290.215 27.1489C292.637 27.495 294.113 28.3715 294.113 30.5399C294.113 32.5929 292.683 34.2307 288.946 34.2307ZM301.375 34.2307C297.592 34.2307 295.493 31.8317 295.493 28.0486C295.493 24.2655 297.592 21.8665 301.375 21.8665C305.158 21.8665 307.257 24.2655 307.257 28.0486C307.257 31.8317 305.158 34.2307 301.375 34.2307ZM301.375 32.3622C303.566 32.3622 304.812 30.932 304.812 28.0486C304.812 25.1882 303.566 23.735 301.375 23.735C299.184 23.735 297.938 25.1882 297.938 28.0486C297.938 30.932 299.184 32.3622 301.375 32.3622ZM319.259 34H316.814V26.5723C316.814 24.773 316.168 23.8503 314.484 23.8503C312.708 23.8503 311.555 25.1882 311.555 27.3566V34H309.11V22.0972H311.44V24.1732C312.085 22.7892 313.239 21.8665 315.223 21.8665C317.945 21.8665 319.259 23.2505 319.259 26.134V34Z" fill="white"/>
<path d="M143.04 63.16C139.952 63.16 138.48 61.816 138.48 59.384H140.192C140.368 61.032 141.088 61.816 143.072 61.816C145.024 61.816 145.824 61 145.824 59.736C145.824 58.904 145.36 58.312 143.552 58.056L141.968 57.816C139.616 57.48 138.768 56.632 138.768 54.904C138.768 52.872 140.16 51.448 143.04 51.448C145.92 51.448 147.312 52.84 147.312 55.064H145.648C145.472 53.56 144.72 52.792 142.992 52.792C141.296 52.792 140.544 53.592 140.544 54.808C140.544 55.672 140.944 56.136 142.544 56.36L144.128 56.6C146.384 56.92 147.6 57.784 147.6 59.624C147.6 61.784 146.128 63.16 143.04 63.16ZM151.518 63.16C149.598 63.16 148.558 62.2 148.558 60.664C148.558 59.432 149.31 58.456 151.358 58.28L152.958 58.152C153.934 58.056 154.222 57.832 154.222 57.304C154.222 56.36 153.678 55.8 152.478 55.8C151.358 55.8 150.75 56.28 150.67 57.304H149.006C149.006 55.64 150.03 54.584 152.462 54.584C154.878 54.584 155.918 55.64 155.918 57.304V60.888C155.918 62.008 156.014 62.728 156.174 63H154.654C154.398 62.68 154.302 62.344 154.302 61.576C153.854 62.632 152.942 63.16 151.518 63.16ZM151.982 61.992C153.438 61.992 154.222 60.856 154.222 59.496V58.792C154.046 59.016 153.598 59.144 152.958 59.192L151.902 59.288C150.718 59.384 150.254 59.88 150.254 60.552C150.254 61.4 150.766 61.992 151.982 61.992ZM161.672 63H159.624L156.488 54.744H158.248L160.648 61.496L163.032 54.744H164.808L161.672 63ZM169.044 63.16C166.42 63.16 164.964 61.496 164.964 58.872C164.964 56.328 166.34 54.584 168.948 54.584C171.556 54.584 172.932 56.36 172.932 58.728C172.932 58.888 172.916 59.032 172.9 59.192H166.66C166.708 61.144 167.636 61.992 169.044 61.992C170.212 61.992 170.948 61.384 171.204 60.44H172.756C172.388 62.12 171.188 63.16 169.044 63.16ZM168.948 55.752C167.668 55.752 166.836 56.52 166.66 58.072H171.236C171.06 56.52 170.228 55.752 168.948 55.752ZM180.846 63.16C178.926 63.16 177.886 62.2 177.886 60.664C177.886 59.432 178.638 58.456 180.686 58.28L182.286 58.152C183.262 58.056 183.55 57.832 183.55 57.304C183.55 56.36 183.006 55.8 181.806 55.8C180.686 55.8 180.078 56.28 179.998 57.304H178.334C178.334 55.64 179.358 54.584 181.79 54.584C184.206 54.584 185.246 55.64 185.246 57.304V60.888C185.246 62.008 185.342 62.728 185.502 63H183.982C183.726 62.68 183.63 62.344 183.63 61.576C183.182 62.632 182.27 63.16 180.846 63.16ZM181.31 61.992C182.766 61.992 183.55 60.856 183.55 59.496V58.792C183.374 59.016 182.926 59.144 182.286 59.192L181.23 59.288C180.046 59.384 179.582 59.88 179.582 60.552C179.582 61.4 180.094 61.992 181.31 61.992ZM193.887 63H192.191V57.848C192.191 56.6 191.743 55.96 190.575 55.96C189.343 55.96 188.543 56.888 188.543 58.392V63H186.847V54.744H188.463V56.184C188.911 55.224 189.711 54.584 191.087 54.584C192.975 54.584 193.887 55.544 193.887 57.544V63ZM202.128 63.16C200.208 63.16 199.168 62.2 199.168 60.664C199.168 59.432 199.92 58.456 201.968 58.28L203.568 58.152C204.544 58.056 204.832 57.832 204.832 57.304C204.832 56.36 204.288 55.8 203.088 55.8C201.968 55.8 201.36 56.28 201.28 57.304H199.616C199.616 55.64 200.64 54.584 203.072 54.584C205.488 54.584 206.528 55.64 206.528 57.304V60.888C206.528 62.008 206.624 62.728 206.784 63H205.264C205.008 62.68 204.912 62.344 204.912 61.576C204.464 62.632 203.552 63.16 202.128 63.16ZM202.592 61.992C204.048 61.992 204.832 60.856 204.832 59.496V58.792C204.656 59.016 204.208 59.144 203.568 59.192L202.512 59.288C201.328 59.384 200.864 59.88 200.864 60.552C200.864 61.4 201.376 61.992 202.592 61.992ZM212.282 63H210.234L207.098 54.744H208.858L211.258 61.496L213.642 54.744H215.418L212.282 63ZM219.654 63.16C217.03 63.16 215.574 61.496 215.574 58.872C215.574 56.328 216.95 54.584 219.558 54.584C222.166 54.584 223.542 56.36 223.542 58.728C223.542 58.888 223.526 59.032 223.51 59.192H217.27C217.318 61.144 218.246 61.992 219.654 61.992C220.822 61.992 221.558 61.384 221.814 60.44H223.366C222.998 62.12 221.798 63.16 219.654 63.16ZM219.558 55.752C218.278 55.752 217.446 56.52 217.27 58.072H221.846C221.67 56.52 220.838 55.752 219.558 55.752ZM226.512 63H224.816V54.744H226.432V56.648C226.864 55.192 227.6 54.648 228.8 54.648C229.024 54.648 229.344 54.696 229.552 54.744V56.232L228.736 56.2C227.392 56.2 226.512 57.24 226.512 59.08V63ZM232.924 63.16C231.004 63.16 229.964 62.2 229.964 60.664C229.964 59.432 230.716 58.456 232.764 58.28L234.364 58.152C235.34 58.056 235.628 57.832 235.628 57.304C235.628 56.36 235.084 55.8 233.884 55.8C232.764 55.8 232.156 56.28 232.076 57.304H230.412C230.412 55.64 231.436 54.584 233.868 54.584C236.284 54.584 237.324 55.64 237.324 57.304V60.888C237.324 62.008 237.42 62.728 237.58 63H236.06C235.804 62.68 235.708 62.344 235.708 61.576C235.26 62.632 234.348 63.16 232.924 63.16ZM233.388 61.992C234.844 61.992 235.628 60.856 235.628 59.496V58.792C235.452 59.016 235.004 59.144 234.364 59.192L233.308 59.288C232.124 59.384 231.66 59.88 231.66 60.552C231.66 61.4 232.172 61.992 233.388 61.992ZM242.205 62.68C239.981 62.68 238.605 61.048 238.605 58.632C238.605 56.216 239.981 54.584 242.205 54.584C243.645 54.584 244.525 55.208 244.989 56.28V54.744H246.605V62.392C246.605 64.952 245.229 66.296 242.653 66.296C240.253 66.296 239.053 65.128 239.053 63.384H240.637C240.749 64.536 241.485 65.16 242.733 65.16C244.109 65.16 244.909 64.424 244.909 62.824V61.112C244.445 62.136 243.533 62.68 242.205 62.68ZM242.605 61.464C243.965 61.464 244.909 60.504 244.909 58.632C244.909 56.776 243.965 55.8 242.605 55.8C241.229 55.8 240.301 56.776 240.301 58.632C240.301 60.504 241.229 61.464 242.605 61.464ZM251.966 63.16C249.342 63.16 247.886 61.496 247.886 58.872C247.886 56.328 249.262 54.584 251.87 54.584C254.478 54.584 255.854 56.36 255.854 58.728C255.854 58.888 255.838 59.032 255.822 59.192H249.582C249.63 61.144 250.558 61.992 251.966 61.992C253.134 61.992 253.87 61.384 254.126 60.44H255.678C255.31 62.12 254.11 63.16 251.966 63.16ZM251.87 55.752C250.59 55.752 249.758 56.52 249.582 58.072H254.158C253.982 56.52 253.15 55.752 251.87 55.752ZM264.888 63.16C262.264 63.16 260.808 61.496 260.808 58.872C260.808 56.248 262.264 54.584 264.888 54.584C267.512 54.584 268.968 56.248 268.968 58.872C268.968 61.496 267.512 63.16 264.888 63.16ZM264.888 61.864C266.408 61.864 267.272 60.872 267.272 58.872C267.272 56.888 266.408 55.88 264.888 55.88C263.368 55.88 262.504 56.888 262.504 58.872C262.504 60.872 263.368 61.864 264.888 61.864ZM272.341 63H270.645V55.96H269.301V54.744H270.645V53.88C270.645 52.28 271.317 51.528 272.981 51.528C273.317 51.528 273.909 51.576 274.245 51.608V52.776L273.365 52.744C272.613 52.744 272.341 53.096 272.341 53.816V54.744H274.245V55.96H272.341V63ZM283.427 63H281.731V54.264C281.283 54.792 280.131 55.032 279.411 55.032H279.043V53.768C280.674 53.688 281.635 53.032 282.067 51.608H283.427V63ZM289.112 63.16C286.472 63.16 284.824 61.976 284.824 59.976C284.824 58.344 285.688 57.464 287.24 57.16C285.976 56.856 285.144 55.992 285.144 54.584C285.144 52.664 286.68 51.448 289.112 51.448C291.544 51.448 293.08 52.664 293.08 54.584C293.08 55.992 292.232 56.856 290.968 57.16C292.52 57.464 293.4 58.344 293.4 59.976C293.4 61.976 291.752 63.16 289.112 63.16ZM289.112 61.864C290.728 61.864 291.704 61.144 291.704 59.864C291.704 58.584 290.728 57.848 289.112 57.848C287.48 57.848 286.552 58.584 286.552 59.864C286.552 61.144 287.48 61.864 289.112 61.864ZM289.112 56.552C290.536 56.552 291.464 55.832 291.464 54.648C291.464 53.464 290.536 52.744 289.112 52.744C287.688 52.744 286.76 53.464 286.76 54.648C286.76 55.832 287.688 56.552 289.112 56.552ZM297.043 58.424C295.155 58.424 294.355 57.112 294.355 54.968C294.355 52.824 295.155 51.512 297.043 51.512C298.931 51.512 299.747 52.824 299.747 54.968C299.747 57.112 298.931 58.424 297.043 58.424ZM297.043 57.464C298.003 57.464 298.579 56.76 298.579 54.968C298.579 53.176 298.003 52.488 297.043 52.488C296.099 52.488 295.523 53.176 295.523 54.968C295.523 56.76 296.099 57.464 297.043 57.464ZM298.451 63H297.363L303.475 51.608H304.563L298.451 63ZM304.883 63.096C302.995 63.096 302.195 61.784 302.195 59.64C302.195 57.496 302.995 56.184 304.883 56.184C306.771 56.184 307.587 57.496 307.587 59.64C307.587 61.784 306.771 63.096 304.883 63.096ZM304.883 62.136C305.843 62.136 306.419 61.432 306.419 59.64C306.419 57.848 305.843 57.16 304.883 57.16C303.939 57.16 303.363 57.848 303.363 59.64C303.363 61.432 303.939 62.136 304.883 62.136ZM320.623 63.16C317.999 63.16 316.543 61.496 316.543 58.872C316.543 56.248 317.999 54.584 320.623 54.584C323.247 54.584 324.703 56.248 324.703 58.872C324.703 61.496 323.247 63.16 320.623 63.16ZM320.623 61.864C322.143 61.864 323.007 60.872 323.007 58.872C323.007 56.888 322.143 55.88 320.623 55.88C319.103 55.88 318.239 56.888 318.239 58.872C318.239 60.872 319.103 61.864 320.623 61.864ZM333.028 63H331.332V57.848C331.332 56.6 330.884 55.96 329.716 55.96C328.484 55.96 327.684 56.888 327.684 58.392V63H325.988V54.744H327.604V56.184C328.052 55.224 328.852 54.584 330.228 54.584C332.116 54.584 333.028 55.544 333.028 57.544V63ZM342.388 63.16C339.764 63.16 338.308 61.496 338.308 58.872C338.308 56.248 339.764 54.584 342.388 54.584C345.012 54.584 346.468 56.248 346.468 58.872C346.468 61.496 345.012 63.16 342.388 63.16ZM342.388 61.864C343.908 61.864 344.772 60.872 344.772 58.872C344.772 56.888 343.908 55.88 342.388 55.88C340.868 55.88 340.004 56.888 340.004 58.872C340.004 60.872 340.868 61.864 342.388 61.864ZM349.449 63H347.753V54.744H349.369V56.648C349.801 55.192 350.537 54.648 351.737 54.648C351.961 54.648 352.281 54.696 352.489 54.744V56.232L351.673 56.2C350.329 56.2 349.449 57.24 349.449 59.08V63ZM356.533 63.16C354.309 63.16 352.933 61.576 352.933 58.872C352.933 56.168 354.309 54.584 356.533 54.584C357.861 54.584 358.773 55.128 359.237 56.152V51.608H360.933V63H359.317V61.48C358.853 62.536 357.973 63.16 356.533 63.16ZM356.933 61.864C358.293 61.864 359.237 60.952 359.237 58.872C359.237 56.808 358.293 55.88 356.933 55.88C355.557 55.88 354.629 56.808 354.629 58.872C354.629 60.952 355.557 61.864 356.933 61.864ZM366.294 63.16C363.67 63.16 362.214 61.496 362.214 58.872C362.214 56.328 363.59 54.584 366.198 54.584C368.806 54.584 370.182 56.36 370.182 58.728C370.182 58.888 370.166 59.032 370.15 59.192H363.91C363.958 61.144 364.886 61.992 366.294 61.992C367.462 61.992 368.198 61.384 368.454 60.44H370.006C369.638 62.12 368.438 63.16 366.294 63.16ZM366.198 55.752C364.918 55.752 364.086 56.52 363.91 58.072H368.486C368.31 56.52 367.478 55.752 366.198 55.752ZM373.152 63H371.456V54.744H373.072V56.648C373.504 55.192 374.24 54.648 375.44 54.648C375.664 54.648 375.984 54.696 376.192 54.744V56.232L375.376 56.2C374.032 56.2 373.152 57.24 373.152 59.08V63ZM380.548 63.16C377.956 63.16 376.964 62.024 376.964 60.44H378.596C378.676 61.384 379.092 62.024 380.564 62.024C382.004 62.024 382.436 61.4 382.436 60.696C382.436 60.04 381.956 59.704 381.172 59.592L379.652 59.368C377.924 59.128 377.188 58.52 377.188 57.144C377.188 55.72 378.084 54.584 380.548 54.584C383.012 54.584 383.908 55.72 383.908 57.176H382.276C382.196 56.408 381.94 55.72 380.532 55.72C379.332 55.72 378.884 56.216 378.884 57.016C378.884 57.688 379.268 57.928 379.908 58.024L381.428 58.248C383.108 58.488 384.132 59.096 384.132 60.6C384.132 62.024 383.14 63.16 380.548 63.16ZM398.801 63H396.993L395.233 56.984L393.457 63H391.665L388.769 54.744H390.529L392.657 61.08L394.465 54.744H396.001L397.809 61.08L399.921 54.744H401.697L398.801 63ZM404.355 63H402.659V54.744H404.355V63ZM403.507 53.304C402.851 53.304 402.499 52.92 402.499 52.408C402.499 51.896 402.851 51.496 403.507 51.496C404.147 51.496 404.515 51.896 404.515 52.408C404.515 52.92 404.147 53.304 403.507 53.304ZM408.996 63.08C407.268 63.08 406.66 62.568 406.66 60.888V55.96H405.316V54.744H406.66V52.248H408.356V54.744H410.26V55.96H408.356V60.936C408.356 61.656 408.628 61.864 409.38 61.864L410.26 61.848V63C409.924 63.032 409.332 63.08 408.996 63.08ZM418.512 63H416.816V57.848C416.816 56.6 416.368 55.96 415.2 55.96C413.968 55.96 413.168 56.888 413.168 58.392V63H411.472V51.608H413.168V56.056C413.616 55.16 414.4 54.584 415.712 54.584C417.6 54.584 418.512 55.544 418.512 57.544V63ZM427.873 63.16C425.249 63.16 423.793 61.496 423.793 58.872C423.793 56.248 425.249 54.584 427.873 54.584C430.497 54.584 431.953 56.248 431.953 58.872C431.953 61.496 430.497 63.16 427.873 63.16ZM427.873 61.864C429.393 61.864 430.257 60.872 430.257 58.872C430.257 56.888 429.393 55.88 427.873 55.88C426.353 55.88 425.489 56.888 425.489 58.872C425.489 60.872 426.353 61.864 427.873 61.864ZM436.038 63.16C434.15 63.16 433.238 62.2 433.238 60.2V54.744H434.934V59.896C434.934 61.144 435.382 61.784 436.549 61.784C437.782 61.784 438.582 60.856 438.582 59.352V54.744H440.278V63H438.662V61.576C438.198 62.52 437.414 63.16 436.038 63.16ZM443.574 63H441.878V54.744H443.494V56.648C443.926 55.192 444.662 54.648 445.862 54.648C446.086 54.648 446.406 54.696 446.614 54.744V56.232L445.798 56.2C444.454 56.2 443.574 57.24 443.574 59.08V63ZM460.122 63.16C458.698 63.16 457.802 62.536 457.354 61.48V63H455.738V51.608H457.434V56.152C457.898 55.128 458.794 54.584 460.122 54.584C462.346 54.584 463.738 56.168 463.738 58.872C463.738 61.576 462.346 63.16 460.122 63.16ZM459.738 61.864C461.098 61.864 462.042 60.952 462.042 58.872C462.042 56.808 461.098 55.88 459.738 55.88C458.362 55.88 457.434 56.808 457.434 58.872C457.434 60.952 458.362 61.864 459.738 61.864ZM467.819 63.16C465.931 63.16 465.019 62.2 465.019 60.2V54.744H466.715V59.896C466.715 61.144 467.163 61.784 468.331 61.784C469.563 61.784 470.363 60.856 470.363 59.352V54.744H472.059V63H470.443V61.576C469.979 62.52 469.195 63.16 467.819 63.16ZM475.355 63H473.659V54.744H475.355V63ZM474.507 53.304C473.851 53.304 473.499 52.92 473.499 52.408C473.499 51.896 473.851 51.496 474.507 51.496C475.147 51.496 475.515 51.896 475.515 52.408C475.515 52.92 475.147 53.304 474.507 53.304ZM478.652 63H476.956V51.608H478.652V63ZM483.293 63.08C481.565 63.08 480.957 62.568 480.957 60.888V55.96H479.613V54.744H480.957V52.248H482.653V54.744H484.557V55.96H482.653V60.936C482.653 61.656 482.925 61.864 483.677 61.864L484.557 61.848V63C484.221 63.032 483.629 63.08 483.293 63.08ZM489.977 59.064H485.689V57.768H489.977V59.064ZM493.199 63H491.503V54.744H493.199V63ZM492.351 53.304C491.695 53.304 491.343 52.92 491.343 52.408C491.343 51.896 491.695 51.496 492.351 51.496C492.991 51.496 493.359 51.896 493.359 52.408C493.359 52.92 492.991 53.304 492.351 53.304ZM501.84 63H500.144V57.848C500.144 56.6 499.696 55.96 498.528 55.96C497.296 55.96 496.496 56.888 496.496 58.392V63H494.8V54.744H496.416V56.184C496.864 55.224 497.664 54.584 499.04 54.584C500.928 54.584 501.84 55.544 501.84 57.544V63ZM511.825 63.16C510.497 63.16 509.601 62.616 509.137 61.592V66.136H507.441V54.744H509.057V56.28C509.505 55.208 510.401 54.584 511.825 54.584C514.049 54.584 515.441 56.168 515.441 58.872C515.441 61.576 514.049 63.16 511.825 63.16ZM511.441 61.864C512.801 61.864 513.745 60.952 513.745 58.872C513.745 56.808 512.801 55.88 511.441 55.88C510.065 55.88 509.137 56.808 509.137 58.872C509.137 60.952 510.065 61.864 511.441 61.864ZM518.418 63H516.722V54.744H518.338V56.648C518.77 55.192 519.506 54.648 520.706 54.648C520.93 54.648 521.25 54.696 521.458 54.744V56.232L520.642 56.2C519.298 56.2 518.418 57.24 518.418 59.08V63ZM524.277 63H522.581V54.744H524.277V63ZM523.429 53.304C522.773 53.304 522.421 52.92 522.421 52.408C522.421 51.896 522.773 51.496 523.429 51.496C524.069 51.496 524.437 51.896 524.437 52.408C524.437 52.92 524.069 53.304 523.429 53.304ZM529.558 63.16C527.014 63.16 525.558 61.496 525.558 58.872C525.558 56.248 527.014 54.584 529.558 54.584C532.166 54.584 533.302 56.248 533.302 57.784H531.734C531.574 56.76 530.966 55.88 529.558 55.88C528.118 55.88 527.254 56.888 527.254 58.872C527.254 60.872 528.118 61.864 529.558 61.864C530.79 61.864 531.558 61.208 531.734 59.896H533.302C533.302 61.592 532.07 63.16 529.558 63.16ZM538.185 63.16C535.561 63.16 534.105 61.496 534.105 58.872C534.105 56.328 535.481 54.584 538.089 54.584C540.697 54.584 542.073 56.36 542.073 58.728C542.073 58.888 542.057 59.032 542.041 59.192H535.801C535.849 61.144 536.777 61.992 538.185 61.992C539.353 61.992 540.089 61.384 540.345 60.44H541.897C541.529 62.12 540.329 63.16 538.185 63.16ZM538.089 55.752C536.809 55.752 535.977 56.52 535.801 58.072H540.377C540.201 56.52 539.369 55.752 538.089 55.752ZM142.48 86.16C139.936 86.16 138.48 84.496 138.48 81.872C138.48 79.248 139.936 77.584 142.48 77.584C145.088 77.584 146.224 79.248 146.224 80.784H144.656C144.496 79.76 143.888 78.88 142.48 78.88C141.04 78.88 140.176 79.888 140.176 81.872C140.176 83.872 141.04 84.864 142.48 84.864C143.712 84.864 144.48 84.208 144.656 82.896H146.224C146.224 84.592 144.992 86.16 142.48 86.16ZM151.107 86.16C148.483 86.16 147.027 84.496 147.027 81.872C147.027 79.248 148.483 77.584 151.107 77.584C153.731 77.584 155.187 79.248 155.187 81.872C155.187 84.496 153.731 86.16 151.107 86.16ZM151.107 84.864C152.627 84.864 153.491 83.872 153.491 81.872C153.491 79.888 152.627 78.88 151.107 78.88C149.587 78.88 148.723 79.888 148.723 81.872C148.723 83.872 149.587 84.864 151.107 84.864ZM167.544 86H165.912V80.8C165.912 79.552 165.512 78.96 164.568 78.96C163.576 78.96 162.808 79.84 162.808 81.344V86H161.176V80.8C161.176 79.552 160.776 78.96 159.848 78.96C158.856 78.96 158.104 79.84 158.104 81.344V86H156.472V77.744H158.088V79.184C158.472 78.224 159.24 77.584 160.376 77.584C161.608 77.584 162.344 78.144 162.648 79.248C163.064 78.192 163.928 77.584 165.064 77.584C166.728 77.584 167.544 78.544 167.544 80.544V86ZM173.528 86.16C172.2 86.16 171.304 85.616 170.84 84.592V89.136H169.144V77.744H170.76V79.28C171.208 78.208 172.104 77.584 173.528 77.584C175.752 77.584 177.144 79.168 177.144 81.872C177.144 84.576 175.752 86.16 173.528 86.16ZM173.144 84.864C174.504 84.864 175.448 83.952 175.448 81.872C175.448 79.808 174.504 78.88 173.144 78.88C171.768 78.88 170.84 79.808 170.84 81.872C170.84 83.952 171.768 84.864 173.144 84.864ZM181.065 86.16C179.145 86.16 178.105 85.2 178.105 83.664C178.105 82.432 178.857 81.456 180.905 81.28L182.505 81.152C183.481 81.056 183.769 80.832 183.769 80.304C183.769 79.36 183.225 78.8 182.025 78.8C180.905 78.8 180.297 79.28 180.217 80.304H178.553C178.553 78.64 179.577 77.584 182.009 77.584C184.425 77.584 185.465 78.64 185.465 80.304V83.888C185.465 85.008 185.561 85.728 185.721 86H184.201C183.945 85.68 183.849 85.344 183.849 84.576C183.401 85.632 182.489 86.16 181.065 86.16ZM181.529 84.992C182.985 84.992 183.769 83.856 183.769 82.496V81.792C183.593 82.016 183.145 82.144 182.505 82.192L181.449 82.288C180.265 82.384 179.801 82.88 179.801 83.552C179.801 84.4 180.313 84.992 181.529 84.992ZM188.762 86H187.066V77.744H188.682V79.648C189.114 78.192 189.85 77.648 191.05 77.648C191.274 77.648 191.594 77.696 191.802 77.744V79.232L190.986 79.2C189.642 79.2 188.762 80.24 188.762 82.08V86ZM194.621 86H192.925V77.744H194.621V86ZM193.773 76.304C193.117 76.304 192.765 75.92 192.765 75.408C192.765 74.896 193.117 74.496 193.773 74.496C194.413 74.496 194.781 74.896 194.781 75.408C194.781 75.92 194.413 76.304 193.773 76.304ZM199.486 86.16C196.894 86.16 195.902 85.024 195.902 83.44H197.534C197.614 84.384 198.03 85.024 199.502 85.024C200.942 85.024 201.374 84.4 201.374 83.696C201.374 83.04 200.894 82.704 200.11 82.592L198.59 82.368C196.862 82.128 196.126 81.52 196.126 80.144C196.126 78.72 197.022 77.584 199.486 77.584C201.95 77.584 202.846 78.72 202.846 80.176H201.214C201.134 79.408 200.878 78.72 199.47 78.72C198.27 78.72 197.822 79.216 197.822 80.016C197.822 80.688 198.206 80.928 198.846 81.024L200.366 81.248C202.046 81.488 203.07 82.096 203.07 83.6C203.07 85.024 202.078 86.16 199.486 86.16ZM208.107 86.16C205.483 86.16 204.027 84.496 204.027 81.872C204.027 79.248 205.483 77.584 208.107 77.584C210.731 77.584 212.187 79.248 212.187 81.872C212.187 84.496 210.731 86.16 208.107 86.16ZM208.107 84.864C209.627 84.864 210.491 83.872 210.491 81.872C210.491 79.888 209.627 78.88 208.107 78.88C206.587 78.88 205.723 79.888 205.723 81.872C205.723 83.872 206.587 84.864 208.107 84.864ZM220.512 86H218.816V80.848C218.816 79.6 218.368 78.96 217.2 78.96C215.968 78.96 215.168 79.888 215.168 81.392V86H213.472V77.744H215.088V79.184C215.536 78.224 216.336 77.584 217.712 77.584C219.6 77.584 220.512 78.544 220.512 80.544V86ZM229.153 86.08C227.424 86.08 226.817 85.568 226.817 83.888V78.96H225.473V77.744H226.817V75.248H228.513V77.744H230.417V78.96H228.513V83.936C228.513 84.656 228.785 84.864 229.536 84.864L230.417 84.848V86C230.081 86.032 229.489 86.08 229.153 86.08ZM234.966 86.16C232.342 86.16 230.886 84.496 230.886 81.872C230.886 79.248 232.342 77.584 234.966 77.584C237.59 77.584 239.046 79.248 239.046 81.872C239.046 84.496 237.59 86.16 234.966 86.16ZM234.966 84.864C236.486 84.864 237.35 83.872 237.35 81.872C237.35 79.888 236.486 78.88 234.966 78.88C233.446 78.88 232.582 79.888 232.582 81.872C232.582 83.872 233.446 84.864 234.966 84.864ZM244.091 86.16C241.467 86.16 240.011 84.496 240.011 81.872C240.011 79.248 241.467 77.584 244.091 77.584C246.715 77.584 248.171 79.248 248.171 81.872C248.171 84.496 246.715 86.16 244.091 86.16ZM244.091 84.864C245.611 84.864 246.475 83.872 246.475 81.872C246.475 79.888 245.611 78.88 244.091 78.88C242.571 78.88 241.707 79.888 241.707 81.872C241.707 83.872 242.571 84.864 244.091 84.864ZM251.152 86H249.456V74.608H251.152V86ZM259.793 86.08C258.065 86.08 257.457 85.568 257.457 83.888V78.96H256.113V77.744H257.457V75.248H259.153V77.744H261.057V78.96H259.153V83.936C259.153 84.656 259.425 84.864 260.177 84.864L261.057 84.848V86C260.721 86.032 260.129 86.08 259.793 86.08ZM269.309 86H267.613V80.848C267.613 79.6 267.165 78.96 265.997 78.96C264.765 78.96 263.965 79.888 263.965 81.392V86H262.269V74.608H263.965V79.056C264.413 78.16 265.197 77.584 266.509 77.584C268.397 77.584 269.309 78.544 269.309 80.544V86ZM273.549 86.16C271.629 86.16 270.589 85.2 270.589 83.664C270.589 82.432 271.341 81.456 273.389 81.28L274.989 81.152C275.965 81.056 276.253 80.832 276.253 80.304C276.253 79.36 275.709 78.8 274.509 78.8C273.389 78.8 272.781 79.28 272.701 80.304H271.037C271.037 78.64 272.061 77.584 274.493 77.584C276.909 77.584 277.949 78.64 277.949 80.304V83.888C277.949 85.008 278.045 85.728 278.205 86H276.685C276.429 85.68 276.333 85.344 276.333 84.576C275.885 85.632 274.973 86.16 273.549 86.16ZM274.013 84.992C275.469 84.992 276.253 83.856 276.253 82.496V81.792C276.077 82.016 275.629 82.144 274.989 82.192L273.933 82.288C272.749 82.384 272.285 82.88 272.285 83.552C272.285 84.4 272.797 84.992 274.013 84.992ZM282.434 86.08C280.706 86.08 280.098 85.568 280.098 83.888V78.96H278.754V77.744H280.098V75.248H281.794V77.744H283.698V78.96H281.794V83.936C281.794 84.656 282.066 84.864 282.818 84.864L283.698 84.848V86C283.362 86.032 282.77 86.08 282.434 86.08ZM295.309 86H293.613V78.96H292.269V77.744H293.613V76.88C293.613 75.28 294.285 74.528 295.949 74.528C296.285 74.528 296.877 74.576 297.213 74.608V75.776L296.333 75.744C295.581 75.744 295.309 76.096 295.309 76.816V77.744H297.213V78.96H295.309V86ZM300.027 86H298.331V77.744H300.027V86ZM299.179 76.304C298.523 76.304 298.171 75.92 298.171 75.408C298.171 74.896 298.523 74.496 299.179 74.496C299.819 74.496 300.187 74.896 300.187 75.408C300.187 75.92 299.819 76.304 299.179 76.304ZM308.668 86H306.972V80.848C306.972 79.6 306.524 78.96 305.356 78.96C304.124 78.96 303.324 79.888 303.324 81.392V86H301.628V77.744H303.244V79.184C303.692 78.224 304.492 77.584 305.868 77.584C307.756 77.584 308.668 78.544 308.668 80.544V86ZM313.549 86.16C311.325 86.16 309.949 84.576 309.949 81.872C309.949 79.168 311.325 77.584 313.549 77.584C314.877 77.584 315.789 78.128 316.253 79.152V74.608H317.949V86H316.333V84.48C315.869 85.536 314.989 86.16 313.549 86.16ZM313.949 84.864C315.309 84.864 316.253 83.952 316.253 81.872C316.253 79.808 315.309 78.88 313.949 78.88C312.573 78.88 311.645 79.808 311.645 81.872C311.645 83.952 312.573 84.864 313.949 84.864ZM322.814 86.16C320.222 86.16 319.23 85.024 319.23 83.44H320.862C320.942 84.384 321.358 85.024 322.83 85.024C324.27 85.024 324.702 84.4 324.702 83.696C324.702 83.04 324.222 82.704 323.438 82.592L321.918 82.368C320.19 82.128 319.454 81.52 319.454 80.144C319.454 78.72 320.35 77.584 322.814 77.584C325.278 77.584 326.174 78.72 326.174 80.176H324.542C324.462 79.408 324.206 78.72 322.798 78.72C321.598 78.72 321.15 79.216 321.15 80.016C321.15 80.688 321.534 80.928 322.174 81.024L323.694 81.248C325.374 81.488 326.398 82.096 326.398 83.6C326.398 85.024 325.406 86.16 322.814 86.16ZM334.715 86.08C332.987 86.08 332.379 85.568 332.379 83.888V78.96H331.035V77.744H332.379V75.248H334.075V77.744H335.979V78.96H334.075V83.936C334.075 84.656 334.347 84.864 335.099 84.864L335.979 84.848V86C335.643 86.032 335.051 86.08 334.715 86.08ZM344.231 86H342.535V80.848C342.535 79.6 342.087 78.96 340.919 78.96C339.687 78.96 338.887 79.888 338.887 81.392V86H337.191V74.608H338.887V79.056C339.335 78.16 340.119 77.584 341.431 77.584C343.319 77.584 344.231 78.544 344.231 80.544V86ZM349.591 86.16C346.967 86.16 345.511 84.496 345.511 81.872C345.511 79.328 346.887 77.584 349.495 77.584C352.103 77.584 353.479 79.36 353.479 81.728C353.479 81.888 353.463 82.032 353.447 82.192H347.207C347.255 84.144 348.183 84.992 349.591 84.992C350.759 84.992 351.495 84.384 351.751 83.44H353.303C352.935 85.12 351.735 86.16 349.591 86.16ZM349.495 78.752C348.215 78.752 347.383 79.52 347.207 81.072H351.783C351.607 79.52 350.775 78.752 349.495 78.752ZM363.137 86.16C361.713 86.16 360.817 85.536 360.369 84.48V86H358.753V74.608H360.449V79.152C360.913 78.128 361.809 77.584 363.137 77.584C365.361 77.584 366.753 79.168 366.753 81.872C366.753 84.576 365.361 86.16 363.137 86.16ZM362.753 84.864C364.113 84.864 365.057 83.952 365.057 81.872C365.057 79.808 364.113 78.88 362.753 78.88C361.377 78.88 360.449 79.808 360.449 81.872C360.449 83.952 361.377 84.864 362.753 84.864ZM371.794 86.16C369.17 86.16 367.714 84.496 367.714 81.872C367.714 79.328 369.09 77.584 371.698 77.584C374.306 77.584 375.682 79.36 375.682 81.728C375.682 81.888 375.666 82.032 375.65 82.192H369.41C369.458 84.144 370.386 84.992 371.794 84.992C372.962 84.992 373.698 84.384 373.954 83.44H375.506C375.138 85.12 373.938 86.16 371.794 86.16ZM371.698 78.752C370.418 78.752 369.586 79.52 369.41 81.072H373.986C373.81 79.52 372.978 78.752 371.698 78.752ZM380.22 86.16C377.628 86.16 376.636 85.024 376.636 83.44H378.268C378.348 84.384 378.764 85.024 380.236 85.024C381.676 85.024 382.108 84.4 382.108 83.696C382.108 83.04 381.628 82.704 380.844 82.592L379.324 82.368C377.596 82.128 376.86 81.52 376.86 80.144C376.86 78.72 377.756 77.584 380.22 77.584C382.684 77.584 383.58 78.72 383.58 80.176H381.948C381.868 79.408 381.612 78.72 380.204 78.72C379.004 78.72 378.556 79.216 378.556 80.016C378.556 80.688 378.94 80.928 379.58 81.024L381.1 81.248C382.78 81.488 383.804 82.096 383.804 83.6C383.804 85.024 382.812 86.16 380.22 86.16ZM387.965 86.08C386.237 86.08 385.629 85.568 385.629 83.888V78.96H384.285V77.744H385.629V75.248H387.325V77.744H389.229V78.96H387.325V83.936C387.325 84.656 387.597 84.864 388.349 84.864L389.229 84.848V86C388.893 86.032 388.301 86.08 387.965 86.08ZM397.721 86.16C395.497 86.16 394.121 84.576 394.121 81.872C394.121 79.168 395.497 77.584 397.721 77.584C399.049 77.584 399.961 78.128 400.425 79.152V74.608H402.121V86H400.505V84.48C400.041 85.536 399.161 86.16 397.721 86.16ZM398.121 84.864C399.481 84.864 400.425 83.952 400.425 81.872C400.425 79.808 399.481 78.88 398.121 78.88C396.745 78.88 395.817 79.808 395.817 81.872C395.817 83.952 396.745 84.864 398.121 84.864ZM407.482 86.16C404.858 86.16 403.402 84.496 403.402 81.872C403.402 79.328 404.778 77.584 407.386 77.584C409.994 77.584 411.37 79.36 411.37 81.728C411.37 81.888 411.354 82.032 411.338 82.192H405.098C405.146 84.144 406.074 84.992 407.482 84.992C408.65 84.992 409.386 84.384 409.642 83.44H411.194C410.826 85.12 409.626 86.16 407.482 86.16ZM407.386 78.752C406.106 78.752 405.274 79.52 405.098 81.072H409.674C409.498 79.52 408.666 78.752 407.386 78.752ZM415.284 86.16C413.364 86.16 412.324 85.2 412.324 83.664C412.324 82.432 413.076 81.456 415.124 81.28L416.724 81.152C417.7 81.056 417.988 80.832 417.988 80.304C417.988 79.36 417.444 78.8 416.244 78.8C415.124 78.8 414.516 79.28 414.436 80.304H412.772C412.772 78.64 413.796 77.584 416.228 77.584C418.644 77.584 419.684 78.64 419.684 80.304V83.888C419.684 85.008 419.78 85.728 419.94 86H418.42C418.164 85.68 418.068 85.344 418.068 84.576C417.62 85.632 416.708 86.16 415.284 86.16ZM415.748 84.992C417.204 84.992 417.988 83.856 417.988 82.496V81.792C417.812 82.016 417.364 82.144 416.724 82.192L415.668 82.288C414.484 82.384 414.02 82.88 414.02 83.552C414.02 84.4 414.532 84.992 415.748 84.992ZM422.98 86H421.284V74.608H422.98V86ZM427.845 86.16C425.253 86.16 424.261 85.024 424.261 83.44H425.893C425.973 84.384 426.389 85.024 427.861 85.024C429.301 85.024 429.733 84.4 429.733 83.696C429.733 83.04 429.253 82.704 428.469 82.592L426.949 82.368C425.221 82.128 424.485 81.52 424.485 80.144C424.485 78.72 425.381 77.584 427.845 77.584C430.309 77.584 431.205 78.72 431.205 80.176H429.573C429.493 79.408 429.237 78.72 427.829 78.72C426.629 78.72 426.181 79.216 426.181 80.016C426.181 80.688 426.565 80.928 427.205 81.024L428.725 81.248C430.405 81.488 431.429 82.096 431.429 83.6C431.429 85.024 430.437 86.16 427.845 86.16ZM443.346 86.16C441.426 86.16 440.386 85.2 440.386 83.664C440.386 82.432 441.138 81.456 443.186 81.28L444.786 81.152C445.762 81.056 446.05 80.832 446.05 80.304C446.05 79.36 445.506 78.8 444.306 78.8C443.186 78.8 442.578 79.28 442.498 80.304H440.834C440.834 78.64 441.858 77.584 444.29 77.584C446.706 77.584 447.746 78.64 447.746 80.304V83.888C447.746 85.008 447.842 85.728 448.002 86H446.482C446.226 85.68 446.13 85.344 446.13 84.576C445.682 85.632 444.77 86.16 443.346 86.16ZM443.81 84.992C445.266 84.992 446.05 83.856 446.05 82.496V81.792C445.874 82.016 445.426 82.144 444.786 82.192L443.73 82.288C442.546 82.384 442.082 82.88 442.082 83.552C442.082 84.4 442.594 84.992 443.81 84.992ZM452.147 86.16C450.259 86.16 449.347 85.2 449.347 83.2V77.744H451.043V82.896C451.043 84.144 451.491 84.784 452.659 84.784C453.891 84.784 454.691 83.856 454.691 82.352V77.744H456.387V86H454.771V84.576C454.307 85.52 453.523 86.16 452.147 86.16ZM461.028 86.08C459.299 86.08 458.692 85.568 458.692 83.888V78.96H457.348V77.744H458.692V75.248H460.388V77.744H462.292V78.96H460.388V83.936C460.388 84.656 460.66 84.864 461.411 84.864L462.292 84.848V86C461.956 86.032 461.364 86.08 461.028 86.08ZM466.841 86.16C464.217 86.16 462.761 84.496 462.761 81.872C462.761 79.248 464.217 77.584 466.841 77.584C469.465 77.584 470.921 79.248 470.921 81.872C470.921 84.496 469.465 86.16 466.841 86.16ZM466.841 84.864C468.361 84.864 469.225 83.872 469.225 81.872C469.225 79.888 468.361 78.88 466.841 78.88C465.321 78.88 464.457 79.888 464.457 81.872C464.457 83.872 465.321 84.864 466.841 84.864ZM483.278 86H481.646V80.8C481.646 79.552 481.246 78.96 480.302 78.96C479.31 78.96 478.542 79.84 478.542 81.344V86H476.91V80.8C476.91 79.552 476.51 78.96 475.582 78.96C474.59 78.96 473.838 79.84 473.838 81.344V86H472.206V77.744H473.822V79.184C474.206 78.224 474.974 77.584 476.11 77.584C477.342 77.584 478.078 78.144 478.382 79.248C478.798 78.192 479.662 77.584 480.798 77.584C482.462 77.584 483.278 78.544 483.278 80.544V86ZM487.518 86.16C485.598 86.16 484.558 85.2 484.558 83.664C484.558 82.432 485.31 81.456 487.358 81.28L488.958 81.152C489.934 81.056 490.222 80.832 490.222 80.304C490.222 79.36 489.678 78.8 488.478 78.8C487.358 78.8 486.75 79.28 486.67 80.304H485.006C485.006 78.64 486.03 77.584 488.462 77.584C490.878 77.584 491.918 78.64 491.918 80.304V83.888C491.918 85.008 492.014 85.728 492.174 86H490.654C490.398 85.68 490.302 85.344 490.302 84.576C489.854 85.632 488.942 86.16 487.518 86.16ZM487.982 84.992C489.438 84.992 490.222 83.856 490.222 82.496V81.792C490.046 82.016 489.598 82.144 488.958 82.192L487.902 82.288C486.718 82.384 486.254 82.88 486.254 83.552C486.254 84.4 486.766 84.992 487.982 84.992ZM496.403 86.08C494.674 86.08 494.067 85.568 494.067 83.888V78.96H492.723V77.744H494.067V75.248H495.763V77.744H497.667V78.96H495.763V83.936C495.763 84.656 496.035 84.864 496.786 84.864L497.667 84.848V86C497.331 86.032 496.739 86.08 496.403 86.08ZM500.574 86H498.878V77.744H500.574V86ZM499.726 76.304C499.07 76.304 498.718 75.92 498.718 75.408C498.718 74.896 499.07 74.496 499.726 74.496C500.366 74.496 500.734 74.896 500.734 75.408C500.734 75.92 500.366 76.304 499.726 76.304ZM505.855 86.16C503.311 86.16 501.855 84.496 501.855 81.872C501.855 79.248 503.311 77.584 505.855 77.584C508.463 77.584 509.599 79.248 509.599 80.784H508.031C507.871 79.76 507.263 78.88 505.855 78.88C504.415 78.88 503.551 79.888 503.551 81.872C503.551 83.872 504.415 84.864 505.855 84.864C507.087 84.864 507.855 84.208 508.031 82.896H509.599C509.599 84.592 508.367 86.16 505.855 86.16ZM513.362 86.16C511.442 86.16 510.402 85.2 510.402 83.664C510.402 82.432 511.154 81.456 513.202 81.28L514.802 81.152C515.778 81.056 516.066 80.832 516.066 80.304C516.066 79.36 515.522 78.8 514.322 78.8C513.202 78.8 512.594 79.28 512.514 80.304H510.85C510.85 78.64 511.874 77.584 514.306 77.584C516.722 77.584 517.762 78.64 517.762 80.304V83.888C517.762 85.008 517.858 85.728 518.018 86H516.498C516.242 85.68 516.146 85.344 516.146 84.576C515.698 85.632 514.786 86.16 513.362 86.16ZM513.826 84.992C515.282 84.992 516.066 83.856 516.066 82.496V81.792C515.89 82.016 515.442 82.144 514.802 82.192L513.746 82.288C512.562 82.384 512.098 82.88 512.098 83.552C512.098 84.4 512.61 84.992 513.826 84.992ZM521.059 86H519.363V74.608H521.059V86ZM524.355 86H522.659V74.608H524.355V86ZM526.068 89.136V87.92H526.804C527.908 87.92 528.548 87.216 528.548 86.464C528.548 86.304 528.516 86.128 528.452 85.968L525.316 77.744H527.076L529.46 84.64L531.86 77.744H533.636L530.468 85.968C529.524 88.4 528.58 89.136 526.788 89.136H526.068ZM534.32 86.112C533.648 86.112 533.264 85.696 533.264 85.168C533.264 84.64 533.648 84.224 534.32 84.224C534.992 84.224 535.36 84.64 535.36 85.168C535.36 85.696 534.992 86.112 534.32 86.112Z" fill="white"/>
</svg>
