<svg width="539" height="116" viewBox="0 0 539 116" fill="none" xmlns="http://www.w3.org/2000/svg">
<circle cx="54.2056" cy="54.2056" r="53.2056" fill="#0F7285" stroke="#1A8395" stroke-width="2"/>
<path d="M35.1628 76.3742C35.1628 81.4441 29.5958 81.4441 29.5958 76.3742C29.6007 75.6392 29.8961 74.9359 30.4176 74.4179C30.9391 73.8999 31.6443 73.6092 32.3793 73.6092C33.1143 73.6092 33.8195 73.8999 34.341 74.4179C34.8625 74.9359 35.1579 75.6392 35.1628 76.3742ZM88.042 77.8936C88.0432 79.1693 87.7402 80.4268 87.1579 81.5619C86.5757 82.6969 85.731 83.6767 84.6942 84.4198C83.6573 85.1629 82.4581 85.6479 81.1962 85.8346C79.9342 86.0213 78.646 85.9042 77.4383 85.4931C76.2307 85.082 75.1386 84.3888 74.2527 83.4709C73.3667 82.5531 72.7126 81.4371 72.3445 80.2157C71.9763 78.9943 71.9049 77.7027 72.1361 76.4481C72.3673 75.1936 72.8945 74.0123 73.6739 73.0024L68.0532 67.3791C64.8109 70.3287 60.5853 71.9632 56.2021 71.9632C51.819 71.9632 47.5933 70.3287 44.3511 67.3791L38.7291 73.001C39.9809 74.6277 40.5618 76.6723 40.3521 78.7141C40.1424 80.756 39.1582 82.6399 37.6019 83.9782C36.0456 85.3165 34.0356 86.0075 31.9853 85.909C29.9351 85.8106 28.0006 84.9301 26.5797 83.4488C25.1588 81.9675 24.3597 79.998 24.3466 77.9455C24.3336 75.8929 25.1076 73.9134 26.5096 72.4142C27.9115 70.9149 29.8347 70.01 31.8835 69.8855C33.9324 69.7609 35.951 70.4264 37.5242 71.7448L43.1212 66.1478C40.1719 62.9051 38.5376 58.6793 38.5376 54.296C38.5376 49.9127 40.1719 45.6869 43.1212 42.4443L37.5223 36.8473C35.9461 38.1676 33.9238 38.8336 31.8715 38.7082C29.8193 38.5828 27.8931 37.6757 26.4893 36.1734C25.0855 34.6711 24.3109 32.6879 24.3248 30.6318C24.3387 28.5758 25.14 26.6032 26.564 25.1201C27.988 23.6369 29.9263 22.7558 31.98 22.6582C34.0338 22.5606 36.0469 23.2539 37.6051 24.5953C39.1633 25.9368 40.1482 27.8244 40.357 29.8699C40.5658 31.9154 39.9828 33.9631 38.7278 35.5917L44.3509 41.215C47.5934 38.2656 51.8192 36.6313 56.2025 36.6314C60.5857 36.6316 64.8114 38.2662 68.0537 41.2159L73.6077 35.6619C72.3685 34.0151 71.8076 31.9559 72.0405 29.9081C72.2734 27.8603 73.2823 25.9797 74.8597 24.6531C76.437 23.3266 78.4628 22.6552 80.5202 22.7769C82.5776 22.8986 84.5101 23.8043 85.92 25.3076C87.3299 26.8109 88.1101 28.7974 88.0998 30.8583C88.0896 32.9193 87.2898 34.898 85.865 36.3872C84.4403 37.8764 82.4989 38.7628 80.4404 38.8641C78.3819 38.9654 76.3629 38.2739 74.7987 36.9318L69.2841 42.4462C72.2339 45.6883 73.8686 49.914 73.8686 54.2971C73.8686 58.6803 72.2339 62.9059 69.2841 66.148L74.8812 71.745C76.0504 70.765 77.4751 70.139 78.9878 69.9408C80.5005 69.7426 82.0384 69.9804 83.4206 70.6261C84.8028 71.2719 85.972 72.2988 86.7906 73.5862C87.6093 74.8736 88.0434 76.3679 88.042 77.8936ZM73.7451 30.8568C73.7439 32.4211 74.3293 33.9291 75.3857 35.0829C75.7659 34.6492 76.2341 34.3015 76.7592 34.0628C77.2842 33.8241 77.8541 33.7 78.4308 33.6986H81.6149C82.1917 33.7 82.7615 33.8241 83.2865 34.0628C83.8115 34.3014 84.2797 34.6491 84.66 35.0827C85.3472 34.3289 85.8404 33.419 86.0968 32.4317C86.3532 31.4444 86.3651 30.4095 86.1315 29.4166C85.8979 28.4237 85.4258 27.5027 84.7561 26.7333C84.0864 25.9639 83.2393 25.3693 82.2881 25.001C81.3369 24.6327 80.3102 24.5018 79.297 24.6196C78.2838 24.7374 77.3146 25.1004 76.4732 25.6771C75.6319 26.2538 74.9438 27.0269 74.4685 27.9294C73.9932 28.832 73.745 29.8367 73.7455 30.8568H73.7451ZM38.6569 30.7015C38.6578 29.6811 38.4099 28.6757 37.9347 27.7727C37.4595 26.8696 36.7713 26.096 35.9297 25.5188C35.0881 24.9417 34.1185 24.5784 33.1049 24.4604C32.0912 24.3424 31.0641 24.4734 30.1125 24.8418C29.1609 25.2103 28.3134 25.8052 27.6435 26.575C26.9736 27.3449 26.5015 28.2664 26.2681 29.2598C26.0346 30.2532 26.0468 31.2886 26.3037 32.2762C26.5606 33.2638 27.0544 34.1739 27.7423 34.9277C28.1225 34.494 28.5907 34.1463 29.1158 33.9076C29.6408 33.6689 30.2107 33.5447 30.7874 33.5433H33.9715C34.5482 33.5447 35.1181 33.6689 35.6431 33.9076C36.1681 34.1462 36.6363 34.4939 37.0166 34.9276C38.0729 33.7738 38.6582 32.2658 38.6569 30.7015ZM38.6569 77.8936C38.6573 76.8733 38.409 75.8682 37.9334 74.9655C37.4579 74.0627 36.7695 73.2895 35.9279 72.7127C35.0862 72.136 34.1166 71.7731 33.1031 71.6554C32.0896 71.5377 31.0627 71.6689 30.1113 72.0375C29.1599 72.4061 28.3127 73.0011 27.643 73.7709C26.9733 74.5407 26.5013 75.4621 26.268 76.4554C26.0346 77.4486 26.0469 78.4838 26.3037 79.4713C26.5605 80.4588 27.0542 81.3687 27.7419 82.1225C28.1218 81.6882 28.59 81.3398 29.1151 81.1007C29.6403 80.8616 30.2104 80.7373 30.7874 80.7359H33.9715C34.5485 80.7374 35.1185 80.8617 35.6436 81.1005C36.1688 81.3394 36.6371 81.6873 37.0173 82.1212C38.0733 80.9667 38.6583 79.4583 38.6569 77.8936ZM66.8734 60.9631C67.0061 60.8868 67.1164 60.7769 67.1932 60.6444C67.2699 60.512 67.3104 60.3616 67.3106 60.2085H67.3141V48.3832C67.3131 48.2165 67.2645 48.0536 67.1739 47.9136C67.0833 47.7737 66.9546 47.6626 66.8029 47.5934L63.2457 45.5379C63.207 45.5124 63.1669 45.4888 63.1258 45.4674L60.3616 43.8737C60.3404 43.8597 60.3193 43.8489 60.2982 43.8351L56.6347 41.723C56.5009 41.6464 56.3494 41.6064 56.1952 41.607C56.0411 41.6076 55.8899 41.6488 55.7567 41.7265L45.5285 47.6322C45.3967 47.7083 45.2872 47.8177 45.211 47.9496C45.1349 48.0814 45.0948 48.231 45.0948 48.3832H45.0914V60.2085C45.0911 60.3755 45.1388 60.539 45.2288 60.6797C45.3189 60.8203 45.4474 60.9321 45.5991 61.0018L55.7709 66.8725C55.904 66.9494 56.0553 66.9893 56.209 66.988C56.3628 66.9868 56.5134 66.9445 56.6453 66.8654L61.754 63.9176L66.8734 60.9631ZM86.3007 77.8936C86.3011 76.8733 86.0527 75.8682 85.5772 74.9655C85.1017 74.0627 84.4133 73.2895 83.5717 72.7127C82.73 72.136 81.7604 71.7731 80.7469 71.6554C79.7334 71.5377 78.7065 71.6689 77.7551 72.0375C76.8037 72.4061 75.9565 73.0011 75.2868 73.7709C74.6171 74.5407 74.1451 75.4621 73.9118 76.4554C73.6784 77.4486 73.6907 78.4838 73.9475 79.4713C74.2043 80.4588 74.698 81.3687 75.3857 82.1225C75.7656 81.6882 76.2337 81.3398 76.7589 81.1007C77.2841 80.8616 77.8542 80.7373 78.4312 80.7359H81.6153C82.1922 80.7374 82.7621 80.8618 83.2872 81.1006C83.8123 81.3395 84.2805 81.6874 84.6607 82.1212C85.7169 80.9667 86.302 79.4583 86.3007 77.8936ZM82.8062 29.3371C82.8087 28.97 82.7385 28.606 82.5997 28.2662C82.4609 27.9263 82.2563 27.6172 81.9976 27.3568C81.7389 27.0963 81.4312 26.8896 81.0922 26.7486C80.7533 26.6075 80.3898 26.5349 80.0227 26.5349C79.6556 26.5349 79.2921 26.6075 78.9532 26.7486C78.6142 26.8896 78.3066 27.0963 78.0478 27.3568C77.7891 27.6172 77.5845 27.9263 77.4457 28.2662C77.3069 28.606 77.2367 28.97 77.2392 29.3371C77.2392 34.4072 82.8062 34.4072 82.8062 29.3371ZM80.0209 73.5923C79.2832 73.5926 78.5758 73.8858 78.0542 74.4074C77.5326 74.9291 77.2394 75.6365 77.2392 76.3742C77.2392 81.4441 82.8062 81.4441 82.8062 76.3742C82.8057 75.6359 82.512 74.9281 81.9897 74.4064C81.4673 73.8847 80.7591 73.5919 80.0209 73.5923ZM32.3775 26.4003C31.6399 26.4007 30.9327 26.694 30.4112 27.2156C29.8898 27.7372 29.5967 28.4444 29.5964 29.182C29.5964 34.2521 35.1634 34.2521 35.1634 29.182C35.1632 28.8164 35.0909 28.4544 34.9508 28.1168C34.8106 27.7791 34.6054 27.4724 34.3467 27.2141C34.0879 26.9558 33.7809 26.7509 33.443 26.6113C33.1051 26.4717 32.7431 26.4 32.3775 26.4003ZM52.513 51.1651L61.0172 46.2536L59.896 45.6049L51.3885 50.5163L52.513 51.1651ZM62.7518 47.255L54.2482 52.1663L56.201 53.2946L64.7085 48.3832L62.7518 47.255ZM50.5245 55.2795L51.6421 55.9212V52.667L50.5245 52.0218V55.2795ZM57.0716 64.6193L65.5723 59.7114V49.8887L57.0716 54.8001V64.6193ZM58.1612 44.6036L56.201 43.4754L47.6968 48.3832L49.6572 49.5151L58.1612 44.6036ZM53.3838 57.4271H53.3803C53.3795 57.579 53.339 57.7281 53.2626 57.8595C53.1863 57.9909 53.0769 58.1 52.9453 58.176C52.8137 58.2519 52.6645 58.2921 52.5125 58.2925C52.3606 58.2928 52.2112 58.2534 52.0792 58.1781L49.294 56.5703C49.1418 56.5009 49.0128 56.3892 48.9221 56.2486C48.8315 56.108 48.7831 55.9443 48.7827 55.7771V51.0169L46.8329 49.8887V59.7114L55.3303 64.6193V54.8001L53.3842 53.6718L53.3838 57.4271Z" fill="white"/>
<path d="M150.663 25.788C150.663 30.909 148.033 34 142.681 34H136.315V17.5759H142.681C148.033 17.5759 150.663 20.667 150.663 25.788ZM148.102 25.788C148.102 21.705 146.326 19.6059 142.797 19.6059H138.875V31.9701H142.797C146.326 31.9701 148.102 29.8709 148.102 25.788ZM154.953 34H152.508V22.0972H154.953V34ZM153.73 20.0211C152.785 20.0211 152.277 19.4675 152.277 18.7293C152.277 17.9911 152.785 17.4145 153.73 17.4145C154.653 17.4145 155.184 17.9911 155.184 18.7293C155.184 19.4675 154.653 20.0211 153.73 20.0211ZM159.706 34H157.261V22.0972H159.591V24.8422C160.214 22.7431 161.275 21.9588 163.005 21.9588C163.328 21.9588 163.789 22.028 164.089 22.0972V24.2424L162.913 24.1963C160.975 24.1963 159.706 25.6957 159.706 28.3485V34ZM170.611 34.2307C166.828 34.2307 164.729 31.8317 164.729 28.0486C164.729 24.3808 166.713 21.8665 170.473 21.8665C174.233 21.8665 176.217 24.427 176.217 27.841C176.217 28.0716 176.194 28.2793 176.171 28.5099H167.174C167.244 31.3242 168.581 32.5467 170.611 32.5467C172.295 32.5467 173.356 31.6702 173.725 30.3092H175.963C175.432 32.7313 173.702 34.2307 170.611 34.2307ZM170.473 23.5504C168.628 23.5504 167.428 24.6577 167.174 26.8952H173.772C173.518 24.6577 172.318 23.5504 170.473 23.5504ZM183.359 34.2307C179.691 34.2307 177.592 31.8317 177.592 28.0486C177.592 24.2655 179.691 21.8665 183.359 21.8665C187.119 21.8665 188.757 24.2655 188.757 26.48H186.496C186.265 25.0037 185.389 23.735 183.359 23.735C181.283 23.735 180.037 25.1882 180.037 28.0486C180.037 30.932 181.283 32.3622 183.359 32.3622C185.135 32.3622 186.242 31.4164 186.496 29.5249H188.757C188.757 31.9701 186.98 34.2307 183.359 34.2307ZM194.758 34.1153C192.267 34.1153 191.391 33.3772 191.391 30.9551V23.8503H189.453V22.0972H191.391V18.4986H193.836V22.0972H196.581V23.8503H193.836V31.0243C193.836 32.0623 194.228 32.3622 195.312 32.3622L196.581 32.3391V34C196.096 34.0461 195.243 34.1153 194.758 34.1153ZM210.207 34.2307C205.755 34.2307 203.633 32.293 203.633 28.7867H206.101C206.355 31.1627 207.393 32.293 210.253 32.293C213.068 32.293 214.221 31.1166 214.221 29.2942C214.221 28.0947 213.552 27.2412 210.945 26.8721L208.662 26.5261C205.271 26.0417 204.048 24.8191 204.048 22.3278C204.048 19.3983 206.055 17.3453 210.207 17.3453C214.359 17.3453 216.366 19.3521 216.366 22.5585H213.967C213.714 20.3902 212.629 19.2829 210.138 19.2829C207.693 19.2829 206.609 20.4363 206.609 22.1894C206.609 23.4351 207.185 24.104 209.492 24.427L211.776 24.773C215.028 25.2343 216.782 26.48 216.782 29.1328C216.782 32.2469 214.659 34.2307 210.207 34.2307ZM222.661 34.2307C219.939 34.2307 218.624 32.8466 218.624 29.9632V22.0972H221.069V29.5249C221.069 31.3242 221.715 32.2469 223.399 32.2469C225.175 32.2469 226.329 30.909 226.329 28.7406V22.0972H228.774V34H226.444V31.947C225.775 33.308 224.645 34.2307 222.661 34.2307ZM237.402 34.2307C235.487 34.2307 234.196 33.4464 233.527 31.9701V38.5212H231.082V22.0972H233.411V24.3116C234.057 22.7661 235.349 21.8665 237.402 21.8665C240.608 21.8665 242.615 24.1502 242.615 28.0486C242.615 31.947 240.608 34.2307 237.402 34.2307ZM236.848 32.3622C238.809 32.3622 240.17 31.0474 240.17 28.0486C240.17 25.0729 238.809 23.735 236.848 23.735C234.865 23.735 233.527 25.0729 233.527 28.0486C233.527 31.0474 234.865 32.3622 236.848 32.3622ZM250.783 34.2307C248.868 34.2307 247.577 33.4464 246.908 31.9701V38.5212H244.463V22.0972H246.792V24.3116C247.438 22.7661 248.73 21.8665 250.783 21.8665C253.989 21.8665 255.996 24.1502 255.996 28.0486C255.996 31.947 253.989 34.2307 250.783 34.2307ZM250.229 32.3622C252.19 32.3622 253.551 31.0474 253.551 28.0486C253.551 25.0729 252.19 23.735 250.229 23.735C248.246 23.735 246.908 25.0729 246.908 28.0486C246.908 31.0474 248.246 32.3622 250.229 32.3622ZM260.289 34H257.844V17.5759H260.289V34ZM265.042 34H262.597V22.0972H265.042V34ZM263.819 20.0211C262.873 20.0211 262.366 19.4675 262.366 18.7293C262.366 17.9911 262.873 17.4145 263.819 17.4145C264.742 17.4145 265.273 17.9911 265.273 18.7293C265.273 19.4675 264.742 20.0211 263.819 20.0211ZM272.771 34.2307C268.988 34.2307 266.888 31.8317 266.888 28.0486C266.888 24.3808 268.872 21.8665 272.632 21.8665C276.392 21.8665 278.376 24.427 278.376 27.841C278.376 28.0716 278.353 28.2793 278.33 28.5099H269.334C269.403 31.3242 270.741 32.5467 272.771 32.5467C274.455 32.5467 275.516 31.6702 275.885 30.3092H278.122C277.592 32.7313 275.862 34.2307 272.771 34.2307ZM272.632 23.5504C270.787 23.5504 269.587 24.6577 269.334 26.8952H275.931C275.677 24.6577 274.478 23.5504 272.632 23.5504ZM282.658 34H280.213V22.0972H282.543V24.8422C283.165 22.7431 284.226 21.9588 285.956 21.9588C286.279 21.9588 286.741 22.028 287.041 22.0972V24.2424L285.864 24.1963C283.927 24.1963 282.658 25.6957 282.658 28.3485V34ZM297.149 34H294.589V17.5759H297.149V34ZM309.758 34H307.313V26.5723C307.313 24.773 306.667 23.8503 304.983 23.8503C303.207 23.8503 302.053 25.1882 302.053 27.3566V34H299.608V22.0972H301.938V24.1732C302.584 22.7892 303.737 21.8665 305.721 21.8665C308.443 21.8665 309.758 23.2505 309.758 26.134V34ZM316.223 34.1153C313.732 34.1153 312.855 33.3772 312.855 30.9551V23.8503H310.918V22.0972H312.855V18.4986H315.301V22.0972H318.046V23.8503H315.301V31.0243C315.301 32.0623 315.693 32.3622 316.777 32.3622L318.046 32.3391V34C317.561 34.0461 316.708 34.1153 316.223 34.1153ZM324.605 34.2307C320.822 34.2307 318.723 31.8317 318.723 28.0486C318.723 24.3808 320.707 21.8665 324.467 21.8665C328.227 21.8665 330.21 24.427 330.21 27.841C330.21 28.0716 330.187 28.2793 330.164 28.5099H321.168C321.237 31.3242 322.575 32.5467 324.605 32.5467C326.289 32.5467 327.35 31.6702 327.719 30.3092H329.957C329.426 32.7313 327.696 34.2307 324.605 34.2307ZM324.467 23.5504C322.621 23.5504 321.422 24.6577 321.168 26.8952H327.765C327.512 24.6577 326.312 23.5504 324.467 23.5504ZM336.776 33.5386C333.569 33.5386 331.586 31.1858 331.586 27.7026C331.586 24.2194 333.569 21.8665 336.776 21.8665C338.852 21.8665 340.121 22.7661 340.79 24.3116V22.0972H343.119V33.1234C343.119 36.8142 341.136 38.7519 337.422 38.7519C333.962 38.7519 332.232 37.068 332.232 34.5536H334.515C334.677 36.2145 335.738 37.1141 337.537 37.1141C339.521 37.1141 340.674 36.053 340.674 33.7463V31.278C340.005 32.7544 338.69 33.5386 336.776 33.5386ZM337.353 31.7855C339.313 31.7855 340.674 30.4015 340.674 27.7026C340.674 25.0267 339.313 23.6196 337.353 23.6196C335.369 23.6196 334.031 25.0267 334.031 27.7026C334.031 30.4015 335.369 31.7855 337.353 31.7855ZM347.873 34H345.428V22.0972H347.758V24.8422C348.381 22.7431 349.442 21.9588 351.172 21.9588C351.495 21.9588 351.956 22.028 352.256 22.0972V24.2424L351.079 24.1963C349.142 24.1963 347.873 25.6957 347.873 28.3485V34ZM357.118 34.2307C354.35 34.2307 352.851 32.8466 352.851 30.6321C352.851 28.8559 353.935 27.4488 356.888 27.1951L359.195 27.0105C360.602 26.8721 361.017 26.5492 361.017 25.788C361.017 24.427 360.233 23.6196 358.503 23.6196C356.888 23.6196 356.011 24.3116 355.896 25.788H353.497C353.497 23.3889 354.973 21.8665 358.479 21.8665C361.963 21.8665 363.462 23.3889 363.462 25.788V30.9551C363.462 32.5698 363.6 33.6079 363.831 34H361.64C361.271 33.5386 361.132 33.0542 361.132 31.947C360.486 33.4694 359.172 34.2307 357.118 34.2307ZM357.787 32.5467C359.887 32.5467 361.017 30.909 361.017 28.9482V27.9332C360.763 28.2562 360.117 28.4407 359.195 28.5099L357.672 28.6483C355.965 28.7867 355.296 29.5018 355.296 30.4707C355.296 31.6932 356.034 32.5467 357.787 32.5467ZM369.927 34.1153C367.436 34.1153 366.559 33.3772 366.559 30.9551V23.8503H364.622V22.0972H366.559V18.4986H369.005V22.0972H371.75V23.8503H369.005V31.0243C369.005 32.0623 369.397 32.3622 370.481 32.3622L371.75 32.3391V34C371.265 34.0461 370.412 34.1153 369.927 34.1153ZM375.942 34H373.496V22.0972H375.942V34ZM374.719 20.0211C373.773 20.0211 373.266 19.4675 373.266 18.7293C373.266 17.9911 373.773 17.4145 374.719 17.4145C375.642 17.4145 376.172 17.9911 376.172 18.7293C376.172 19.4675 375.642 20.0211 374.719 20.0211ZM383.67 34.2307C379.887 34.2307 377.788 31.8317 377.788 28.0486C377.788 24.2655 379.887 21.8665 383.67 21.8665C387.454 21.8665 389.553 24.2655 389.553 28.0486C389.553 31.8317 387.454 34.2307 383.67 34.2307ZM383.67 32.3622C385.862 32.3622 387.108 30.932 387.108 28.0486C387.108 25.1882 385.862 23.735 383.67 23.735C381.479 23.735 380.233 25.1882 380.233 28.0486C380.233 30.932 381.479 32.3622 383.67 32.3622ZM401.555 34H399.11V26.5723C399.11 24.773 398.464 23.8503 396.78 23.8503C395.004 23.8503 393.85 25.1882 393.85 27.3566V34H391.405V22.0972H393.735V24.1732C394.381 22.7892 395.534 21.8665 397.518 21.8665C400.24 21.8665 401.555 23.2505 401.555 26.134V34Z" fill="white"/>
<path d="M141.016 66.16C137.416 66.16 135.48 63.776 135.48 60.304C135.48 56.832 137.416 54.448 141.016 54.448C144.12 54.448 146.136 56.304 146.136 58.672H144.472C144.264 57.088 143.144 55.904 141.016 55.904C138.536 55.904 137.256 57.488 137.256 60.304C137.256 63.12 138.536 64.704 141.016 64.704C143.112 64.704 144.264 63.584 144.472 61.84H146.136C146.136 64.256 144.184 66.16 141.016 66.16ZM151.169 66.16C148.545 66.16 147.089 64.496 147.089 61.872C147.089 59.248 148.545 57.584 151.169 57.584C153.793 57.584 155.249 59.248 155.249 61.872C155.249 64.496 153.793 66.16 151.169 66.16ZM151.169 64.864C152.689 64.864 153.553 63.872 153.553 61.872C153.553 59.888 152.689 58.88 151.169 58.88C149.649 58.88 148.785 59.888 148.785 61.872C148.785 63.872 149.649 64.864 151.169 64.864ZM163.574 66H161.878V60.848C161.878 59.6 161.43 58.96 160.262 58.96C159.03 58.96 158.23 59.888 158.23 61.392V66H156.534V57.744H158.15V59.184C158.598 58.224 159.398 57.584 160.774 57.584C162.662 57.584 163.574 58.544 163.574 60.544V66ZM172.215 66H170.519V60.848C170.519 59.6 170.071 58.96 168.903 58.96C167.671 58.96 166.871 59.888 166.871 61.392V66H165.175V57.744H166.791V59.184C167.239 58.224 168.039 57.584 169.415 57.584C171.303 57.584 172.215 58.544 172.215 60.544V66ZM177.576 66.16C174.952 66.16 173.496 64.496 173.496 61.872C173.496 59.328 174.872 57.584 177.48 57.584C180.088 57.584 181.464 59.36 181.464 61.728C181.464 61.888 181.448 62.032 181.432 62.192H175.192C175.24 64.144 176.168 64.992 177.576 64.992C178.744 64.992 179.48 64.384 179.736 63.44H181.288C180.92 65.12 179.72 66.16 177.576 66.16ZM177.48 58.752C176.2 58.752 175.368 59.52 175.192 61.072H179.768C179.592 59.52 178.76 58.752 177.48 58.752ZM186.418 66.16C183.874 66.16 182.418 64.496 182.418 61.872C182.418 59.248 183.874 57.584 186.418 57.584C189.026 57.584 190.161 59.248 190.161 60.784H188.594C188.434 59.76 187.826 58.88 186.418 58.88C184.978 58.88 184.114 59.888 184.114 61.872C184.114 63.872 184.978 64.864 186.418 64.864C187.65 64.864 188.418 64.208 188.594 62.896H190.161C190.161 64.592 188.93 66.16 186.418 66.16ZM194.324 66.08C192.596 66.08 191.988 65.568 191.988 63.888V58.96H190.644V57.744H191.988V55.248H193.684V57.744H195.588V58.96H193.684V63.936C193.684 64.656 193.956 64.864 194.708 64.864L195.588 64.848V66C195.252 66.032 194.66 66.08 194.324 66.08ZM210.192 66H208.384L206.624 59.984L204.848 66H203.056L200.16 57.744H201.92L204.048 64.08L205.856 57.744H207.392L209.2 64.08L211.312 57.744H213.088L210.192 66ZM215.746 66H214.05V57.744H215.746V66ZM214.898 56.304C214.242 56.304 213.89 55.92 213.89 55.408C213.89 54.896 214.242 54.496 214.898 54.496C215.538 54.496 215.906 54.896 215.906 55.408C215.906 55.92 215.538 56.304 214.898 56.304ZM220.387 66.08C218.659 66.08 218.051 65.568 218.051 63.888V58.96H216.707V57.744H218.051V55.248H219.747V57.744H221.651V58.96H219.747V63.936C219.747 64.656 220.019 64.864 220.771 64.864L221.651 64.848V66C221.315 66.032 220.723 66.08 220.387 66.08ZM229.903 66H228.207V60.848C228.207 59.6 227.759 58.96 226.591 58.96C225.359 58.96 224.559 59.888 224.559 61.392V66H222.863V54.608H224.559V59.056C225.007 58.16 225.791 57.584 227.103 57.584C228.991 57.584 229.903 58.544 229.903 60.544V66ZM243.343 66H235.183V65.184C235.183 62.752 236.015 61.52 238.271 60.688L239.935 60.08C241.199 59.632 241.647 58.912 241.647 57.936C241.647 56.608 240.735 55.824 239.391 55.824C237.887 55.824 237.151 56.672 236.991 58.384H235.439C235.439 55.84 236.799 54.448 239.391 54.448C241.919 54.448 243.343 55.84 243.343 57.968C243.343 59.584 242.383 60.64 240.687 61.248L238.927 61.888C237.535 62.4 236.911 63.232 236.879 64.624H243.343V66ZM248.868 66.16C245.668 66.16 244.308 63.936 244.308 60.304C244.308 56.672 245.668 54.448 248.868 54.448C252.068 54.448 253.428 56.672 253.428 60.304C253.428 63.936 252.068 66.16 248.868 66.16ZM248.868 64.784C250.708 64.784 251.732 63.44 251.732 60.304C251.732 57.168 250.708 55.824 248.868 55.824C247.028 55.824 246.004 57.168 246.004 60.304C246.004 63.44 247.028 64.784 248.868 64.784ZM258.946 66.16C255.746 66.16 254.386 63.936 254.386 60.304C254.386 56.672 255.746 54.448 258.946 54.448C262.146 54.448 263.506 56.672 263.506 60.304C263.506 63.936 262.146 66.16 258.946 66.16ZM258.946 64.784C260.786 64.784 261.81 63.44 261.81 60.304C261.81 57.168 260.786 55.824 258.946 55.824C257.106 55.824 256.082 57.168 256.082 60.304C256.082 63.44 257.106 64.784 258.946 64.784ZM267.488 63.792V60.96H264.704V59.664H267.488V56.816H268.896V59.664H271.68V60.96H268.896V63.792H267.488ZM292.278 66H290.646V60.8C290.646 59.552 290.246 58.96 289.302 58.96C288.31 58.96 287.542 59.84 287.542 61.344V66H285.91V60.8C285.91 59.552 285.51 58.96 284.582 58.96C283.59 58.96 282.838 59.84 282.838 61.344V66H281.206V57.744H282.822V59.184C283.206 58.224 283.974 57.584 285.11 57.584C286.342 57.584 287.078 58.144 287.382 59.248C287.798 58.192 288.662 57.584 289.798 57.584C291.462 57.584 292.278 58.544 292.278 60.544V66ZM296.518 66.16C294.598 66.16 293.558 65.2 293.558 63.664C293.558 62.432 294.31 61.456 296.358 61.28L297.958 61.152C298.934 61.056 299.222 60.832 299.222 60.304C299.222 59.36 298.678 58.8 297.478 58.8C296.358 58.8 295.75 59.28 295.67 60.304H294.006C294.006 58.64 295.03 57.584 297.462 57.584C299.878 57.584 300.918 58.64 300.918 60.304V63.888C300.918 65.008 301.014 65.728 301.174 66H299.654C299.398 65.68 299.302 65.344 299.302 64.576C298.854 65.632 297.942 66.16 296.518 66.16ZM296.982 64.992C298.438 64.992 299.222 63.856 299.222 62.496V61.792C299.046 62.016 298.598 62.144 297.958 62.192L296.902 62.288C295.718 62.384 295.254 62.88 295.254 63.552C295.254 64.4 295.766 64.992 296.982 64.992ZM301.079 69.136V67.92H301.639C302.231 67.92 302.519 67.568 302.519 66.88V57.744H304.215V66.88C304.215 68.336 303.447 69.136 302.103 69.136H301.079ZM303.367 56.304C302.711 56.304 302.359 55.92 302.359 55.408C302.359 54.896 302.711 54.496 303.367 54.496C304.007 54.496 304.375 54.896 304.375 55.408C304.375 55.92 304.007 56.304 303.367 56.304ZM309.576 66.16C306.952 66.16 305.496 64.496 305.496 61.872C305.496 59.248 306.952 57.584 309.576 57.584C312.2 57.584 313.656 59.248 313.656 61.872C313.656 64.496 312.2 66.16 309.576 66.16ZM309.576 64.864C311.096 64.864 311.96 63.872 311.96 61.872C311.96 59.888 311.096 58.88 309.576 58.88C308.056 58.88 307.192 59.888 307.192 61.872C307.192 63.872 308.056 64.864 309.576 64.864ZM316.637 66H314.941V57.744H316.557V59.648C316.989 58.192 317.725 57.648 318.925 57.648C319.149 57.648 319.469 57.696 319.677 57.744V59.232L318.861 59.2C317.517 59.2 316.637 60.24 316.637 62.08V66ZM329.344 66H327.296L324.16 57.744H325.92L328.32 64.496L330.704 57.744H332.48L329.344 66ZM336.716 66.16C334.092 66.16 332.636 64.496 332.636 61.872C332.636 59.328 334.012 57.584 336.62 57.584C339.228 57.584 340.604 59.36 340.604 61.728C340.604 61.888 340.588 62.032 340.572 62.192H334.332C334.38 64.144 335.308 64.992 336.716 64.992C337.884 64.992 338.62 64.384 338.876 63.44H340.428C340.06 65.12 338.86 66.16 336.716 66.16ZM336.62 58.752C335.34 58.752 334.508 59.52 334.332 61.072H338.908C338.732 59.52 337.9 58.752 336.62 58.752ZM348.918 66H347.222V60.848C347.222 59.6 346.774 58.96 345.606 58.96C344.374 58.96 343.574 59.888 343.574 61.392V66H341.878V57.744H343.494V59.184C343.942 58.224 344.742 57.584 346.118 57.584C348.006 57.584 348.918 58.544 348.918 60.544V66ZM353.799 66.16C351.575 66.16 350.199 64.576 350.199 61.872C350.199 59.168 351.575 57.584 353.799 57.584C355.127 57.584 356.039 58.128 356.503 59.152V54.608H358.199V66H356.583V64.48C356.119 65.536 355.239 66.16 353.799 66.16ZM354.199 64.864C355.559 64.864 356.503 63.952 356.503 61.872C356.503 59.808 355.559 58.88 354.199 58.88C352.823 58.88 351.895 59.808 351.895 61.872C351.895 63.952 352.823 64.864 354.199 64.864ZM363.56 66.16C360.936 66.16 359.48 64.496 359.48 61.872C359.48 59.248 360.936 57.584 363.56 57.584C366.184 57.584 367.64 59.248 367.64 61.872C367.64 64.496 366.184 66.16 363.56 66.16ZM363.56 64.864C365.08 64.864 365.944 63.872 365.944 61.872C365.944 59.888 365.08 58.88 363.56 58.88C362.04 58.88 361.176 59.888 361.176 61.872C361.176 63.872 362.04 64.864 363.56 64.864ZM370.621 66H368.925V57.744H370.541V59.648C370.973 58.192 371.709 57.648 372.909 57.648C373.133 57.648 373.453 57.696 373.661 57.744V59.232L372.845 59.2C371.501 59.2 370.621 60.24 370.621 62.08V66ZM378.017 66.16C375.425 66.16 374.433 65.024 374.433 63.44H376.065C376.145 64.384 376.561 65.024 378.033 65.024C379.473 65.024 379.905 64.4 379.905 63.696C379.905 63.04 379.425 62.704 378.641 62.592L377.121 62.368C375.393 62.128 374.657 61.52 374.657 60.144C374.657 58.72 375.553 57.584 378.017 57.584C380.481 57.584 381.377 58.72 381.377 60.176H379.745C379.665 59.408 379.409 58.72 378.001 58.72C376.801 58.72 376.353 59.216 376.353 60.016C376.353 60.688 376.737 60.928 377.377 61.024L378.897 61.248C380.577 61.488 381.601 62.096 381.601 63.6C381.601 65.024 380.609 66.16 378.017 66.16ZM389.918 66.08C388.19 66.08 387.582 65.568 387.582 63.888V58.96H386.238V57.744H387.582V55.248H389.278V57.744H391.182V58.96H389.278V63.936C389.278 64.656 389.55 64.864 390.302 64.864L391.182 64.848V66C390.846 66.032 390.254 66.08 389.918 66.08ZM399.434 66H397.738V60.848C397.738 59.6 397.29 58.96 396.122 58.96C394.89 58.96 394.09 59.888 394.09 61.392V66H392.394V54.608H394.09V59.056C394.538 58.16 395.322 57.584 396.634 57.584C398.522 57.584 399.434 58.544 399.434 60.544V66ZM402.73 66H401.034V57.744H402.65V59.648C403.082 58.192 403.818 57.648 405.018 57.648C405.242 57.648 405.562 57.696 405.77 57.744V59.232L404.954 59.2C403.61 59.2 402.73 60.24 402.73 62.08V66ZM410.294 66.16C407.67 66.16 406.214 64.496 406.214 61.872C406.214 59.248 407.67 57.584 410.294 57.584C412.918 57.584 414.374 59.248 414.374 61.872C414.374 64.496 412.918 66.16 410.294 66.16ZM410.294 64.864C411.814 64.864 412.678 63.872 412.678 61.872C412.678 59.888 411.814 58.88 410.294 58.88C408.774 58.88 407.91 59.888 407.91 61.872C407.91 63.872 408.774 64.864 410.294 64.864ZM418.459 66.16C416.571 66.16 415.659 65.2 415.659 63.2V57.744H417.355V62.896C417.355 64.144 417.803 64.784 418.971 64.784C420.203 64.784 421.003 63.856 421.003 62.352V57.744H422.699V66H421.083V64.576C420.619 65.52 419.835 66.16 418.459 66.16ZM427.58 65.68C425.356 65.68 423.98 64.048 423.98 61.632C423.98 59.216 425.356 57.584 427.58 57.584C429.02 57.584 429.9 58.208 430.364 59.28V57.744H431.98V65.392C431.98 67.952 430.604 69.296 428.028 69.296C425.628 69.296 424.428 68.128 424.428 66.384H426.012C426.124 67.536 426.86 68.16 428.108 68.16C429.484 68.16 430.284 67.424 430.284 65.824V64.112C429.82 65.136 428.908 65.68 427.58 65.68ZM427.98 64.464C429.34 64.464 430.284 63.504 430.284 61.632C430.284 59.776 429.34 58.8 427.98 58.8C426.604 58.8 425.676 59.776 425.676 61.632C425.676 63.504 426.604 64.464 427.98 64.464ZM440.621 66H438.925V60.848C438.925 59.6 438.477 58.96 437.309 58.96C436.077 58.96 435.277 59.888 435.277 61.392V66H433.581V54.608H435.277V59.056C435.725 58.16 436.509 57.584 437.821 57.584C439.709 57.584 440.621 58.544 440.621 60.544V66ZM453.982 66.16C451.358 66.16 449.902 64.496 449.902 61.872C449.902 59.248 451.358 57.584 453.982 57.584C456.606 57.584 458.062 59.248 458.062 61.872C458.062 64.496 456.606 66.16 453.982 66.16ZM453.982 64.864C455.502 64.864 456.366 63.872 456.366 61.872C456.366 59.888 455.502 58.88 453.982 58.88C452.462 58.88 451.598 59.888 451.598 61.872C451.598 63.872 452.462 64.864 453.982 64.864ZM462.147 66.16C460.259 66.16 459.347 65.2 459.347 63.2V57.744H461.043V62.896C461.043 64.144 461.491 64.784 462.659 64.784C463.891 64.784 464.691 63.856 464.691 62.352V57.744H466.387V66H464.771V64.576C464.307 65.52 463.523 66.16 462.147 66.16ZM469.684 66H467.988V57.744H469.604V59.648C470.036 58.192 470.772 57.648 471.972 57.648C472.196 57.648 472.516 57.696 472.724 57.744V59.232L471.908 59.2C470.564 59.2 469.684 60.24 469.684 62.08V66ZM482.231 66.16C480.903 66.16 480.007 65.616 479.543 64.592V69.136H477.847V57.744H479.463V59.28C479.911 58.208 480.807 57.584 482.231 57.584C484.455 57.584 485.847 59.168 485.847 61.872C485.847 64.576 484.455 66.16 482.231 66.16ZM481.847 64.864C483.207 64.864 484.151 63.952 484.151 61.872C484.151 59.808 483.207 58.88 481.847 58.88C480.471 58.88 479.543 59.808 479.543 61.872C479.543 63.952 480.471 64.864 481.847 64.864ZM488.824 66H487.128V54.608H488.824V66ZM493.065 66.16C491.145 66.16 490.105 65.2 490.105 63.664C490.105 62.432 490.857 61.456 492.905 61.28L494.505 61.152C495.481 61.056 495.769 60.832 495.769 60.304C495.769 59.36 495.225 58.8 494.025 58.8C492.905 58.8 492.297 59.28 492.217 60.304H490.553C490.553 58.64 491.577 57.584 494.009 57.584C496.425 57.584 497.465 58.64 497.465 60.304V63.888C497.465 65.008 497.561 65.728 497.721 66H496.201C495.945 65.68 495.849 65.344 495.849 64.576C495.401 65.632 494.489 66.16 493.065 66.16ZM493.529 64.992C494.985 64.992 495.769 63.856 495.769 62.496V61.792C495.593 62.016 495.145 62.144 494.505 62.192L493.449 62.288C492.265 62.384 491.801 62.88 491.801 63.552C491.801 64.4 492.313 64.992 493.529 64.992ZM501.949 66.08C500.221 66.08 499.613 65.568 499.613 63.888V58.96H498.269V57.744H499.613V55.248H501.309V57.744H503.213V58.96H501.309V63.936C501.309 64.656 501.581 64.864 502.333 64.864L503.213 64.848V66C502.877 66.032 502.285 66.08 501.949 66.08ZM506.825 66H505.129V58.96H503.785V57.744H505.129V56.88C505.129 55.28 505.801 54.528 507.465 54.528C507.801 54.528 508.393 54.576 508.729 54.608V55.776L507.849 55.744C507.097 55.744 506.825 56.096 506.825 56.816V57.744H508.729V58.96H506.825V66ZM513.123 66.16C510.499 66.16 509.043 64.496 509.043 61.872C509.043 59.248 510.499 57.584 513.123 57.584C515.747 57.584 517.203 59.248 517.203 61.872C517.203 64.496 515.747 66.16 513.123 66.16ZM513.123 64.864C514.643 64.864 515.507 63.872 515.507 61.872C515.507 59.888 514.643 58.88 513.123 58.88C511.603 58.88 510.739 59.888 510.739 61.872C510.739 63.872 511.603 64.864 513.123 64.864ZM520.184 66H518.488V57.744H520.104V59.648C520.536 58.192 521.272 57.648 522.472 57.648C522.696 57.648 523.016 57.696 523.224 57.744V59.232L522.408 59.2C521.064 59.2 520.184 60.24 520.184 62.08V66ZM535.419 66H533.787V60.8C533.787 59.552 533.387 58.96 532.443 58.96C531.451 58.96 530.683 59.84 530.683 61.344V66H529.051V60.8C529.051 59.552 528.651 58.96 527.723 58.96C526.731 58.96 525.979 59.84 525.979 61.344V66H524.347V57.744H525.963V59.184C526.347 58.224 527.115 57.584 528.251 57.584C529.483 57.584 530.219 58.144 530.523 59.248C530.939 58.192 531.803 57.584 532.939 57.584C534.603 57.584 535.419 58.544 535.419 60.544V66ZM537.531 68.304L536.651 67.92C537.051 67.28 537.131 66.768 537.131 65.776V64.064H538.587V65.776C538.587 66.928 538.299 67.744 537.531 68.304ZM139.56 89.16C136.936 89.16 135.48 87.496 135.48 84.872C135.48 82.328 136.856 80.584 139.464 80.584C142.072 80.584 143.448 82.36 143.448 84.728C143.448 84.888 143.432 85.032 143.416 85.192H137.176C137.224 87.144 138.152 87.992 139.56 87.992C140.728 87.992 141.464 87.384 141.72 86.44H143.272C142.904 88.12 141.704 89.16 139.56 89.16ZM139.464 81.752C138.184 81.752 137.352 82.52 137.176 84.072H141.752C141.576 82.52 140.744 81.752 139.464 81.752ZM146.418 89H144.722V77.608H146.418V89ZM149.715 89H148.019V80.744H149.715V89ZM148.867 79.304C148.211 79.304 147.859 78.92 147.859 78.408C147.859 77.896 148.211 77.496 148.867 77.496C149.507 77.496 149.875 77.896 149.875 78.408C149.875 78.92 149.507 79.304 148.867 79.304ZM162.388 89H160.756V83.8C160.756 82.552 160.356 81.96 159.412 81.96C158.42 81.96 157.652 82.84 157.652 84.344V89H156.02V83.8C156.02 82.552 155.62 81.96 154.692 81.96C153.7 81.96 152.948 82.84 152.948 84.344V89H151.316V80.744H152.932V82.184C153.316 81.224 154.084 80.584 155.22 80.584C156.452 80.584 157.188 81.144 157.492 82.248C157.908 81.192 158.772 80.584 159.908 80.584C161.572 80.584 162.388 81.544 162.388 83.544V89ZM165.684 89H163.988V80.744H165.684V89ZM164.836 79.304C164.18 79.304 163.828 78.92 163.828 78.408C163.828 77.896 164.18 77.496 164.836 77.496C165.476 77.496 165.844 77.896 165.844 78.408C165.844 78.92 165.476 79.304 164.836 79.304ZM174.324 89H172.628V83.848C172.628 82.6 172.18 81.96 171.012 81.96C169.78 81.96 168.98 82.888 168.98 84.392V89H167.284V80.744H168.9V82.184C169.348 81.224 170.148 80.584 171.524 80.584C173.412 80.584 174.324 81.544 174.324 83.544V89ZM178.565 89.16C176.645 89.16 175.605 88.2 175.605 86.664C175.605 85.432 176.357 84.456 178.405 84.28L180.005 84.152C180.981 84.056 181.269 83.832 181.269 83.304C181.269 82.36 180.725 81.8 179.525 81.8C178.405 81.8 177.797 82.28 177.717 83.304H176.053C176.053 81.64 177.077 80.584 179.509 80.584C181.925 80.584 182.965 81.64 182.965 83.304V86.888C182.965 88.008 183.061 88.728 183.221 89H181.701C181.445 88.68 181.349 88.344 181.349 87.576C180.901 88.632 179.989 89.16 178.565 89.16ZM179.029 87.992C180.485 87.992 181.269 86.856 181.269 85.496V84.792C181.093 85.016 180.645 85.144 180.005 85.192L178.949 85.288C177.765 85.384 177.301 85.88 177.301 86.552C177.301 87.4 177.813 87.992 179.029 87.992ZM187.449 89.08C185.721 89.08 185.113 88.568 185.113 86.888V81.96H183.769V80.744H185.113V78.248H186.809V80.744H188.713V81.96H186.809V86.936C186.809 87.656 187.081 87.864 187.833 87.864L188.713 87.848V89C188.377 89.032 187.785 89.08 187.449 89.08ZM191.621 89H189.925V80.744H191.621V89ZM190.773 79.304C190.117 79.304 189.765 78.92 189.765 78.408C189.765 77.896 190.117 77.496 190.773 77.496C191.413 77.496 191.781 77.896 191.781 78.408C191.781 78.92 191.413 79.304 190.773 79.304ZM200.262 89H198.566V83.848C198.566 82.6 198.118 81.96 196.95 81.96C195.718 81.96 194.918 82.888 194.918 84.392V89H193.222V80.744H194.838V82.184C195.286 81.224 196.086 80.584 197.462 80.584C199.35 80.584 200.262 81.544 200.262 83.544V89ZM205.143 88.68C202.919 88.68 201.543 87.048 201.543 84.632C201.543 82.216 202.919 80.584 205.143 80.584C206.583 80.584 207.463 81.208 207.927 82.28V80.744H209.543V88.392C209.543 90.952 208.167 92.296 205.591 92.296C203.191 92.296 201.991 91.128 201.991 89.384H203.575C203.687 90.536 204.423 91.16 205.671 91.16C207.047 91.16 207.847 90.424 207.847 88.824V87.112C207.383 88.136 206.471 88.68 205.143 88.68ZM205.543 87.464C206.903 87.464 207.847 86.504 207.847 84.632C207.847 82.776 206.903 81.8 205.543 81.8C204.167 81.8 203.239 82.776 203.239 84.632C203.239 86.504 204.167 87.464 205.543 87.464ZM226.216 89H224.584V83.8C224.584 82.552 224.184 81.96 223.24 81.96C222.248 81.96 221.48 82.84 221.48 84.344V89H219.848V83.8C219.848 82.552 219.448 81.96 218.52 81.96C217.528 81.96 216.776 82.84 216.776 84.344V89H215.144V80.744H216.76V82.184C217.144 81.224 217.912 80.584 219.048 80.584C220.28 80.584 221.016 81.144 221.32 82.248C221.736 81.192 222.6 80.584 223.736 80.584C225.4 80.584 226.216 81.544 226.216 83.544V89ZM230.456 89.16C228.536 89.16 227.496 88.2 227.496 86.664C227.496 85.432 228.248 84.456 230.296 84.28L231.896 84.152C232.872 84.056 233.16 83.832 233.16 83.304C233.16 82.36 232.616 81.8 231.416 81.8C230.296 81.8 229.688 82.28 229.608 83.304H227.944C227.944 81.64 228.968 80.584 231.4 80.584C233.816 80.584 234.856 81.64 234.856 83.304V86.888C234.856 88.008 234.952 88.728 235.112 89H233.592C233.336 88.68 233.24 88.344 233.24 87.576C232.792 88.632 231.88 89.16 230.456 89.16ZM230.92 87.992C232.376 87.992 233.16 86.856 233.16 85.496V84.792C232.984 85.016 232.536 85.144 231.896 85.192L230.84 85.288C229.656 85.384 229.192 85.88 229.192 86.552C229.192 87.4 229.704 87.992 230.92 87.992ZM243.496 89H241.8V83.848C241.8 82.6 241.352 81.96 240.184 81.96C238.952 81.96 238.152 82.888 238.152 84.392V89H236.456V80.744H238.072V82.184C238.52 81.224 239.32 80.584 240.696 80.584C242.584 80.584 243.496 81.544 243.496 83.544V89ZM247.897 89.16C246.009 89.16 245.097 88.2 245.097 86.2V80.744H246.793V85.896C246.793 87.144 247.241 87.784 248.409 87.784C249.641 87.784 250.441 86.856 250.441 85.352V80.744H252.137V89H250.521V87.576C250.057 88.52 249.273 89.16 247.897 89.16ZM256.378 89.16C254.458 89.16 253.418 88.2 253.418 86.664C253.418 85.432 254.17 84.456 256.218 84.28L257.818 84.152C258.794 84.056 259.082 83.832 259.082 83.304C259.082 82.36 258.538 81.8 257.338 81.8C256.218 81.8 255.61 82.28 255.53 83.304H253.866C253.866 81.64 254.89 80.584 257.322 80.584C259.738 80.584 260.778 81.64 260.778 83.304V86.888C260.778 88.008 260.874 88.728 261.034 89H259.514C259.258 88.68 259.162 88.344 259.162 87.576C258.714 88.632 257.802 89.16 256.378 89.16ZM256.842 87.992C258.298 87.992 259.082 86.856 259.082 85.496V84.792C258.906 85.016 258.458 85.144 257.818 85.192L256.762 85.288C255.578 85.384 255.114 85.88 255.114 86.552C255.114 87.4 255.626 87.992 256.842 87.992ZM264.074 89H262.378V77.608H264.074V89ZM277.435 89.16C274.811 89.16 273.355 87.496 273.355 84.872C273.355 82.248 274.811 80.584 277.435 80.584C280.059 80.584 281.515 82.248 281.515 84.872C281.515 87.496 280.059 89.16 277.435 89.16ZM277.435 87.864C278.955 87.864 279.819 86.872 279.819 84.872C279.819 82.888 278.955 81.88 277.435 81.88C275.915 81.88 275.051 82.888 275.051 84.872C275.051 86.872 275.915 87.864 277.435 87.864ZM284.496 89H282.8V80.744H284.416V82.648C284.848 81.192 285.584 80.648 286.784 80.648C287.008 80.648 287.328 80.696 287.536 80.744V82.232L286.72 82.2C285.376 82.2 284.496 83.24 284.496 85.08V89ZM291.58 89.16C289.356 89.16 287.98 87.576 287.98 84.872C287.98 82.168 289.356 80.584 291.58 80.584C292.908 80.584 293.82 81.128 294.284 82.152V77.608H295.98V89H294.364V87.48C293.9 88.536 293.02 89.16 291.58 89.16ZM291.98 87.864C293.34 87.864 294.284 86.952 294.284 84.872C294.284 82.808 293.34 81.88 291.98 81.88C290.604 81.88 289.676 82.808 289.676 84.872C289.676 86.952 290.604 87.864 291.98 87.864ZM301.341 89.16C298.717 89.16 297.261 87.496 297.261 84.872C297.261 82.328 298.637 80.584 301.245 80.584C303.853 80.584 305.229 82.36 305.229 84.728C305.229 84.888 305.213 85.032 305.197 85.192H298.957C299.005 87.144 299.933 87.992 301.341 87.992C302.509 87.992 303.245 87.384 303.501 86.44H305.053C304.685 88.12 303.485 89.16 301.341 89.16ZM301.245 81.752C299.965 81.752 299.133 82.52 298.957 84.072H303.533C303.357 82.52 302.525 81.752 301.245 81.752ZM308.199 89H306.503V80.744H308.119V82.648C308.551 81.192 309.287 80.648 310.487 80.648C310.711 80.648 311.031 80.696 311.239 80.744V82.232L310.423 82.2C309.079 82.2 308.199 83.24 308.199 85.08V89ZM320.747 89.16C319.419 89.16 318.523 88.616 318.059 87.592V92.136H316.363V80.744H317.979V82.28C318.427 81.208 319.323 80.584 320.747 80.584C322.971 80.584 324.363 82.168 324.363 84.872C324.363 87.576 322.971 89.16 320.747 89.16ZM320.363 87.864C321.723 87.864 322.667 86.952 322.667 84.872C322.667 82.808 321.723 81.88 320.363 81.88C318.987 81.88 318.059 82.808 318.059 84.872C318.059 86.952 318.987 87.864 320.363 87.864ZM327.34 89H325.644V80.744H327.26V82.648C327.692 81.192 328.428 80.648 329.628 80.648C329.852 80.648 330.172 80.696 330.38 80.744V82.232L329.564 82.2C328.22 82.2 327.34 83.24 327.34 85.08V89ZM334.904 89.16C332.28 89.16 330.824 87.496 330.824 84.872C330.824 82.248 332.28 80.584 334.904 80.584C337.528 80.584 338.984 82.248 338.984 84.872C338.984 87.496 337.528 89.16 334.904 89.16ZM334.904 87.864C336.424 87.864 337.288 86.872 337.288 84.872C337.288 82.888 336.424 81.88 334.904 81.88C333.384 81.88 332.52 82.888 332.52 84.872C332.52 86.872 333.384 87.864 334.904 87.864ZM343.949 89.16C341.405 89.16 339.949 87.496 339.949 84.872C339.949 82.248 341.405 80.584 343.949 80.584C346.557 80.584 347.693 82.248 347.693 83.784H346.125C345.965 82.76 345.357 81.88 343.949 81.88C342.509 81.88 341.645 82.888 341.645 84.872C341.645 86.872 342.509 87.864 343.949 87.864C345.181 87.864 345.949 87.208 346.125 85.896H347.693C347.693 87.592 346.461 89.16 343.949 89.16ZM352.576 89.16C349.952 89.16 348.496 87.496 348.496 84.872C348.496 82.328 349.872 80.584 352.48 80.584C355.088 80.584 356.464 82.36 356.464 84.728C356.464 84.888 356.448 85.032 356.432 85.192H350.192C350.24 87.144 351.168 87.992 352.576 87.992C353.744 87.992 354.48 87.384 354.736 86.44H356.288C355.92 88.12 354.72 89.16 352.576 89.16ZM352.48 81.752C351.2 81.752 350.368 82.52 350.192 84.072H354.768C354.592 82.52 353.76 81.752 352.48 81.752ZM361.002 89.16C358.41 89.16 357.418 88.024 357.418 86.44H359.049C359.13 87.384 359.546 88.024 361.018 88.024C362.458 88.024 362.89 87.4 362.89 86.696C362.89 86.04 362.41 85.704 361.626 85.592L360.106 85.368C358.378 85.128 357.642 84.52 357.642 83.144C357.642 81.72 358.538 80.584 361.002 80.584C363.466 80.584 364.362 81.72 364.362 83.176H362.73C362.65 82.408 362.394 81.72 360.986 81.72C359.786 81.72 359.338 82.216 359.338 83.016C359.338 83.688 359.722 83.928 360.362 84.024L361.882 84.248C363.562 84.488 364.586 85.096 364.586 86.6C364.586 88.024 363.594 89.16 361.002 89.16ZM369.127 89.16C366.535 89.16 365.543 88.024 365.543 86.44H367.174C367.255 87.384 367.671 88.024 369.143 88.024C370.583 88.024 371.015 87.4 371.015 86.696C371.015 86.04 370.535 85.704 369.751 85.592L368.231 85.368C366.503 85.128 365.767 84.52 365.767 83.144C365.767 81.72 366.663 80.584 369.127 80.584C371.591 80.584 372.487 81.72 372.487 83.176H370.855C370.775 82.408 370.519 81.72 369.111 81.72C367.911 81.72 367.463 82.216 367.463 83.016C367.463 83.688 367.847 83.928 368.487 84.024L370.007 84.248C371.687 84.488 372.711 85.096 372.711 86.6C372.711 88.024 371.719 89.16 369.127 89.16ZM377.748 89.16C375.124 89.16 373.668 87.496 373.668 84.872C373.668 82.328 375.044 80.584 377.652 80.584C380.26 80.584 381.635 82.36 381.635 84.728C381.635 84.888 381.62 85.032 381.604 85.192H375.364C375.412 87.144 376.34 87.992 377.748 87.992C378.916 87.992 379.652 87.384 379.908 86.44H381.46C381.092 88.12 379.892 89.16 377.748 89.16ZM377.652 81.752C376.372 81.752 375.539 82.52 375.364 84.072H379.94C379.764 82.52 378.932 81.752 377.652 81.752ZM386.173 89.16C383.581 89.16 382.589 88.024 382.589 86.44H384.221C384.301 87.384 384.717 88.024 386.189 88.024C387.629 88.024 388.061 87.4 388.061 86.696C388.061 86.04 387.581 85.704 386.797 85.592L385.277 85.368C383.549 85.128 382.813 84.52 382.813 83.144C382.813 81.72 383.709 80.584 386.173 80.584C388.637 80.584 389.533 81.72 389.533 83.176H387.901C387.821 82.408 387.565 81.72 386.157 81.72C384.957 81.72 384.509 82.216 384.509 83.016C384.509 83.688 384.893 83.928 385.533 84.024L387.053 84.248C388.733 84.488 389.757 85.096 389.757 86.6C389.757 88.024 388.765 89.16 386.173 89.16ZM397.674 89.16C395.754 89.16 394.714 88.2 394.714 86.664C394.714 85.432 395.466 84.456 397.514 84.28L399.114 84.152C400.09 84.056 400.378 83.832 400.378 83.304C400.378 82.36 399.834 81.8 398.634 81.8C397.514 81.8 396.906 82.28 396.826 83.304H395.162C395.162 81.64 396.186 80.584 398.618 80.584C401.034 80.584 402.074 81.64 402.074 83.304V86.888C402.074 88.008 402.17 88.728 402.33 89H400.81C400.554 88.68 400.458 88.344 400.458 87.576C400.01 88.632 399.098 89.16 397.674 89.16ZM398.138 87.992C399.594 87.992 400.378 86.856 400.378 85.496V84.792C400.202 85.016 399.754 85.144 399.114 85.192L398.058 85.288C396.874 85.384 396.41 85.88 396.41 86.552C396.41 87.4 396.922 87.992 398.138 87.992ZM410.715 89H409.019V83.848C409.019 82.6 408.571 81.96 407.403 81.96C406.171 81.96 405.371 82.888 405.371 84.392V89H403.675V80.744H405.291V82.184C405.739 81.224 406.539 80.584 407.915 80.584C409.803 80.584 410.715 81.544 410.715 83.544V89ZM415.596 89.16C413.372 89.16 411.996 87.576 411.996 84.872C411.996 82.168 413.372 80.584 415.596 80.584C416.924 80.584 417.836 81.128 418.3 82.152V77.608H419.996V89H418.38V87.48C417.916 88.536 417.036 89.16 415.596 89.16ZM415.996 87.864C417.356 87.864 418.3 86.952 418.3 84.872C418.3 82.808 417.356 81.88 415.996 81.88C414.62 81.88 413.692 82.808 413.692 84.872C413.692 86.952 414.62 87.864 415.996 87.864ZM433.277 89.16C430.733 89.16 429.277 87.496 429.277 84.872C429.277 82.248 430.733 80.584 433.277 80.584C435.885 80.584 437.021 82.248 437.021 83.784H435.453C435.293 82.76 434.685 81.88 433.277 81.88C431.837 81.88 430.973 82.888 430.973 84.872C430.973 86.872 431.837 87.864 433.277 87.864C434.509 87.864 435.277 87.208 435.453 85.896H437.021C437.021 87.592 435.789 89.16 433.277 89.16ZM441.904 89.16C439.28 89.16 437.824 87.496 437.824 84.872C437.824 82.248 439.28 80.584 441.904 80.584C444.528 80.584 445.984 82.248 445.984 84.872C445.984 87.496 444.528 89.16 441.904 89.16ZM441.904 87.864C443.424 87.864 444.288 86.872 444.288 84.872C444.288 82.888 443.424 81.88 441.904 81.88C440.384 81.88 439.52 82.888 439.52 84.872C439.52 86.872 440.384 87.864 441.904 87.864ZM458.341 89H456.709V83.8C456.709 82.552 456.309 81.96 455.365 81.96C454.373 81.96 453.605 82.84 453.605 84.344V89H451.973V83.8C451.973 82.552 451.573 81.96 450.645 81.96C449.653 81.96 448.901 82.84 448.901 84.344V89H447.269V80.744H448.885V82.184C449.269 81.224 450.037 80.584 451.173 80.584C452.405 80.584 453.141 81.144 453.445 82.248C453.861 81.192 454.725 80.584 455.861 80.584C457.525 80.584 458.341 81.544 458.341 83.544V89ZM471.013 89H469.381V83.8C469.381 82.552 468.981 81.96 468.037 81.96C467.045 81.96 466.277 82.84 466.277 84.344V89H464.645V83.8C464.645 82.552 464.245 81.96 463.317 81.96C462.325 81.96 461.573 82.84 461.573 84.344V89H459.941V80.744H461.557V82.184C461.941 81.224 462.709 80.584 463.845 80.584C465.077 80.584 465.813 81.144 466.117 82.248C466.533 81.192 467.397 80.584 468.533 80.584C470.197 80.584 471.013 81.544 471.013 83.544V89ZM475.413 89.16C473.525 89.16 472.613 88.2 472.613 86.2V80.744H474.309V85.896C474.309 87.144 474.757 87.784 475.924 87.784C477.157 87.784 477.957 86.856 477.957 85.352V80.744H479.653V89H478.037V87.576C477.573 88.52 476.789 89.16 475.413 89.16ZM488.293 89H486.597V83.848C486.597 82.6 486.149 81.96 484.981 81.96C483.749 81.96 482.949 82.888 482.949 84.392V89H481.253V80.744H482.869V82.184C483.317 81.224 484.117 80.584 485.493 80.584C487.381 80.584 488.293 81.544 488.293 83.544V89ZM491.59 89H489.894V80.744H491.59V89ZM490.742 79.304C490.086 79.304 489.734 78.92 489.734 78.408C489.734 77.896 490.086 77.496 490.742 77.496C491.382 77.496 491.75 77.896 491.75 78.408C491.75 78.92 491.382 79.304 490.742 79.304ZM496.871 89.16C494.327 89.16 492.871 87.496 492.871 84.872C492.871 82.248 494.327 80.584 496.871 80.584C499.479 80.584 500.615 82.248 500.615 83.784H499.047C498.887 82.76 498.279 81.88 496.871 81.88C495.431 81.88 494.567 82.888 494.567 84.872C494.567 86.872 495.431 87.864 496.871 87.864C498.103 87.864 498.871 87.208 499.047 85.896H500.615C500.615 87.592 499.383 89.16 496.871 89.16ZM504.378 89.16C502.458 89.16 501.418 88.2 501.418 86.664C501.418 85.432 502.17 84.456 504.218 84.28L505.818 84.152C506.794 84.056 507.082 83.832 507.082 83.304C507.082 82.36 506.538 81.8 505.338 81.8C504.218 81.8 503.61 82.28 503.53 83.304H501.866C501.866 81.64 502.89 80.584 505.322 80.584C507.738 80.584 508.778 81.64 508.778 83.304V86.888C508.778 88.008 508.874 88.728 509.034 89H507.514C507.258 88.68 507.162 88.344 507.162 87.576C506.714 88.632 505.802 89.16 504.378 89.16ZM504.842 87.992C506.298 87.992 507.082 86.856 507.082 85.496V84.792C506.906 85.016 506.458 85.144 505.818 85.192L504.762 85.288C503.578 85.384 503.114 85.88 503.114 86.552C503.114 87.4 503.626 87.992 504.842 87.992ZM513.262 89.08C511.534 89.08 510.926 88.568 510.926 86.888V81.96H509.582V80.744H510.926V78.248H512.622V80.744H514.526V81.96H512.622V86.936C512.622 87.656 512.894 87.864 513.646 87.864L514.526 87.848V89C514.19 89.032 513.598 89.08 513.262 89.08ZM517.434 89H515.738V80.744H517.434V89ZM516.586 79.304C515.93 79.304 515.578 78.92 515.578 78.408C515.578 77.896 515.93 77.496 516.586 77.496C517.226 77.496 517.594 77.896 517.594 78.408C517.594 78.92 517.226 79.304 516.586 79.304ZM522.794 89.16C520.17 89.16 518.714 87.496 518.714 84.872C518.714 82.248 520.17 80.584 522.794 80.584C525.418 80.584 526.874 82.248 526.874 84.872C526.874 87.496 525.418 89.16 522.794 89.16ZM522.794 87.864C524.314 87.864 525.178 86.872 525.178 84.872C525.178 82.888 524.314 81.88 522.794 81.88C521.274 81.88 520.41 82.888 520.41 84.872C520.41 86.872 521.274 87.864 522.794 87.864ZM535.199 89H533.503V83.848C533.503 82.6 533.055 81.96 531.887 81.96C530.655 81.96 529.855 82.888 529.855 84.392V89H528.159V80.744H529.775V82.184C530.223 81.224 531.023 80.584 532.399 80.584C534.287 80.584 535.199 81.544 535.199 83.544V89ZM139.08 112.16C136.856 112.16 135.48 110.576 135.48 107.872C135.48 105.168 136.856 103.584 139.08 103.584C140.408 103.584 141.32 104.128 141.784 105.152V100.608H143.48V112H141.864V110.48C141.4 111.536 140.52 112.16 139.08 112.16ZM139.48 110.864C140.84 110.864 141.784 109.952 141.784 107.872C141.784 105.808 140.84 104.88 139.48 104.88C138.104 104.88 137.176 105.808 137.176 107.872C137.176 109.952 138.104 110.864 139.48 110.864ZM148.841 112.16C146.217 112.16 144.761 110.496 144.761 107.872C144.761 105.328 146.137 103.584 148.745 103.584C151.353 103.584 152.729 105.36 152.729 107.728C152.729 107.888 152.713 108.032 152.697 108.192H146.457C146.505 110.144 147.433 110.992 148.841 110.992C150.009 110.992 150.745 110.384 151.001 109.44H152.553C152.185 111.12 150.985 112.16 148.841 112.16ZM148.745 104.752C147.465 104.752 146.633 105.52 146.457 107.072H151.033C150.857 105.52 150.025 104.752 148.745 104.752ZM155.699 112H154.003V100.608H155.699V112ZM159.94 112.16C158.02 112.16 156.98 111.2 156.98 109.664C156.98 108.432 157.732 107.456 159.78 107.28L161.38 107.152C162.356 107.056 162.644 106.832 162.644 106.304C162.644 105.36 162.1 104.8 160.9 104.8C159.78 104.8 159.172 105.28 159.092 106.304H157.428C157.428 104.64 158.452 103.584 160.884 103.584C163.3 103.584 164.34 104.64 164.34 106.304V109.888C164.34 111.008 164.436 111.728 164.596 112H163.076C162.82 111.68 162.724 111.344 162.724 110.576C162.276 111.632 161.364 112.16 159.94 112.16ZM160.404 110.992C161.86 110.992 162.644 109.856 162.644 108.496V107.792C162.468 108.016 162.02 108.144 161.38 108.192L160.324 108.288C159.14 108.384 158.676 108.88 158.676 109.552C158.676 110.4 159.188 110.992 160.404 110.992ZM165.662 115.136V113.92H166.398C167.502 113.92 168.142 113.216 168.142 112.464C168.142 112.304 168.11 112.128 168.046 111.968L164.91 103.744H166.67L169.054 110.64L171.454 103.744H173.23L170.062 111.968C169.118 114.4 168.174 115.136 166.382 115.136H165.662ZM177.002 112.16C174.41 112.16 173.418 111.024 173.418 109.44H175.049C175.13 110.384 175.546 111.024 177.018 111.024C178.458 111.024 178.89 110.4 178.89 109.696C178.89 109.04 178.41 108.704 177.626 108.592L176.106 108.368C174.378 108.128 173.642 107.52 173.642 106.144C173.642 104.72 174.538 103.584 177.002 103.584C179.466 103.584 180.362 104.72 180.362 106.176H178.73C178.65 105.408 178.394 104.72 176.986 104.72C175.786 104.72 175.338 105.216 175.338 106.016C175.338 106.688 175.722 106.928 176.362 107.024L177.882 107.248C179.562 107.488 180.586 108.096 180.586 109.6C180.586 111.024 179.594 112.16 177.002 112.16ZM182.711 112.112C182.039 112.112 181.655 111.696 181.655 111.168C181.655 110.64 182.039 110.224 182.711 110.224C183.383 110.224 183.751 110.64 183.751 111.168C183.751 111.696 183.383 112.112 182.711 112.112Z" fill="white"/>
</svg>
