<svg width="543" height="109" viewBox="0 0 543 109" fill="none" xmlns="http://www.w3.org/2000/svg">
<circle cx="54.2056" cy="54.2427" r="53.2056" fill="#0F7285" stroke="#1A8395" stroke-width="2"/>
<path fill-rule="evenodd" clip-rule="evenodd" d="M34.7776 74.1549L34.8935 74.2743C35.2551 74.6448 35.2464 75.2446 34.8729 75.6033L29.1982 81.1134C28.8249 81.472 28.228 81.4632 27.8693 81.0928L25.8199 78.9817C25.4582 78.6083 25.4671 78.0114 25.8376 77.6527L31.5151 72.1427C31.8856 71.784 32.4854 71.7927 32.8442 72.1632L32.9612 72.2838L36.202 69.1382C35.0254 67.4598 34.3348 65.4158 34.3348 63.2103C34.3348 57.5002 38.9628 52.8723 44.6728 52.8723C50.3827 52.8723 55.0106 57.5002 55.0106 63.2103C55.0106 68.9202 50.3827 73.5481 44.6728 73.5481C42.1089 73.5481 39.7633 72.6151 37.9567 71.07L34.7776 74.1549ZM44.6728 69.7695C48.2874 69.7695 51.232 66.8249 51.232 63.2103C51.232 59.6 48.2874 56.6509 44.6728 56.6509C41.0625 56.6509 38.1136 59.6 38.1136 63.2103C38.1136 66.8249 41.0625 69.7695 44.6728 69.7695ZM40.8851 64.1017C40.6979 63.9143 40.5927 63.6602 40.5927 63.3953C40.5927 63.1304 40.6979 62.8763 40.8851 62.6889C41.0725 62.5017 41.3266 62.3965 41.5915 62.3965C41.8564 62.3965 42.1104 62.5017 42.2978 62.6889L43.4235 63.8147L47.0872 60.491C47.2835 60.3131 47.5424 60.2205 47.807 60.2334C48.0716 60.2463 48.3203 60.3637 48.4983 60.5598C48.6762 60.7561 48.7689 61.015 48.756 61.2795C48.7431 61.5441 48.6257 61.7928 48.4297 61.9708L44.0612 65.9337C43.8712 66.1061 43.6222 66.1987 43.3657 66.1925C43.1093 66.1862 42.8651 66.0815 42.6837 65.9001L40.8851 64.1017ZM61.6634 45.9021C61.6634 45.8027 61.7028 45.7075 61.773 45.6372C61.8433 45.567 61.9386 45.5275 62.038 45.5275H64.5628C64.6621 45.5275 64.7574 45.567 64.8277 45.6373C64.8979 45.7075 64.9374 45.8028 64.9374 45.9021V56.9603C64.9374 57.0597 64.8979 57.1549 64.8277 57.2252C64.7574 57.2954 64.6621 57.3349 64.5628 57.3349H62.038C61.9386 57.3349 61.8433 57.2955 61.773 57.2253C61.7028 57.155 61.6634 57.0597 61.6634 56.9603V45.9021ZM67.7428 48.1345C67.7428 48.0352 67.7823 47.9399 67.8525 47.8697C67.9228 47.7994 68.018 47.7599 68.1174 47.7599H70.6423C70.7416 47.7599 70.8369 47.7994 70.9072 47.8696C70.9774 47.9399 71.0169 48.0351 71.0169 48.1345V56.9603C71.0169 57.0597 70.9774 57.1549 70.9072 57.2252C70.8369 57.2954 70.7416 57.3349 70.6423 57.3349H68.1174C68.018 57.3349 67.9228 57.2954 67.8525 57.2252C67.7823 57.1549 67.7428 57.0597 67.7428 56.9603V48.1345ZM73.8244 41.6055C73.8245 41.5062 73.864 41.411 73.9343 41.3407C74.0045 41.2705 74.0997 41.231 74.199 41.2309H76.7239C76.8233 41.2309 76.9185 41.2703 76.9888 41.3406C77.0591 41.4108 77.0985 41.5061 77.0985 41.6055V56.9603C77.0985 57.0597 77.0591 57.1549 76.9888 57.2252C76.9185 57.2954 76.8233 57.3349 76.7239 57.3349H74.199C74.0997 57.3348 74.0044 57.2953 73.9342 57.2251C73.864 57.1549 73.8245 57.0596 73.8244 56.9603V41.6055ZM55.5818 52.6764C55.5818 52.577 55.6212 52.4818 55.6915 52.4115C55.7617 52.3413 55.857 52.3018 55.9564 52.3018H58.4833C58.5826 52.3018 58.6779 52.3413 58.7482 52.4115C58.8184 52.4818 58.8579 52.577 58.8579 52.6764V58.209C58.8579 58.3084 58.8184 58.4036 58.7483 58.4739C58.6779 58.5441 58.5826 58.5836 58.4833 58.5836H55.9564C55.857 58.5836 55.7617 58.5441 55.6914 58.4739C55.6212 58.4036 55.5818 58.3083 55.5818 58.209V52.6764ZM59.7645 43.2787C59.8654 43.5652 59.9168 43.8668 59.9165 44.1706C59.9165 45.6563 58.7056 46.8651 57.2198 46.8651C55.7341 46.8651 54.5231 45.6563 54.5231 44.1706C54.5231 42.6852 55.7345 41.4739 57.2198 41.4739C57.6632 41.4739 58.0821 41.5818 58.4517 41.7727L60.7566 39.7651C60.6559 39.4791 60.6046 39.1782 60.6048 38.875C60.6048 37.3892 61.817 36.1783 63.2993 36.1783C64.7847 36.1783 65.996 37.3896 65.996 38.875C65.996 38.9463 65.9931 39.017 65.9876 39.087L67.5782 39.8715C68.0566 39.4404 68.689 39.1776 69.3809 39.1776C69.7384 39.1776 70.0798 39.2476 70.3922 39.3747L73.0078 36.6445C72.8479 36.2942 72.7654 35.9135 72.7659 35.5285C72.7659 34.0428 73.9747 32.8319 75.4604 32.8319C76.9458 32.8319 78.1571 34.0431 78.1571 35.5285C78.1571 37.0139 76.9458 38.2252 75.4604 38.2252C75.1137 38.2255 74.7703 38.1585 74.4492 38.0279L71.8335 40.7583C71.9934 41.1085 72.0759 41.4891 72.0755 41.8742C72.0755 43.357 70.8669 44.5688 69.3809 44.5688C67.8952 44.5688 66.6843 43.3566 66.6843 41.8742C66.6843 41.8029 66.687 41.7322 66.6925 41.6622L65.1005 40.877C64.6225 41.307 63.9907 41.5695 63.2993 41.5695C62.857 41.5695 62.4387 41.4616 62.0696 41.271L59.7645 43.2787ZM57.2198 44.8672C57.6044 44.8672 57.9186 44.5551 57.9186 44.1706C57.9183 43.9854 57.8446 43.8078 57.7136 43.6768C57.5826 43.5458 57.405 43.4721 57.2198 43.4717C57.0345 43.4721 56.857 43.5458 56.726 43.6768C56.5951 43.8078 56.5213 43.9854 56.521 44.1706C56.521 44.5551 56.8353 44.8672 57.2198 44.8672ZM63.2993 39.5716C63.6839 39.5716 63.9981 39.2586 63.9981 38.875C63.9978 38.6898 63.9241 38.5122 63.7931 38.3812C63.6621 38.2502 63.4845 38.1765 63.2993 38.1761C62.9156 38.1761 62.6026 38.4904 62.6026 38.875C62.6026 39.2584 62.9159 39.5716 63.2993 39.5716ZM75.4604 36.2273C75.8454 36.2273 76.1593 35.9134 76.1593 35.5285C76.1593 35.1435 75.8454 34.8297 75.4604 34.8297C75.0758 34.8297 74.7638 35.1439 74.7638 35.5285C74.7638 35.9131 75.0758 36.2273 75.4604 36.2273ZM69.3809 42.5709C69.5656 42.5706 69.7426 42.4971 69.8732 42.3665C70.0038 42.2359 70.0773 42.0589 70.0776 41.8742C70.0776 41.4897 69.7655 41.1754 69.3809 41.1754C69.1957 41.1758 69.0182 41.2495 68.8872 41.3805C68.7562 41.5115 68.6825 41.689 68.6821 41.8742C68.6821 42.2579 68.9963 42.5709 69.3809 42.5709ZM46.0617 34.8582C46.1391 34.888 46.3073 34.932 46.3714 34.987L50.3693 38.3659C50.4334 38.421 50.4634 38.6092 50.4981 38.6757H46.4223C46.2246 38.6757 46.0617 38.5356 46.0617 38.3658V34.8582ZM33.2982 67.9928H30.1631C27.6288 67.9928 25.5541 65.9181 25.5541 63.3838V31.6871C25.5541 29.1528 27.6288 27.0781 30.1631 27.0781H80.8811C83.4154 27.0781 85.49 29.1528 85.49 31.6871V63.3838C85.49 65.9181 83.4154 67.9928 80.8811 67.9928H64.9433V75.3149H71.9563C74.1163 75.3149 75.8858 76.7264 75.8858 78.4512V81.5916H35.1625V78.4512C35.1625 76.7264 36.9319 75.3149 39.092 75.3149H42.284C43.0709 75.469 43.8709 75.5464 44.6728 75.5459C51.4861 75.5459 57.0085 70.0236 57.0085 63.2103C57.0092 62.2062 56.8876 61.2058 56.6465 60.2312H81.6378V31.5731C81.6378 31.2192 81.349 30.9345 80.9991 30.9345H30.0491C29.6952 30.9345 29.4064 31.2192 29.4064 31.5731V60.2312H32.699C32.4578 61.2058 32.3363 62.2062 32.337 63.2103C32.337 64.9061 32.6791 66.5221 33.2982 67.9928ZM34.2357 56.6312H34.1391C34.0226 56.6312 33.9109 56.585 33.8284 56.5028C33.7459 56.4206 33.6993 56.3091 33.6989 56.1926V35.2983C33.699 35.1816 33.7454 35.0697 33.8279 34.9872C33.9104 34.9046 34.0223 34.8583 34.1391 34.8582H44.0638V38.3658C44.0638 39.5446 45.0504 40.6736 46.4223 40.6736H50.4981V52.3335C48.7632 51.4025 46.7797 50.8744 44.6728 50.8744C40.2781 50.8744 36.4207 53.1717 34.2357 56.6312ZM36.1895 50.0259H45.2598C45.8111 50.0259 46.2587 49.5783 46.2587 49.0269C46.2587 48.4756 45.8111 48.028 45.2598 48.028H36.1895C35.6382 48.028 35.1906 48.4756 35.1906 49.0269C35.1906 49.5783 35.6382 50.0259 36.1895 50.0259ZM36.1895 46.3835H45.2598C45.8111 46.3835 46.2587 45.936 46.2587 45.3846C46.2587 44.8333 45.8111 44.3856 45.2598 44.3856H36.1895C35.6382 44.3856 35.1906 44.8333 35.1906 45.3846C35.1906 45.936 35.6382 46.3835 36.1895 46.3835ZM36.1895 42.7411H42.0985C42.6498 42.7411 43.0975 42.2936 43.0975 41.7422C43.0975 41.1909 42.6498 40.7433 42.0985 40.7433H36.1895C35.6382 40.7433 35.1906 41.1909 35.1906 41.7422C35.1906 42.2936 35.6382 42.7411 36.1895 42.7411Z" fill="white"/>
<path d="M144.642 34H141.505L135.231 17.5759H137.976L143.074 31.3934L148.148 17.5759H150.917L144.642 34ZM155.654 34.2307C151.87 34.2307 149.771 31.8317 149.771 28.0486C149.771 24.3808 151.755 21.8665 155.515 21.8665C159.275 21.8665 161.259 24.427 161.259 27.841C161.259 28.0716 161.236 28.2793 161.213 28.5099H152.216C152.286 31.3242 153.624 32.5467 155.654 32.5467C157.337 32.5467 158.399 31.6702 158.768 30.3092H161.005C160.475 32.7313 158.745 34.2307 155.654 34.2307ZM155.515 23.5504C153.67 23.5504 152.47 24.6577 152.216 26.8952H158.814C158.56 24.6577 157.361 23.5504 155.515 23.5504ZM173.245 34H170.8V26.5723C170.8 24.773 170.154 23.8503 168.47 23.8503C166.694 23.8503 165.541 25.1882 165.541 27.3566V34H163.096V22.0972H165.425V24.1732C166.071 22.7892 167.225 21.8665 169.208 21.8665C171.93 21.8665 173.245 23.2505 173.245 26.134V34ZM180.282 34.2307C177.075 34.2307 175.092 31.947 175.092 28.0486C175.092 24.1502 177.075 21.8665 180.282 21.8665C182.196 21.8665 183.511 22.6508 184.18 24.1271V17.5759H186.625V34H184.295V31.8086C183.626 33.331 182.358 34.2307 180.282 34.2307ZM180.858 32.3622C182.819 32.3622 184.18 31.0474 184.18 28.0486C184.18 25.0729 182.819 23.735 180.858 23.735C178.875 23.735 177.537 25.0729 177.537 28.0486C177.537 31.0474 178.875 32.3622 180.858 32.3622ZM194.355 34.2307C190.572 34.2307 188.472 31.8317 188.472 28.0486C188.472 24.2655 190.572 21.8665 194.355 21.8665C198.138 21.8665 200.237 24.2655 200.237 28.0486C200.237 31.8317 198.138 34.2307 194.355 34.2307ZM194.355 32.3622C196.546 32.3622 197.792 30.932 197.792 28.0486C197.792 25.1882 196.546 23.735 194.355 23.735C192.163 23.735 190.918 25.1882 190.918 28.0486C190.918 30.932 192.163 32.3622 194.355 32.3622ZM204.535 34H202.09V22.0972H204.419V24.8422C205.042 22.7431 206.103 21.9588 207.833 21.9588C208.156 21.9588 208.618 22.028 208.917 22.0972V24.2424L207.741 24.1963C205.803 24.1963 204.535 25.6957 204.535 28.3485V34ZM231.067 34H228.414L226.984 30.2169H219.464L218.011 34H215.381L221.656 17.5759H224.793L231.067 34ZM226.338 28.2331L223.224 19.9519L220.11 28.2331H226.338ZM242.605 34H240.16V26.5723C240.16 24.773 239.514 23.8503 237.83 23.8503C236.054 23.8503 234.901 25.1882 234.901 27.3566V34H232.456V22.0972H234.786V24.1732C235.431 22.7892 236.585 21.8665 238.569 21.8665C241.291 21.8665 242.605 23.2505 242.605 26.134V34ZM248.719 34.2307C245.951 34.2307 244.452 32.8466 244.452 30.6321C244.452 28.8559 245.536 27.4488 248.489 27.1951L250.795 27.0105C252.202 26.8721 252.618 26.5492 252.618 25.788C252.618 24.427 251.833 23.6196 250.103 23.6196C248.489 23.6196 247.612 24.3116 247.497 25.788H245.098C245.098 23.3889 246.574 21.8665 250.08 21.8665C253.563 21.8665 255.063 23.3889 255.063 25.788V30.9551C255.063 32.5698 255.201 33.6079 255.432 34H253.24C252.871 33.5386 252.733 33.0542 252.733 31.947C252.087 33.4694 250.772 34.2307 248.719 34.2307ZM249.388 32.5467C251.487 32.5467 252.618 30.909 252.618 28.9482V27.9332C252.364 28.2562 251.718 28.4407 250.795 28.5099L249.273 28.6483C247.566 28.7867 246.897 29.5018 246.897 30.4707C246.897 31.6932 247.635 32.5467 249.388 32.5467ZM259.816 34H257.37V17.5759H259.816V34ZM262.285 38.5212V36.7681H263.346C264.938 36.7681 265.861 35.7531 265.861 34.669C265.861 34.4383 265.814 34.1845 265.722 33.9539L261.201 22.0972H263.738L267.175 32.0393L270.636 22.0972H273.196L268.629 33.9539C267.268 37.4601 265.907 38.5212 263.323 38.5212H262.285ZM278.964 34.1153C276.472 34.1153 275.596 33.3772 275.596 30.9551V23.8503H273.658V22.0972H275.596V18.4986H278.041V22.0972H280.786V23.8503H278.041V31.0243C278.041 32.0623 278.433 32.3622 279.517 32.3622L280.786 32.3391V34C280.302 34.0461 279.448 34.1153 278.964 34.1153ZM284.978 34H282.533V22.0972H284.978V34ZM283.756 20.0211C282.81 20.0211 282.302 19.4675 282.302 18.7293C282.302 17.9911 282.81 17.4145 283.756 17.4145C284.678 17.4145 285.209 17.9911 285.209 18.7293C285.209 19.4675 284.678 20.0211 283.756 20.0211ZM292.592 34.2307C288.924 34.2307 286.825 31.8317 286.825 28.0486C286.825 24.2655 288.924 21.8665 292.592 21.8665C296.352 21.8665 297.989 24.2655 297.989 26.48H295.729C295.498 25.0037 294.622 23.735 292.592 23.735C290.516 23.735 289.27 25.1882 289.27 28.0486C289.27 30.932 290.516 32.3622 292.592 32.3622C294.368 32.3622 295.475 31.4164 295.729 29.5249H297.989C297.989 31.9701 296.213 34.2307 292.592 34.2307ZM304.314 34.2307C300.577 34.2307 299.147 32.5929 299.147 30.3092H301.5C301.615 31.6702 302.215 32.5929 304.337 32.5929C306.413 32.5929 307.036 31.6932 307.036 30.6783C307.036 29.7325 306.344 29.2481 305.214 29.0866L303.022 28.7637C300.531 28.4177 299.47 27.5411 299.47 25.5573C299.47 23.5043 300.762 21.8665 304.314 21.8665C307.866 21.8665 309.158 23.5043 309.158 25.6034H306.805C306.69 24.4962 306.321 23.5043 304.291 23.5043C302.561 23.5043 301.915 24.2194 301.915 25.3728C301.915 26.3416 302.469 26.6876 303.391 26.826L305.583 27.1489C308.005 27.495 309.481 28.3715 309.481 30.5399C309.481 32.5929 308.051 34.2307 304.314 34.2307Z" fill="white"/>
<path d="M140.584 66H138.808V56.064H135.272V54.608H144.136V56.064H140.584V66ZM146.105 66H144.409V57.744H146.025V59.648C146.457 58.192 147.193 57.648 148.393 57.648C148.617 57.648 148.937 57.696 149.145 57.744V59.232L148.329 59.2C146.985 59.2 146.105 60.24 146.105 62.08V66ZM152.518 66.16C150.598 66.16 149.558 65.2 149.558 63.664C149.558 62.432 150.31 61.456 152.358 61.28L153.958 61.152C154.934 61.056 155.222 60.832 155.222 60.304C155.222 59.36 154.678 58.8 153.478 58.8C152.358 58.8 151.75 59.28 151.67 60.304H150.006C150.006 58.64 151.03 57.584 153.462 57.584C155.878 57.584 156.918 58.64 156.918 60.304V63.888C156.918 65.008 157.014 65.728 157.174 66H155.654C155.398 65.68 155.302 65.344 155.302 64.576C154.854 65.632 153.942 66.16 152.518 66.16ZM152.982 64.992C154.438 64.992 155.222 63.856 155.222 62.496V61.792C155.046 62.016 154.598 62.144 153.958 62.192L152.902 62.288C151.718 62.384 151.254 62.88 151.254 63.552C151.254 64.4 151.766 64.992 152.982 64.992ZM162.199 66.16C159.655 66.16 158.199 64.496 158.199 61.872C158.199 59.248 159.655 57.584 162.199 57.584C164.807 57.584 165.943 59.248 165.943 60.784H164.375C164.215 59.76 163.607 58.88 162.199 58.88C160.759 58.88 159.895 59.888 159.895 61.872C159.895 63.872 160.759 64.864 162.199 64.864C163.431 64.864 164.199 64.208 164.375 62.896H165.943C165.943 64.592 164.711 66.16 162.199 66.16ZM174.81 66H172.842L170.17 62.224L168.762 63.6V66H167.066V54.608H168.762V61.68L172.682 57.744H174.65L171.322 61.04L174.81 66ZM183.033 66.16C180.441 66.16 179.449 65.024 179.449 63.44H181.081C181.161 64.384 181.577 65.024 183.049 65.024C184.489 65.024 184.921 64.4 184.921 63.696C184.921 63.04 184.441 62.704 183.657 62.592L182.137 62.368C180.409 62.128 179.673 61.52 179.673 60.144C179.673 58.72 180.569 57.584 183.033 57.584C185.497 57.584 186.393 58.72 186.393 60.176H184.761C184.681 59.408 184.425 58.72 183.017 58.72C181.817 58.72 181.369 59.216 181.369 60.016C181.369 60.688 181.753 60.928 182.393 61.024L183.913 61.248C185.593 61.488 186.617 62.096 186.617 63.6C186.617 65.024 185.625 66.16 183.033 66.16ZM190.694 66.16C188.806 66.16 187.894 65.2 187.894 63.2V57.744H189.59V62.896C189.59 64.144 190.038 64.784 191.206 64.784C192.438 64.784 193.238 63.856 193.238 62.352V57.744H194.934V66H193.318V64.576C192.854 65.52 192.07 66.16 190.694 66.16ZM200.918 66.16C199.59 66.16 198.694 65.616 198.23 64.592V69.136H196.534V57.744H198.15V59.28C198.598 58.208 199.494 57.584 200.918 57.584C203.142 57.584 204.534 59.168 204.534 61.872C204.534 64.576 203.142 66.16 200.918 66.16ZM200.534 64.864C201.894 64.864 202.838 63.952 202.838 61.872C202.838 59.808 201.894 58.88 200.534 58.88C199.158 58.88 198.23 59.808 198.23 61.872C198.23 63.952 199.158 64.864 200.534 64.864ZM210.2 66.16C208.872 66.16 207.976 65.616 207.512 64.592V69.136H205.816V57.744H207.432V59.28C207.88 58.208 208.776 57.584 210.2 57.584C212.424 57.584 213.816 59.168 213.816 61.872C213.816 64.576 212.424 66.16 210.2 66.16ZM209.816 64.864C211.176 64.864 212.12 63.952 212.12 61.872C212.12 59.808 211.176 58.88 209.816 58.88C208.44 58.88 207.512 59.808 207.512 61.872C207.512 63.952 208.44 64.864 209.816 64.864ZM216.793 66H215.097V54.608H216.793V66ZM220.09 66H218.394V57.744H220.09V66ZM219.242 56.304C218.586 56.304 218.234 55.92 218.234 55.408C218.234 54.896 218.586 54.496 219.242 54.496C219.882 54.496 220.25 54.896 220.25 55.408C220.25 55.92 219.882 56.304 219.242 56.304ZM225.451 66.16C222.827 66.16 221.371 64.496 221.371 61.872C221.371 59.328 222.747 57.584 225.355 57.584C227.963 57.584 229.339 59.36 229.339 61.728C229.339 61.888 229.323 62.032 229.307 62.192H223.067C223.115 64.144 224.043 64.992 225.451 64.992C226.619 64.992 227.355 64.384 227.611 63.44H229.163C228.795 65.12 227.595 66.16 225.451 66.16ZM225.355 58.752C224.075 58.752 223.243 59.52 223.067 61.072H227.643C227.467 59.52 226.635 58.752 225.355 58.752ZM232.309 66H230.613V57.744H232.229V59.648C232.661 58.192 233.397 57.648 234.597 57.648C234.821 57.648 235.141 57.696 235.349 57.744V59.232L234.533 59.2C233.189 59.2 232.309 60.24 232.309 62.08V66ZM248.856 66.16C247.528 66.16 246.632 65.616 246.168 64.592V69.136H244.472V57.744H246.088V59.28C246.536 58.208 247.432 57.584 248.856 57.584C251.08 57.584 252.472 59.168 252.472 61.872C252.472 64.576 251.08 66.16 248.856 66.16ZM248.472 64.864C249.832 64.864 250.776 63.952 250.776 61.872C250.776 59.808 249.832 58.88 248.472 58.88C247.096 58.88 246.168 59.808 246.168 61.872C246.168 63.952 247.096 64.864 248.472 64.864ZM257.513 66.16C254.889 66.16 253.433 64.496 253.433 61.872C253.433 59.328 254.809 57.584 257.417 57.584C260.025 57.584 261.401 59.36 261.401 61.728C261.401 61.888 261.385 62.032 261.369 62.192H255.129C255.177 64.144 256.105 64.992 257.513 64.992C258.681 64.992 259.417 64.384 259.673 63.44H261.225C260.857 65.12 259.657 66.16 257.513 66.16ZM257.417 58.752C256.137 58.752 255.305 59.52 255.129 61.072H259.705C259.529 59.52 258.697 58.752 257.417 58.752ZM264.371 66H262.675V57.744H264.291V59.648C264.723 58.192 265.459 57.648 266.659 57.648C266.883 57.648 267.203 57.696 267.411 57.744V59.232L266.595 59.2C265.251 59.2 264.371 60.24 264.371 62.08V66ZM270.934 66H269.238V58.96H267.894V57.744H269.238V56.88C269.238 55.28 269.91 54.528 271.574 54.528C271.91 54.528 272.502 54.576 272.838 54.608V55.776L271.958 55.744C271.206 55.744 270.934 56.096 270.934 56.816V57.744H272.838V58.96H270.934V66ZM277.232 66.16C274.608 66.16 273.152 64.496 273.152 61.872C273.152 59.248 274.608 57.584 277.232 57.584C279.856 57.584 281.312 59.248 281.312 61.872C281.312 64.496 279.856 66.16 277.232 66.16ZM277.232 64.864C278.752 64.864 279.616 63.872 279.616 61.872C279.616 59.888 278.752 58.88 277.232 58.88C275.712 58.88 274.848 59.888 274.848 61.872C274.848 63.872 275.712 64.864 277.232 64.864ZM284.293 66H282.597V57.744H284.213V59.648C284.645 58.192 285.381 57.648 286.581 57.648C286.805 57.648 287.125 57.696 287.333 57.744V59.232L286.517 59.2C285.173 59.2 284.293 60.24 284.293 62.08V66ZM299.528 66H297.896V60.8C297.896 59.552 297.496 58.96 296.552 58.96C295.56 58.96 294.792 59.84 294.792 61.344V66H293.16V60.8C293.16 59.552 292.76 58.96 291.832 58.96C290.84 58.96 290.088 59.84 290.088 61.344V66H288.456V57.744H290.072V59.184C290.456 58.224 291.224 57.584 292.36 57.584C293.592 57.584 294.328 58.144 294.632 59.248C295.048 58.192 295.912 57.584 297.048 57.584C298.712 57.584 299.528 58.544 299.528 60.544V66ZM303.768 66.16C301.848 66.16 300.808 65.2 300.808 63.664C300.808 62.432 301.56 61.456 303.608 61.28L305.208 61.152C306.184 61.056 306.472 60.832 306.472 60.304C306.472 59.36 305.928 58.8 304.728 58.8C303.608 58.8 303 59.28 302.92 60.304H301.256C301.256 58.64 302.28 57.584 304.712 57.584C307.128 57.584 308.168 58.64 308.168 60.304V63.888C308.168 65.008 308.264 65.728 308.424 66H306.904C306.648 65.68 306.552 65.344 306.552 64.576C306.104 65.632 305.192 66.16 303.768 66.16ZM304.232 64.992C305.688 64.992 306.472 63.856 306.472 62.496V61.792C306.296 62.016 305.848 62.144 305.208 62.192L304.152 62.288C302.968 62.384 302.504 62.88 302.504 63.552C302.504 64.4 303.016 64.992 304.232 64.992ZM316.809 66H315.113V60.848C315.113 59.6 314.665 58.96 313.497 58.96C312.265 58.96 311.465 59.888 311.465 61.392V66H309.769V57.744H311.385V59.184C311.833 58.224 312.633 57.584 314.009 57.584C315.897 57.584 316.809 58.544 316.809 60.544V66ZM322.089 66.16C319.545 66.16 318.089 64.496 318.089 61.872C318.089 59.248 319.545 57.584 322.089 57.584C324.697 57.584 325.833 59.248 325.833 60.784H324.265C324.105 59.76 323.497 58.88 322.089 58.88C320.649 58.88 319.785 59.888 319.785 61.872C319.785 63.872 320.649 64.864 322.089 64.864C323.321 64.864 324.089 64.208 324.265 62.896H325.833C325.833 64.592 324.601 66.16 322.089 66.16ZM330.716 66.16C328.092 66.16 326.636 64.496 326.636 61.872C326.636 59.328 328.012 57.584 330.62 57.584C333.228 57.584 334.604 59.36 334.604 61.728C334.604 61.888 334.588 62.032 334.572 62.192H328.332C328.38 64.144 329.308 64.992 330.716 64.992C331.884 64.992 332.62 64.384 332.876 63.44H334.428C334.06 65.12 332.86 66.16 330.716 66.16ZM330.62 58.752C329.34 58.752 328.508 59.52 328.332 61.072H332.908C332.732 59.52 331.9 58.752 330.62 58.752ZM349.27 66H347.462L345.702 59.984L343.926 66H342.134L339.238 57.744H340.998L343.126 64.08L344.934 57.744H346.47L348.278 64.08L350.39 57.744H352.166L349.27 66ZM354.824 66H353.128V57.744H354.824V66ZM353.976 56.304C353.32 56.304 352.968 55.92 352.968 55.408C352.968 54.896 353.32 54.496 353.976 54.496C354.616 54.496 354.984 54.896 354.984 55.408C354.984 55.92 354.616 56.304 353.976 56.304ZM359.465 66.08C357.737 66.08 357.129 65.568 357.129 63.888V58.96H355.785V57.744H357.129V55.248H358.825V57.744H360.729V58.96H358.825V63.936C358.825 64.656 359.097 64.864 359.849 64.864L360.729 64.848V66C360.393 66.032 359.801 66.08 359.465 66.08ZM368.981 66H367.285V60.848C367.285 59.6 366.837 58.96 365.669 58.96C364.437 58.96 363.637 59.888 363.637 61.392V66H361.941V54.608H363.637V59.056C364.085 58.16 364.869 57.584 366.181 57.584C368.069 57.584 368.981 58.544 368.981 60.544V66ZM381.861 66.16C379.637 66.16 378.261 64.576 378.261 61.872C378.261 59.168 379.637 57.584 381.861 57.584C383.189 57.584 384.101 58.128 384.565 59.152V54.608H386.261V66H384.645V64.48C384.181 65.536 383.301 66.16 381.861 66.16ZM382.261 64.864C383.621 64.864 384.565 63.952 384.565 61.872C384.565 59.808 383.621 58.88 382.261 58.88C380.885 58.88 379.957 59.808 379.957 61.872C379.957 63.952 380.885 64.864 382.261 64.864ZM391.623 66.16C388.999 66.16 387.543 64.496 387.543 61.872C387.543 59.328 388.919 57.584 391.527 57.584C394.135 57.584 395.51 59.36 395.51 61.728C395.51 61.888 395.495 62.032 395.479 62.192H389.239C389.287 64.144 390.215 64.992 391.623 64.992C392.791 64.992 393.527 64.384 393.783 63.44H395.335C394.967 65.12 393.767 66.16 391.623 66.16ZM391.527 58.752C390.247 58.752 389.414 59.52 389.239 61.072H393.815C393.639 59.52 392.807 58.752 391.527 58.752ZM399.668 66.08C397.94 66.08 397.332 65.568 397.332 63.888V58.96H395.988V57.744H397.332V55.248H399.028V57.744H400.932V58.96H399.028V63.936C399.028 64.656 399.3 64.864 400.052 64.864L400.932 64.848V66C400.596 66.032 400.004 66.08 399.668 66.08ZM404.784 66.16C402.864 66.16 401.824 65.2 401.824 63.664C401.824 62.432 402.576 61.456 404.624 61.28L406.224 61.152C407.2 61.056 407.488 60.832 407.488 60.304C407.488 59.36 406.944 58.8 405.744 58.8C404.624 58.8 404.016 59.28 403.936 60.304H402.272C402.272 58.64 403.296 57.584 405.728 57.584C408.144 57.584 409.184 58.64 409.184 60.304V63.888C409.184 65.008 409.28 65.728 409.44 66H407.92C407.664 65.68 407.568 65.344 407.568 64.576C407.12 65.632 406.208 66.16 404.784 66.16ZM405.248 64.992C406.704 64.992 407.488 63.856 407.488 62.496V61.792C407.312 62.016 406.864 62.144 406.224 62.192L405.168 62.288C403.984 62.384 403.52 62.88 403.52 63.552C403.52 64.4 404.032 64.992 405.248 64.992ZM412.48 66H410.784V57.744H412.48V66ZM411.632 56.304C410.976 56.304 410.624 55.92 410.624 55.408C410.624 54.896 410.976 54.496 411.632 54.496C412.272 54.496 412.64 54.896 412.64 55.408C412.64 55.92 412.272 56.304 411.632 56.304ZM415.777 66H414.081V54.608H415.777V66ZM421.138 66.16C418.514 66.16 417.058 64.496 417.058 61.872C417.058 59.328 418.434 57.584 421.042 57.584C423.65 57.584 425.026 59.36 425.026 61.728C425.026 61.888 425.01 62.032 424.994 62.192H418.754C418.802 64.144 419.73 64.992 421.138 64.992C422.306 64.992 423.042 64.384 423.298 63.44H424.85C424.482 65.12 423.282 66.16 421.138 66.16ZM421.042 58.752C419.762 58.752 418.93 59.52 418.754 61.072H423.33C423.154 59.52 422.322 58.752 421.042 58.752ZM429.58 66.16C427.356 66.16 425.98 64.576 425.98 61.872C425.98 59.168 427.356 57.584 429.58 57.584C430.908 57.584 431.82 58.128 432.284 59.152V54.608H433.98V66H432.364V64.48C431.9 65.536 431.02 66.16 429.58 66.16ZM429.98 64.864C431.34 64.864 432.284 63.952 432.284 61.872C432.284 59.808 431.34 58.88 429.98 58.88C428.604 58.88 427.676 59.808 427.676 61.872C427.676 63.952 428.604 64.864 429.98 64.864ZM442.845 66.16C440.253 66.16 439.261 65.024 439.261 63.44H440.893C440.973 64.384 441.389 65.024 442.861 65.024C444.301 65.024 444.733 64.4 444.733 63.696C444.733 63.04 444.253 62.704 443.469 62.592L441.949 62.368C440.221 62.128 439.485 61.52 439.485 60.144C439.485 58.72 440.381 57.584 442.845 57.584C445.309 57.584 446.205 58.72 446.205 60.176H444.573C444.493 59.408 444.237 58.72 442.829 58.72C441.629 58.72 441.181 59.216 441.181 60.016C441.181 60.688 441.565 60.928 442.205 61.024L443.725 61.248C445.405 61.488 446.429 62.096 446.429 63.6C446.429 65.024 445.437 66.16 442.845 66.16ZM451.386 66.16C448.842 66.16 447.386 64.496 447.386 61.872C447.386 59.248 448.842 57.584 451.386 57.584C453.994 57.584 455.13 59.248 455.13 60.784H453.562C453.402 59.76 452.794 58.88 451.386 58.88C449.946 58.88 449.082 59.888 449.082 61.872C449.082 63.872 449.946 64.864 451.386 64.864C452.618 64.864 453.386 64.208 453.562 62.896H455.13C455.13 64.592 453.898 66.16 451.386 66.16ZM460.013 66.16C457.389 66.16 455.933 64.496 455.933 61.872C455.933 59.248 457.389 57.584 460.013 57.584C462.637 57.584 464.093 59.248 464.093 61.872C464.093 64.496 462.637 66.16 460.013 66.16ZM460.013 64.864C461.533 64.864 462.397 63.872 462.397 61.872C462.397 59.888 461.533 58.88 460.013 58.88C458.493 58.88 457.629 59.888 457.629 61.872C457.629 63.872 458.493 64.864 460.013 64.864ZM467.074 66H465.378V57.744H466.994V59.648C467.426 58.192 468.162 57.648 469.362 57.648C469.586 57.648 469.906 57.696 470.114 57.744V59.232L469.298 59.2C467.954 59.2 467.074 60.24 467.074 62.08V66ZM474.638 66.16C472.014 66.16 470.558 64.496 470.558 61.872C470.558 59.328 471.934 57.584 474.542 57.584C477.15 57.584 478.526 59.36 478.526 61.728C478.526 61.888 478.51 62.032 478.494 62.192H472.254C472.302 64.144 473.23 64.992 474.638 64.992C475.806 64.992 476.542 64.384 476.798 63.44H478.35C477.982 65.12 476.782 66.16 474.638 66.16ZM474.542 58.752C473.262 58.752 472.43 59.52 472.254 61.072H476.83C476.654 59.52 475.822 58.752 474.542 58.752ZM483.48 66.16C480.936 66.16 479.48 64.496 479.48 61.872C479.48 59.248 480.936 57.584 483.48 57.584C486.088 57.584 487.224 59.248 487.224 60.784H485.656C485.496 59.76 484.888 58.88 483.48 58.88C482.04 58.88 481.176 59.888 481.176 61.872C481.176 63.872 482.04 64.864 483.48 64.864C484.712 64.864 485.48 64.208 485.656 62.896H487.224C487.224 64.592 485.992 66.16 483.48 66.16ZM490.987 66.16C489.067 66.16 488.027 65.2 488.027 63.664C488.027 62.432 488.779 61.456 490.827 61.28L492.427 61.152C493.403 61.056 493.691 60.832 493.691 60.304C493.691 59.36 493.147 58.8 491.947 58.8C490.827 58.8 490.219 59.28 490.139 60.304H488.475C488.475 58.64 489.499 57.584 491.931 57.584C494.347 57.584 495.387 58.64 495.387 60.304V63.888C495.387 65.008 495.483 65.728 495.643 66H494.123C493.867 65.68 493.771 65.344 493.771 64.576C493.323 65.632 492.411 66.16 490.987 66.16ZM491.451 64.992C492.907 64.992 493.691 63.856 493.691 62.496V61.792C493.515 62.016 493.067 62.144 492.427 62.192L491.371 62.288C490.187 62.384 489.723 62.88 489.723 63.552C489.723 64.4 490.235 64.992 491.451 64.992ZM498.684 66H496.988V57.744H498.604V59.648C499.036 58.192 499.772 57.648 500.972 57.648C501.196 57.648 501.516 57.696 501.724 57.744V59.232L500.908 59.2C499.564 59.2 498.684 60.24 498.684 62.08V66ZM505.768 66.16C503.544 66.16 502.168 64.576 502.168 61.872C502.168 59.168 503.544 57.584 505.768 57.584C507.096 57.584 508.008 58.128 508.472 59.152V54.608H510.168V66H508.552V64.48C508.088 65.536 507.208 66.16 505.768 66.16ZM506.168 64.864C507.528 64.864 508.472 63.952 508.472 61.872C508.472 59.808 507.528 58.88 506.168 58.88C504.792 58.88 503.864 59.808 503.864 61.872C503.864 63.952 504.792 64.864 506.168 64.864ZM515.033 66.16C512.441 66.16 511.449 65.024 511.449 63.44H513.081C513.161 64.384 513.577 65.024 515.049 65.024C516.489 65.024 516.921 64.4 516.921 63.696C516.921 63.04 516.441 62.704 515.657 62.592L514.137 62.368C512.409 62.128 511.673 61.52 511.673 60.144C511.673 58.72 512.569 57.584 515.033 57.584C517.497 57.584 518.393 58.72 518.393 60.176H516.761C516.681 59.408 516.425 58.72 515.017 58.72C513.817 58.72 513.369 59.216 513.369 60.016C513.369 60.688 513.753 60.928 514.393 61.024L515.913 61.248C517.593 61.488 518.617 62.096 518.617 63.6C518.617 65.024 517.625 66.16 515.033 66.16ZM520.406 68.304L519.526 67.92C519.926 67.28 520.006 66.768 520.006 65.776V64.064H521.462V65.776C521.462 66.928 521.174 67.744 520.406 68.304ZM137.496 89H135.8V80.744H137.496V89ZM136.648 79.304C135.992 79.304 135.64 78.92 135.64 78.408C135.64 77.896 135.992 77.496 136.648 77.496C137.288 77.496 137.656 77.896 137.656 78.408C137.656 78.92 137.288 79.304 136.648 79.304ZM142.377 89.16C140.153 89.16 138.777 87.576 138.777 84.872C138.777 82.168 140.153 80.584 142.377 80.584C143.705 80.584 144.617 81.128 145.081 82.152V77.608H146.777V89H145.161V87.48C144.697 88.536 143.817 89.16 142.377 89.16ZM142.777 87.864C144.137 87.864 145.081 86.952 145.081 84.872C145.081 82.808 144.137 81.88 142.777 81.88C141.401 81.88 140.473 82.808 140.473 84.872C140.473 86.952 141.401 87.864 142.777 87.864ZM152.138 89.16C149.514 89.16 148.058 87.496 148.058 84.872C148.058 82.328 149.434 80.584 152.042 80.584C154.65 80.584 156.026 82.36 156.026 84.728C156.026 84.888 156.01 85.032 155.994 85.192H149.754C149.802 87.144 150.73 87.992 152.138 87.992C153.306 87.992 154.042 87.384 154.298 86.44H155.85C155.482 88.12 154.282 89.16 152.138 89.16ZM152.042 81.752C150.762 81.752 149.93 82.52 149.754 84.072H154.33C154.154 82.52 153.322 81.752 152.042 81.752ZM164.34 89H162.644V83.848C162.644 82.6 162.196 81.96 161.028 81.96C159.796 81.96 158.996 82.888 158.996 84.392V89H157.3V80.744H158.916V82.184C159.364 81.224 160.164 80.584 161.54 80.584C163.428 80.584 164.34 81.544 164.34 83.544V89ZM168.824 89.08C167.096 89.08 166.488 88.568 166.488 86.888V81.96H165.144V80.744H166.488V78.248H168.184V80.744H170.088V81.96H168.184V86.936C168.184 87.656 168.456 87.864 169.208 87.864L170.088 87.848V89C169.752 89.032 169.16 89.08 168.824 89.08ZM172.996 89H171.3V80.744H172.996V89ZM172.148 79.304C171.492 79.304 171.14 78.92 171.14 78.408C171.14 77.896 171.492 77.496 172.148 77.496C172.788 77.496 173.156 77.896 173.156 78.408C173.156 78.92 172.788 79.304 172.148 79.304ZM176.997 89H175.301V81.96H173.957V80.744H175.301V79.88C175.301 78.28 175.973 77.528 177.637 77.528C177.973 77.528 178.565 77.576 178.901 77.608V78.776L178.021 78.744C177.269 78.744 176.997 79.096 176.997 79.816V80.744H178.901V81.96H176.997V89ZM180.131 92.136V90.92H180.867C181.971 90.92 182.611 90.216 182.611 89.464C182.611 89.304 182.579 89.128 182.515 88.968L179.379 80.744H181.139L183.523 87.64L185.923 80.744H187.699L184.531 88.968C183.587 91.4 182.643 92.136 180.851 92.136H180.131ZM190.355 89H188.659V80.744H190.355V89ZM189.507 79.304C188.851 79.304 188.499 78.92 188.499 78.408C188.499 77.896 188.851 77.496 189.507 77.496C190.147 77.496 190.515 77.896 190.515 78.408C190.515 78.92 190.147 79.304 189.507 79.304ZM198.996 89H197.3V83.848C197.3 82.6 196.852 81.96 195.684 81.96C194.452 81.96 193.652 82.888 193.652 84.392V89H191.956V80.744H193.572V82.184C194.02 81.224 194.82 80.584 196.196 80.584C198.084 80.584 198.996 81.544 198.996 83.544V89ZM203.877 88.68C201.653 88.68 200.277 87.048 200.277 84.632C200.277 82.216 201.653 80.584 203.877 80.584C205.317 80.584 206.197 81.208 206.661 82.28V80.744H208.277V88.392C208.277 90.952 206.901 92.296 204.325 92.296C201.925 92.296 200.725 91.128 200.725 89.384H202.309C202.421 90.536 203.157 91.16 204.405 91.16C205.781 91.16 206.581 90.424 206.581 88.824V87.112C206.117 88.136 205.205 88.68 203.877 88.68ZM204.277 87.464C205.637 87.464 206.581 86.504 206.581 84.632C206.581 82.776 205.637 81.8 204.277 81.8C202.901 81.8 201.973 82.776 201.973 84.632C201.973 86.504 202.901 87.464 204.277 87.464ZM213.99 92.136V90.92H214.726C215.83 90.92 216.47 90.216 216.47 89.464C216.47 89.304 216.438 89.128 216.374 88.968L213.238 80.744H214.998L217.382 87.64L219.782 80.744H221.558L218.39 88.968C217.446 91.4 216.502 92.136 214.71 92.136H213.99ZM225.794 89.16C223.17 89.16 221.714 87.496 221.714 84.872C221.714 82.248 223.17 80.584 225.794 80.584C228.418 80.584 229.874 82.248 229.874 84.872C229.874 87.496 228.418 89.16 225.794 89.16ZM225.794 87.864C227.314 87.864 228.178 86.872 228.178 84.872C228.178 82.888 227.314 81.88 225.794 81.88C224.274 81.88 223.41 82.888 223.41 84.872C223.41 86.872 224.274 87.864 225.794 87.864ZM233.959 89.16C232.071 89.16 231.159 88.2 231.159 86.2V80.744H232.855V85.896C232.855 87.144 233.303 87.784 234.471 87.784C235.703 87.784 236.503 86.856 236.503 85.352V80.744H238.199V89H236.583V87.576C236.119 88.52 235.335 89.16 233.959 89.16ZM241.496 89H239.8V80.744H241.416V82.648C241.848 81.192 242.584 80.648 243.784 80.648C244.008 80.648 244.328 80.696 244.536 80.744V82.232L243.72 82.2C242.376 82.2 241.496 83.24 241.496 85.08V89ZM260.731 89H259.099V83.8C259.099 82.552 258.699 81.96 257.755 81.96C256.763 81.96 255.995 82.84 255.995 84.344V89H254.363V83.8C254.363 82.552 253.963 81.96 253.035 81.96C252.043 81.96 251.291 82.84 251.291 84.344V89H249.659V80.744H251.275V82.184C251.659 81.224 252.427 80.584 253.563 80.584C254.795 80.584 255.531 81.144 255.835 82.248C256.251 81.192 257.115 80.584 258.251 80.584C259.915 80.584 260.731 81.544 260.731 83.544V89ZM266.091 89.16C263.467 89.16 262.011 87.496 262.011 84.872C262.011 82.248 263.467 80.584 266.091 80.584C268.715 80.584 270.171 82.248 270.171 84.872C270.171 87.496 268.715 89.16 266.091 89.16ZM266.091 87.864C267.611 87.864 268.475 86.872 268.475 84.872C268.475 82.888 267.611 81.88 266.091 81.88C264.571 81.88 263.707 82.888 263.707 84.872C263.707 86.872 264.571 87.864 266.091 87.864ZM274.72 89.16C272.128 89.16 271.136 88.024 271.136 86.44H272.768C272.848 87.384 273.264 88.024 274.736 88.024C276.176 88.024 276.608 87.4 276.608 86.696C276.608 86.04 276.128 85.704 275.344 85.592L273.824 85.368C272.096 85.128 271.36 84.52 271.36 83.144C271.36 81.72 272.256 80.584 274.72 80.584C277.184 80.584 278.08 81.72 278.08 83.176H276.448C276.368 82.408 276.112 81.72 274.704 81.72C273.504 81.72 273.056 82.216 273.056 83.016C273.056 83.688 273.44 83.928 274.08 84.024L275.6 84.248C277.28 84.488 278.304 85.096 278.304 86.6C278.304 88.024 277.312 89.16 274.72 89.16ZM282.465 89.08C280.737 89.08 280.129 88.568 280.129 86.888V81.96H278.785V80.744H280.129V78.248H281.825V80.744H283.729V81.96H281.825V86.936C281.825 87.656 282.097 87.864 282.849 87.864L283.729 87.848V89C283.393 89.032 282.801 89.08 282.465 89.08ZM294.637 89H292.941V80.744H294.557V82.648C294.989 81.192 295.725 80.648 296.925 80.648C297.149 80.648 297.469 80.696 297.677 80.744V82.232L296.861 82.2C295.517 82.2 294.637 83.24 294.637 85.08V89ZM302.201 89.16C299.577 89.16 298.121 87.496 298.121 84.872C298.121 82.328 299.497 80.584 302.105 80.584C304.713 80.584 306.089 82.36 306.089 84.728C306.089 84.888 306.073 85.032 306.057 85.192H299.817C299.865 87.144 300.793 87.992 302.201 87.992C303.369 87.992 304.105 87.384 304.361 86.44H305.913C305.545 88.12 304.345 89.16 302.201 89.16ZM302.105 81.752C300.825 81.752 299.993 82.52 299.817 84.072H304.393C304.217 82.52 303.385 81.752 302.105 81.752ZM309.059 89H307.363V77.608H309.059V89ZM312.355 89H310.659V80.744H312.355V89ZM311.507 79.304C310.851 79.304 310.499 78.92 310.499 78.408C310.499 77.896 310.851 77.496 311.507 77.496C312.147 77.496 312.515 77.896 312.515 78.408C312.515 78.92 312.147 79.304 311.507 79.304ZM316.596 89.16C314.676 89.16 313.636 88.2 313.636 86.664C313.636 85.432 314.388 84.456 316.436 84.28L318.036 84.152C319.012 84.056 319.3 83.832 319.3 83.304C319.3 82.36 318.756 81.8 317.556 81.8C316.436 81.8 315.828 82.28 315.748 83.304H314.084C314.084 81.64 315.108 80.584 317.54 80.584C319.956 80.584 320.996 81.64 320.996 83.304V86.888C320.996 88.008 321.092 88.728 321.252 89H319.732C319.476 88.68 319.38 88.344 319.38 87.576C318.932 88.632 318.02 89.16 316.596 89.16ZM317.06 87.992C318.516 87.992 319.3 86.856 319.3 85.496V84.792C319.124 85.016 318.676 85.144 318.036 85.192L316.98 85.288C315.796 85.384 315.332 85.88 315.332 86.552C315.332 87.4 315.844 87.992 317.06 87.992ZM326.981 89.16C325.557 89.16 324.661 88.536 324.213 87.48V89H322.597V77.608H324.293V82.152C324.757 81.128 325.653 80.584 326.981 80.584C329.205 80.584 330.597 82.168 330.597 84.872C330.597 87.576 329.205 89.16 326.981 89.16ZM326.597 87.864C327.957 87.864 328.901 86.952 328.901 84.872C328.901 82.808 327.957 81.88 326.597 81.88C325.221 81.88 324.293 82.808 324.293 84.872C324.293 86.952 325.221 87.864 326.597 87.864ZM333.574 89H331.878V77.608H333.574V89ZM338.935 89.16C336.311 89.16 334.855 87.496 334.855 84.872C334.855 82.328 336.231 80.584 338.839 80.584C341.447 80.584 342.823 82.36 342.823 84.728C342.823 84.888 342.807 85.032 342.791 85.192H336.551C336.599 87.144 337.527 87.992 338.935 87.992C340.103 87.992 340.839 87.384 341.095 86.44H342.647C342.279 88.12 341.079 89.16 338.935 89.16ZM338.839 81.752C337.559 81.752 336.727 82.52 336.551 84.072H341.127C340.951 82.52 340.119 81.752 338.839 81.752ZM350.737 89.16C348.817 89.16 347.777 88.2 347.777 86.664C347.777 85.432 348.529 84.456 350.577 84.28L352.177 84.152C353.153 84.056 353.441 83.832 353.441 83.304C353.441 82.36 352.897 81.8 351.697 81.8C350.577 81.8 349.969 82.28 349.889 83.304H348.225C348.225 81.64 349.249 80.584 351.681 80.584C354.097 80.584 355.137 81.64 355.137 83.304V86.888C355.137 88.008 355.233 88.728 355.393 89H353.873C353.617 88.68 353.521 88.344 353.521 87.576C353.073 88.632 352.161 89.16 350.737 89.16ZM351.201 87.992C352.657 87.992 353.441 86.856 353.441 85.496V84.792C353.265 85.016 352.817 85.144 352.177 85.192L351.121 85.288C349.937 85.384 349.473 85.88 349.473 86.552C349.473 87.4 349.985 87.992 351.201 87.992ZM363.778 89H362.082V83.848C362.082 82.6 361.634 81.96 360.466 81.96C359.234 81.96 358.434 82.888 358.434 84.392V89H356.738V80.744H358.354V82.184C358.802 81.224 359.602 80.584 360.978 80.584C362.866 80.584 363.778 81.544 363.778 83.544V89ZM368.658 89.16C366.434 89.16 365.058 87.576 365.058 84.872C365.058 82.168 366.434 80.584 368.658 80.584C369.986 80.584 370.898 81.128 371.362 82.152V77.608H373.058V89H371.442V87.48C370.978 88.536 370.098 89.16 368.658 89.16ZM369.058 87.864C370.418 87.864 371.362 86.952 371.362 84.872C371.362 82.808 370.418 81.88 369.058 81.88C367.682 81.88 366.754 82.808 366.754 84.872C366.754 86.952 367.682 87.864 369.058 87.864ZM382.339 89.16C379.795 89.16 378.339 87.496 378.339 84.872C378.339 82.248 379.795 80.584 382.339 80.584C384.947 80.584 386.083 82.248 386.083 83.784H384.515C384.355 82.76 383.747 81.88 382.339 81.88C380.899 81.88 380.035 82.888 380.035 84.872C380.035 86.872 380.899 87.864 382.339 87.864C383.571 87.864 384.339 87.208 384.515 85.896H386.083C386.083 87.592 384.851 89.16 382.339 89.16ZM390.966 89.16C388.342 89.16 386.886 87.496 386.886 84.872C386.886 82.248 388.342 80.584 390.966 80.584C393.59 80.584 395.046 82.248 395.046 84.872C395.046 87.496 393.59 89.16 390.966 89.16ZM390.966 87.864C392.486 87.864 393.35 86.872 393.35 84.872C393.35 82.888 392.486 81.88 390.966 81.88C389.446 81.88 388.582 82.888 388.582 84.872C388.582 86.872 389.446 87.864 390.966 87.864ZM399.595 89.16C397.003 89.16 396.011 88.024 396.011 86.44H397.643C397.723 87.384 398.139 88.024 399.611 88.024C401.051 88.024 401.483 87.4 401.483 86.696C401.483 86.04 401.003 85.704 400.219 85.592L398.699 85.368C396.971 85.128 396.235 84.52 396.235 83.144C396.235 81.72 397.131 80.584 399.595 80.584C402.059 80.584 402.955 81.72 402.955 83.176H401.323C401.243 82.408 400.987 81.72 399.579 81.72C398.379 81.72 397.931 82.216 397.931 83.016C397.931 83.688 398.315 83.928 398.955 84.024L400.475 84.248C402.155 84.488 403.179 85.096 403.179 86.6C403.179 88.024 402.187 89.16 399.595 89.16ZM407.34 89.08C405.612 89.08 405.004 88.568 405.004 86.888V81.96H403.66V80.744H405.004V78.248H406.7V80.744H408.604V81.96H406.7V86.936C406.7 87.656 406.972 87.864 407.724 87.864L408.604 87.848V89C408.268 89.032 407.676 89.08 407.34 89.08ZM417.576 89.16C414.952 89.16 413.496 87.496 413.496 84.872C413.496 82.328 414.872 80.584 417.48 80.584C420.088 80.584 421.464 82.36 421.464 84.728C421.464 84.888 421.448 85.032 421.432 85.192H415.192C415.24 87.144 416.168 87.992 417.576 87.992C418.744 87.992 419.48 87.384 419.736 86.44H421.288C420.92 88.12 419.72 89.16 417.576 89.16ZM417.48 81.752C416.2 81.752 415.368 82.52 415.192 84.072H419.768C419.592 82.52 418.76 81.752 417.48 81.752ZM424.825 89H423.129V81.96H421.785V80.744H423.129V79.88C423.129 78.28 423.801 77.528 425.465 77.528C425.801 77.528 426.393 77.576 426.729 77.608V78.776L425.849 78.744C425.097 78.744 424.825 79.096 424.825 79.816V80.744H426.729V81.96H424.825V89ZM430.247 89H428.551V81.96H427.207V80.744H428.551V79.88C428.551 78.28 429.223 77.528 430.887 77.528C431.223 77.528 431.815 77.576 432.151 77.608V78.776L431.271 78.744C430.519 78.744 430.247 79.096 430.247 79.816V80.744H432.151V81.96H430.247V89ZM436.544 89.16C433.92 89.16 432.464 87.496 432.464 84.872C432.464 82.328 433.84 80.584 436.448 80.584C439.056 80.584 440.432 82.36 440.432 84.728C440.432 84.888 440.416 85.032 440.4 85.192H434.16C434.208 87.144 435.136 87.992 436.544 87.992C437.712 87.992 438.448 87.384 438.704 86.44H440.256C439.888 88.12 438.688 89.16 436.544 89.16ZM436.448 81.752C435.168 81.752 434.336 82.52 434.16 84.072H438.736C438.56 82.52 437.728 81.752 436.448 81.752ZM445.386 89.16C442.842 89.16 441.386 87.496 441.386 84.872C441.386 82.248 442.842 80.584 445.386 80.584C447.994 80.584 449.13 82.248 449.13 83.784H447.562C447.402 82.76 446.794 81.88 445.386 81.88C443.946 81.88 443.082 82.888 443.082 84.872C443.082 86.872 443.946 87.864 445.386 87.864C446.618 87.864 447.386 87.208 447.562 85.896H449.13C449.13 87.592 447.898 89.16 445.386 89.16ZM453.293 89.08C451.565 89.08 450.957 88.568 450.957 86.888V81.96H449.613V80.744H450.957V78.248H452.653V80.744H454.557V81.96H452.653V86.936C452.653 87.656 452.925 87.864 453.677 87.864L454.557 87.848V89C454.221 89.032 453.629 89.08 453.293 89.08ZM457.465 89H455.769V80.744H457.465V89ZM456.617 79.304C455.961 79.304 455.609 78.92 455.609 78.408C455.609 77.896 455.961 77.496 456.617 77.496C457.257 77.496 457.625 77.896 457.625 78.408C457.625 78.92 457.257 79.304 456.617 79.304ZM463.61 89H461.562L458.426 80.744H460.186L462.586 87.496L464.97 80.744H466.746L463.61 89ZM470.982 89.16C468.358 89.16 466.902 87.496 466.902 84.872C466.902 82.328 468.278 80.584 470.886 80.584C473.494 80.584 474.87 82.36 474.87 84.728C474.87 84.888 474.854 85.032 474.838 85.192H468.598C468.646 87.144 469.574 87.992 470.982 87.992C472.15 87.992 472.886 87.384 473.142 86.44H474.694C474.326 88.12 473.126 89.16 470.982 89.16ZM470.886 81.752C469.606 81.752 468.774 82.52 468.598 84.072H473.174C472.998 82.52 472.166 81.752 470.886 81.752ZM484.528 89.16C483.2 89.16 482.304 88.616 481.84 87.592V92.136H480.144V80.744H481.76V82.28C482.208 81.208 483.104 80.584 484.528 80.584C486.752 80.584 488.144 82.168 488.144 84.872C488.144 87.576 486.752 89.16 484.528 89.16ZM484.144 87.864C485.504 87.864 486.448 86.952 486.448 84.872C486.448 82.808 485.504 81.88 484.144 81.88C482.768 81.88 481.84 82.808 481.84 84.872C481.84 86.952 482.768 87.864 484.144 87.864ZM492.065 89.16C490.145 89.16 489.105 88.2 489.105 86.664C489.105 85.432 489.857 84.456 491.905 84.28L493.505 84.152C494.481 84.056 494.769 83.832 494.769 83.304C494.769 82.36 494.225 81.8 493.025 81.8C491.905 81.8 491.297 82.28 491.217 83.304H489.553C489.553 81.64 490.577 80.584 493.009 80.584C495.425 80.584 496.465 81.64 496.465 83.304V86.888C496.465 88.008 496.561 88.728 496.721 89H495.201C494.945 88.68 494.849 88.344 494.849 87.576C494.401 88.632 493.489 89.16 492.065 89.16ZM492.529 87.992C493.985 87.992 494.769 86.856 494.769 85.496V84.792C494.593 85.016 494.145 85.144 493.505 85.192L492.449 85.288C491.265 85.384 490.801 85.88 490.801 86.552C490.801 87.4 491.313 87.992 492.529 87.992ZM499.762 89H498.066V80.744H499.682V82.648C500.114 81.192 500.85 80.648 502.05 80.648C502.274 80.648 502.594 80.696 502.802 80.744V82.232L501.986 82.2C500.642 82.2 499.762 83.24 499.762 85.08V89ZM506.965 89.08C505.237 89.08 504.629 88.568 504.629 86.888V81.96H503.285V80.744H504.629V78.248H506.325V80.744H508.229V81.96H506.325V86.936C506.325 87.656 506.597 87.864 507.349 87.864L508.229 87.848V89C507.893 89.032 507.301 89.08 506.965 89.08ZM516.481 89H514.785V83.848C514.785 82.6 514.337 81.96 513.169 81.96C511.937 81.96 511.137 82.888 511.137 84.392V89H509.441V80.744H511.057V82.184C511.505 81.224 512.305 80.584 513.681 80.584C515.569 80.584 516.481 81.544 516.481 83.544V89ZM521.841 89.16C519.217 89.16 517.761 87.496 517.761 84.872C517.761 82.328 519.137 80.584 521.745 80.584C524.353 80.584 525.729 82.36 525.729 84.728C525.729 84.888 525.713 85.032 525.697 85.192H519.457C519.505 87.144 520.433 87.992 521.841 87.992C523.009 87.992 523.745 87.384 524.001 86.44H525.553C525.185 88.12 523.985 89.16 521.841 89.16ZM521.745 81.752C520.465 81.752 519.633 82.52 519.457 84.072H524.033C523.857 82.52 523.025 81.752 521.745 81.752ZM528.699 89H527.003V80.744H528.619V82.648C529.051 81.192 529.787 80.648 530.987 80.648C531.211 80.648 531.531 80.696 531.739 80.744V82.232L530.923 82.2C529.579 82.2 528.699 83.24 528.699 85.08V89ZM536.095 89.16C533.503 89.16 532.511 88.024 532.511 86.44H534.143C534.223 87.384 534.639 88.024 536.111 88.024C537.551 88.024 537.983 87.4 537.983 86.696C537.983 86.04 537.503 85.704 536.719 85.592L535.199 85.368C533.471 85.128 532.735 84.52 532.735 83.144C532.735 81.72 533.631 80.584 536.095 80.584C538.559 80.584 539.455 81.72 539.455 83.176H537.823C537.743 82.408 537.487 81.72 536.079 81.72C534.879 81.72 534.431 82.216 534.431 83.016C534.431 83.688 534.815 83.928 535.455 84.024L536.975 84.248C538.655 84.488 539.679 85.096 539.679 86.6C539.679 88.024 538.687 89.16 536.095 89.16ZM541.804 89.112C541.132 89.112 540.748 88.696 540.748 88.168C540.748 87.64 541.132 87.224 541.804 87.224C542.476 87.224 542.844 87.64 542.844 88.168C542.844 88.696 542.476 89.112 541.804 89.112Z" fill="white"/>
</svg>
