<svg width="635" height="109" viewBox="0 0 635 109" fill="none" xmlns="http://www.w3.org/2000/svg">
<circle cx="54.2056" cy="54.2056" r="53.2056" fill="#0F7285" stroke="#1A8395" stroke-width="2"/>
<path fill-rule="evenodd" clip-rule="evenodd" d="M37.3437 57.1359C29.8837 57.1359 23.8374 63.1823 23.8374 70.6423C23.8374 78.1023 29.8837 84.1486 37.3437 84.1486C44.8038 84.1486 50.8501 78.1022 50.8501 70.6423C50.8501 63.1823 44.8037 57.1359 37.3437 57.1359ZM42.7309 67.8909L44.0611 72.8554C44.0949 72.9828 44.0768 73.1184 44.0109 73.2326C43.945 73.3467 43.8366 73.4302 43.7094 73.4647L37.8842 75.0255C37.7568 75.0593 37.6212 75.0413 37.507 74.9753C37.3928 74.9094 37.3094 74.8009 37.2749 74.6737L35.9447 69.7092C35.9109 69.5818 35.929 69.4462 35.9949 69.332C36.0608 69.2178 36.1692 69.1344 36.2964 69.0999L38.2492 68.5766L38.6726 70.1569C38.7049 70.2844 38.7622 70.4043 38.8412 70.5096C38.9202 70.6148 39.0193 70.7033 39.1328 70.7699C39.2463 70.8366 39.3719 70.88 39.5023 70.8977C39.6327 70.9154 39.7654 70.907 39.8925 70.873C40.0196 70.839 40.1388 70.7801 40.243 70.6998C40.3472 70.6194 40.4343 70.5191 40.4995 70.4047C40.5646 70.2904 40.6064 70.1642 40.6224 70.0336C40.6383 69.903 40.6282 69.7705 40.5926 69.6438L40.1688 68.0622L42.1216 67.5389C42.249 67.5052 42.3847 67.5233 42.4989 67.5892C42.613 67.6552 42.6965 67.7637 42.7309 67.8909ZM34.4066 62.0469L35.7152 61.6962L36.0582 62.9763C36.129 63.2279 36.296 63.4415 36.5231 63.5708C36.7501 63.7001 37.019 63.7348 37.2715 63.6673C37.5239 63.5999 37.7396 63.4357 37.8719 63.2103C38.0042 62.985 38.0424 62.7166 37.9783 62.4633L37.635 61.1818L38.9436 60.8312C39.071 60.7974 39.2067 60.8154 39.3208 60.8813C39.435 60.9472 39.5185 61.0557 39.5529 61.1829L40.5818 65.0226C40.6155 65.1501 40.5975 65.2857 40.5316 65.3998C40.4657 65.514 40.3573 65.5974 40.23 65.632L35.6931 66.8476C35.5656 66.8814 35.43 66.8633 35.3159 66.7974C35.2017 66.7315 35.1182 66.6231 35.0837 66.4959L34.0549 62.6562C34.0211 62.5288 34.0391 62.3931 34.105 62.2789C34.1709 62.1648 34.2794 62.0813 34.4066 62.0469ZM46.1563 77.6362L45.2425 77.2788L37.191 79.4361C36.9095 80.1091 36.2449 80.582 35.4698 80.582C34.4398 80.582 33.605 79.7471 33.605 78.7172C33.605 78.3349 33.7202 77.9795 33.9176 77.6836L30.8609 65.874H28.5419C28.278 65.874 28.0249 65.7692 27.8383 65.5826C27.6517 65.396 27.5469 65.1429 27.5469 64.879C27.5469 64.6151 27.6517 64.362 27.8383 64.1754C28.0249 63.9888 28.278 63.8839 28.5419 63.8839L31.6279 63.887C31.8476 63.8871 32.0611 63.9602 32.2348 64.0947C32.4086 64.2292 32.5328 64.4175 32.5879 64.6302L35.757 76.8744C36.1805 76.9403 36.5682 77.1502 36.8549 77.4687L45.0432 75.2753C45.2476 75.2203 45.4642 75.2324 45.6612 75.3097L46.8793 75.7862C47.0008 75.8337 47.1117 75.9047 47.2058 75.995C47.2998 76.0853 47.3752 76.1933 47.4275 76.3128C47.4798 76.4323 47.5081 76.5609 47.5107 76.6913C47.5134 76.8216 47.4903 76.9513 47.4428 77.0728C47.3953 77.1942 47.3244 77.3052 47.2341 77.3992C47.1437 77.4933 47.0357 77.5686 46.9163 77.6209C46.7968 77.6733 46.6682 77.7016 46.5378 77.7042C46.4074 77.7068 46.2778 77.6837 46.1563 77.6362ZM79.1832 68.2414C78.9043 67.07 78.4402 65.9506 77.8086 64.9254L78.7651 62.7719L76.226 60.2329L74.0718 61.1898C73.0468 60.5583 71.9277 60.0944 70.7566 59.8154L69.9104 57.617H66.3199L65.4736 59.8154C64.3025 60.0943 63.1833 60.5583 62.1584 61.1898L60.0041 60.2329L57.4652 62.772L58.4218 64.926C57.7903 65.951 57.3263 67.0702 57.0473 68.2414L54.8491 69.0874V72.6781L57.0469 73.5242C57.3259 74.6956 57.7899 75.815 58.4215 76.8402L57.4651 78.9938L60.0041 81.5328L62.1584 80.5759C63.1834 81.2074 64.3025 81.6714 65.4736 81.9503L66.3199 84.1486H69.9105L70.7564 81.9508C71.9279 81.6719 73.0473 81.2078 74.0725 80.5762L76.2261 81.5327L78.7651 78.9936L77.8082 76.8394C78.4397 75.8144 78.9036 74.6953 79.1826 73.5242L81.381 72.678V69.0873L79.1832 68.2414ZM68.1151 77.1447C64.6564 77.1447 61.8532 74.3415 61.8532 70.8827C61.8532 67.424 64.6564 64.6206 68.1151 64.6206C71.5739 64.6206 74.3771 67.424 74.3771 70.8827C74.3771 74.3415 71.5739 77.1447 68.1151 77.1447ZM68.4189 24.5406V30.6095C68.4191 30.7528 68.4762 30.8901 68.5775 30.9914C68.6788 31.0928 68.8161 31.1498 68.9594 31.15H75.0284C74.9737 31.032 74.8982 30.9247 74.8055 30.8334L68.7355 24.7636C68.6443 24.6708 68.537 24.5952 68.4189 24.5406ZM55.6983 78.0696H50.9469C52.1536 75.8642 52.84 73.3335 52.84 70.6423C52.8412 69.1228 52.6188 67.6114 52.1798 66.1567H55.6098C55.5367 66.3501 55.4681 66.5451 55.404 66.7417L52.8593 67.7211V74.0444L55.4036 75.0237C55.6185 75.6829 55.8844 76.3244 56.199 76.9423L55.6983 78.0696ZM40.0467 51.0835L41.5471 52.5839C41.9681 53.0049 42.6587 52.9632 43.0287 52.5004L45.1649 49.8595C45.2498 49.7582 45.3136 49.6411 45.3527 49.5149C45.3918 49.3887 45.4054 49.2559 45.3927 49.1244C45.38 48.9929 45.3412 48.8653 45.2786 48.7489C45.216 48.6326 45.1309 48.5298 45.0281 48.4467C44.9254 48.3636 44.8072 48.3018 44.6803 48.2649C44.5535 48.228 44.4205 48.2167 44.2893 48.2317C44.158 48.2467 44.031 48.2877 43.9158 48.3523C43.8005 48.4169 43.6993 48.5038 43.618 48.608L42.1723 50.3951L41.4537 49.6764C41.2662 49.4943 41.0145 49.3933 40.7532 49.3952C40.4918 49.3971 40.2417 49.5018 40.0568 49.6867C39.872 49.8715 39.7674 50.1216 39.7655 50.383C39.7636 50.6444 39.8646 50.896 40.0467 51.0835ZM40.0467 39.3268L41.5471 40.8271C41.9681 41.2481 42.6587 41.2064 43.0287 40.7436L45.1649 38.1027C45.3262 37.8971 45.4002 37.6363 45.3708 37.3766C45.3415 37.117 45.2111 36.8793 45.008 36.7149C44.8048 36.5505 44.5452 36.4727 44.2851 36.4981C44.025 36.5236 43.7854 36.6504 43.618 36.8511L42.1723 38.6384L41.4537 37.9197C41.2662 37.7376 41.0145 37.6366 40.7532 37.6386C40.4918 37.6405 40.2417 37.7452 40.0568 37.93C39.872 38.1148 39.7674 38.365 39.7655 38.6263C39.7636 38.8877 39.8646 39.1393 40.0467 39.3268ZM68.9594 33.1399C67.5634 33.1399 66.4289 32.0054 66.4289 30.6094V24.4468H34.8304C34.2348 24.4468 33.7493 24.9325 33.7493 25.5279V55.5659C34.9269 55.2864 36.1332 55.1454 37.3436 55.146C43.59 55.146 48.9725 58.8424 51.4251 64.1666H55.9072L55.0919 62.3308L56.9618 60.4608H51.3296C51.0657 60.4608 50.8126 60.3559 50.626 60.1693C50.4394 59.9827 50.3346 59.7297 50.3346 59.4658C50.3346 59.2019 50.4394 58.9488 50.626 58.7622C50.8126 58.5756 51.0657 58.4707 51.3296 58.4707H58.9519L59.5632 57.8594L60.9395 58.4707H63.1494C63.4209 58.362 63.6959 58.2622 63.9739 58.1717L64.9535 55.6268H71.2767L72.2562 58.1717C72.9151 58.3865 73.5563 58.6524 74.1739 58.9669L75.122 58.5457V33.1399H68.9594ZM46.8864 53.9792C46.8864 54.4706 46.4844 54.8726 45.993 54.8726H39.1488C38.6574 54.8726 38.2554 54.4706 38.2554 53.9792V47.135C38.2554 46.6435 38.6574 46.2416 39.1488 46.2416H45.993C46.4844 46.2416 46.8864 46.6435 46.8864 47.135V53.9792ZM46.8864 42.2224C46.8864 42.7137 46.4844 43.1158 45.993 43.1158H39.1488C38.6574 43.1158 38.2554 42.7138 38.2554 42.2224V35.3782C38.2554 34.8868 38.6574 34.4848 39.1488 34.4848H45.993C46.4844 34.4848 46.8864 34.8868 46.8864 35.3782V42.2224ZM70.3829 54.4001H51.3297C51.0658 54.4001 50.8127 54.2952 50.6261 54.1086C50.4395 53.922 50.3347 53.6689 50.3347 53.405C50.3347 53.1411 50.4395 52.888 50.6261 52.7014C50.8127 52.5148 51.0658 52.41 51.3297 52.41H70.3829C70.6468 52.41 70.8999 52.5148 71.0865 52.7014C71.2731 52.888 71.378 53.1411 71.378 53.405C71.378 53.6689 71.2731 53.922 71.0865 54.1086C70.8999 54.2952 70.6468 54.4001 70.3829 54.4001ZM70.3829 48.7041H51.3297C51.0658 48.7041 50.8127 48.5993 50.6261 48.4127C50.4395 48.2261 50.3347 47.973 50.3347 47.7091C50.3347 47.4452 50.4395 47.1921 50.6261 47.0055C50.8127 46.8189 51.0658 46.7141 51.3297 46.7141H70.3829C70.6468 46.7141 70.8999 46.8189 71.0865 47.0055C71.2731 47.1921 71.378 47.4452 71.378 47.7091C71.378 47.973 71.2731 48.2261 71.0865 48.4127C70.8999 48.5993 70.6468 48.7041 70.3829 48.7041ZM70.3829 42.6433H51.3297C51.0658 42.6433 50.8127 42.5384 50.6261 42.3518C50.4395 42.1652 50.3347 41.9121 50.3347 41.6482C50.3347 41.3843 50.4395 41.1313 50.6261 40.9446C50.8127 40.758 51.0658 40.6532 51.3297 40.6532H70.3829C70.6468 40.6532 70.8999 40.758 71.0865 40.9446C71.2731 41.1313 71.378 41.3843 71.378 41.6482C71.378 41.9121 71.2731 42.1652 71.0865 42.3518C70.8999 42.5384 70.6468 42.6433 70.3829 42.6433ZM70.3829 36.9475H51.3297C51.0658 36.9475 50.8127 36.8426 50.6261 36.656C50.4395 36.4694 50.3347 36.2163 50.3347 35.9524C50.3347 35.6885 50.4395 35.4354 50.6261 35.2488C50.8127 35.0622 51.0658 34.9574 51.3297 34.9574H70.3829C70.6468 34.9574 70.8999 35.0622 71.0865 35.2488C71.2731 35.4354 71.378 35.6885 71.378 35.9524C71.378 36.2163 71.2731 36.4694 71.0865 36.656C70.8999 36.8426 70.6468 36.9475 70.3829 36.9475Z" fill="white"/>
<path d="M152.917 25H150.264L148.834 21.2169H141.314L139.86 25H137.231L143.505 8.57593H146.642L152.917 25ZM148.188 19.2331L145.074 10.9519L141.96 19.2331H148.188ZM157.891 25.2307C155.169 25.2307 153.855 23.8466 153.855 20.9632V13.0972H156.3V20.5249C156.3 22.3242 156.946 23.2469 158.63 23.2469C160.406 23.2469 161.559 21.909 161.559 19.7406V13.0972H164.004V25H161.674V22.947C161.006 24.308 159.875 25.2307 157.891 25.2307ZM170.695 25.1153C168.203 25.1153 167.327 24.3772 167.327 21.9551V14.8503H165.389V13.0972H167.327V9.49863H169.772V13.0972H172.517V14.8503H169.772V22.0243C169.772 23.0623 170.164 23.3622 171.248 23.3622L172.517 23.3391V25C172.033 25.0461 171.179 25.1153 170.695 25.1153ZM179.077 25.2307C175.294 25.2307 173.194 22.8317 173.194 19.0486C173.194 15.2655 175.294 12.8665 179.077 12.8665C182.86 12.8665 184.959 15.2655 184.959 19.0486C184.959 22.8317 182.86 25.2307 179.077 25.2307ZM179.077 23.3622C181.268 23.3622 182.514 21.932 182.514 19.0486C182.514 16.1882 181.268 14.735 179.077 14.735C176.885 14.735 175.64 16.1882 175.64 19.0486C175.64 21.932 176.885 23.3622 179.077 23.3622ZM202.774 25H200.421V17.5031C200.421 15.7038 199.845 14.8503 198.484 14.8503C197.053 14.8503 195.946 16.119 195.946 18.2874V25H193.593V17.5031C193.593 15.7038 193.017 14.8503 191.679 14.8503C190.248 14.8503 189.164 16.119 189.164 18.2874V25H186.811V13.0972H189.141V15.1732C189.695 13.7892 190.802 12.8665 192.44 12.8665C194.216 12.8665 195.277 13.6739 195.715 15.2655C196.315 13.7431 197.561 12.8665 199.199 12.8665C201.598 12.8665 202.774 14.2505 202.774 17.134V25ZM208.887 25.2307C206.119 25.2307 204.619 23.8466 204.619 21.6321C204.619 19.8559 205.704 18.4488 208.656 18.1951L210.963 18.0105C212.37 17.8721 212.785 17.5492 212.785 16.788C212.785 15.427 212.001 14.6196 210.271 14.6196C208.656 14.6196 207.78 15.3116 207.664 16.788H205.265C205.265 14.3889 206.742 12.8665 210.248 12.8665C213.731 12.8665 215.23 14.3889 215.23 16.788V21.9551C215.23 23.5698 215.369 24.6079 215.599 25H213.408C213.039 24.5386 212.901 24.0542 212.901 22.947C212.255 24.4694 210.94 25.2307 208.887 25.2307ZM209.556 23.5467C211.655 23.5467 212.785 21.909 212.785 19.9482V18.9332C212.531 19.2562 211.886 19.4407 210.963 19.5099L209.44 19.6483C207.733 19.7867 207.064 20.5018 207.064 21.4707C207.064 22.6932 207.803 23.5467 209.556 23.5467ZM221.696 25.1153C219.204 25.1153 218.328 24.3772 218.328 21.9551V14.8503H216.39V13.0972H218.328V9.49863H220.773V13.0972H223.518V14.8503H220.773V22.0243C220.773 23.0623 221.165 23.3622 222.249 23.3622L223.518 23.3391V25C223.034 25.0461 222.18 25.1153 221.696 25.1153ZM230.077 25.2307C226.294 25.2307 224.195 22.8317 224.195 19.0486C224.195 15.3808 226.179 12.8665 229.939 12.8665C233.699 12.8665 235.683 15.427 235.683 18.841C235.683 19.0716 235.66 19.2793 235.637 19.5099H226.64C226.71 22.3242 228.047 23.5467 230.077 23.5467C231.761 23.5467 232.822 22.6702 233.192 21.3092H235.429C234.899 23.7313 233.168 25.2307 230.077 25.2307ZM229.939 14.5504C228.094 14.5504 226.894 15.6577 226.64 17.8952H233.238C232.984 15.6577 231.784 14.5504 229.939 14.5504ZM242.248 25.2307C239.042 25.2307 237.058 22.947 237.058 19.0486C237.058 15.1502 239.042 12.8665 242.248 12.8665C244.163 12.8665 245.478 13.6508 246.147 15.1271V8.57593H248.592V25H246.262V22.8086C245.593 24.331 244.324 25.2307 242.248 25.2307ZM242.825 23.3622C244.786 23.3622 246.147 22.0474 246.147 19.0486C246.147 16.0729 244.786 14.735 242.825 14.735C240.841 14.735 239.503 16.0729 239.503 19.0486C239.503 22.0474 240.841 23.3622 242.825 23.3622ZM275.329 13.72C275.329 17.0648 273.114 18.841 269.608 18.841H265.156V25H262.596V8.57593H269.608C273.114 8.57593 275.329 10.3752 275.329 13.72ZM272.768 13.72C272.768 11.5747 271.546 10.5136 269.262 10.5136H265.156V16.9033H269.262C271.546 16.9033 272.768 15.8653 272.768 13.72ZM281.203 25.2307C278.482 25.2307 277.167 23.8466 277.167 20.9632V13.0972H279.612V20.5249C279.612 22.3242 280.258 23.2469 281.942 23.2469C283.718 23.2469 284.871 21.909 284.871 19.7406V13.0972H287.316V25H284.987V22.947C284.318 24.308 283.187 25.2307 281.203 25.2307ZM292.069 25H289.624V13.0972H291.954V15.8422C292.577 13.7431 293.638 12.9588 295.368 12.9588C295.691 12.9588 296.152 13.028 296.452 13.0972V15.2424L295.276 15.1963C293.338 15.1963 292.069 16.6957 292.069 19.3485V25ZM302.859 25.2307C299.191 25.2307 297.092 22.8317 297.092 19.0486C297.092 15.2655 299.191 12.8665 302.859 12.8665C306.619 12.8665 308.257 15.2655 308.257 17.48H305.996C305.766 16.0037 304.889 14.735 302.859 14.735C300.783 14.735 299.537 16.1882 299.537 19.0486C299.537 21.932 300.783 23.3622 302.859 23.3622C304.635 23.3622 305.742 22.4164 305.996 20.5249H308.257C308.257 22.9701 306.481 25.2307 302.859 25.2307ZM320.025 25H317.58V17.5723C317.58 15.773 316.934 14.8503 315.25 14.8503C313.474 14.8503 312.321 16.1882 312.321 18.3566V25H309.876V8.57593H312.321V14.9887C312.967 13.6969 314.097 12.8665 315.989 12.8665C318.711 12.8665 320.025 14.2505 320.025 17.134V25ZM326.139 25.2307C323.371 25.2307 321.872 23.8466 321.872 21.6321C321.872 19.8559 322.956 18.4488 325.908 18.1951L328.215 18.0105C329.622 17.8721 330.038 17.5492 330.038 16.788C330.038 15.427 329.253 14.6196 327.523 14.6196C325.908 14.6196 325.032 15.3116 324.917 16.788H322.518C322.518 14.3889 323.994 12.8665 327.5 12.8665C330.983 12.8665 332.483 14.3889 332.483 16.788V21.9551C332.483 23.5698 332.621 24.6079 332.852 25H330.66C330.291 24.5386 330.153 24.0542 330.153 22.947C329.507 24.4694 328.192 25.2307 326.139 25.2307ZM326.808 23.5467C328.907 23.5467 330.038 21.909 330.038 19.9482V18.9332C329.784 19.2562 329.138 19.4407 328.215 19.5099L326.693 19.6483C324.986 19.7867 324.317 20.5018 324.317 21.4707C324.317 22.6932 325.055 23.5467 326.808 23.5467ZM339.496 25.2307C335.759 25.2307 334.329 23.5929 334.329 21.3092H336.682C336.797 22.6702 337.397 23.5929 339.519 23.5929C341.595 23.5929 342.218 22.6932 342.218 21.6783C342.218 20.7325 341.526 20.2481 340.396 20.0866L338.204 19.7637C335.713 19.4177 334.652 18.5411 334.652 16.5573C334.652 14.5043 335.944 12.8665 339.496 12.8665C343.049 12.8665 344.34 14.5043 344.34 16.6034H341.987C341.872 15.4962 341.503 14.5043 339.473 14.5043C337.743 14.5043 337.097 15.2194 337.097 16.3728C337.097 17.3416 337.651 17.6876 338.573 17.826L340.765 18.1489C343.187 18.495 344.663 19.3715 344.663 21.5399C344.663 23.5929 343.233 25.2307 339.496 25.2307ZM351.925 25.2307C348.142 25.2307 346.043 22.8317 346.043 19.0486C346.043 15.3808 348.027 12.8665 351.787 12.8665C355.547 12.8665 357.531 15.427 357.531 18.841C357.531 19.0716 357.508 19.2793 357.484 19.5099H348.488C348.557 22.3242 349.895 23.5467 351.925 23.5467C353.609 23.5467 354.67 22.6702 355.039 21.3092H357.277C356.746 23.7313 355.016 25.2307 351.925 25.2307ZM351.787 14.5504C349.941 14.5504 348.742 15.6577 348.488 17.8952H355.085C354.832 15.6577 353.632 14.5504 351.787 14.5504ZM372.654 25.2307C367.464 25.2307 364.673 21.7936 364.673 16.788C364.673 11.7823 367.464 8.34526 372.654 8.34526C377.844 8.34526 380.635 11.7823 380.635 16.788C380.635 21.7936 377.844 25.2307 372.654 25.2307ZM372.654 23.1315C376.23 23.1315 378.075 20.8478 378.075 16.788C378.075 12.7281 376.23 10.4444 372.654 10.4444C369.079 10.4444 367.233 12.7281 367.233 16.788C367.233 20.8478 369.079 23.1315 372.654 23.1315ZM384.925 25H382.48V13.0972H384.81V15.8422C385.432 13.7431 386.494 12.9588 388.224 12.9588C388.547 12.9588 389.008 13.028 389.308 13.0972V15.2424L388.131 15.1963C386.194 15.1963 384.925 16.6957 384.925 19.3485V25ZM395.138 25.2307C391.932 25.2307 389.948 22.947 389.948 19.0486C389.948 15.1502 391.932 12.8665 395.138 12.8665C397.053 12.8665 398.368 13.6508 399.036 15.1271V8.57593H401.482V25H399.152V22.8086C398.483 24.331 397.214 25.2307 395.138 25.2307ZM395.715 23.3622C397.675 23.3622 399.036 22.0474 399.036 19.0486C399.036 16.0729 397.675 14.735 395.715 14.735C393.731 14.735 392.393 16.0729 392.393 19.0486C392.393 22.0474 393.731 23.3622 395.715 23.3622ZM409.211 25.2307C405.428 25.2307 403.329 22.8317 403.329 19.0486C403.329 15.3808 405.313 12.8665 409.073 12.8665C412.833 12.8665 414.816 15.427 414.816 18.841C414.816 19.0716 414.793 19.2793 414.77 19.5099H405.774C405.843 22.3242 407.181 23.5467 409.211 23.5467C410.895 23.5467 411.956 22.6702 412.325 21.3092H414.563C414.032 23.7313 412.302 25.2307 409.211 25.2307ZM409.073 14.5504C407.227 14.5504 406.028 15.6577 405.774 17.8952H412.371C412.118 15.6577 410.918 14.5504 409.073 14.5504ZM419.098 25H416.653V13.0972H418.983V15.8422C419.606 13.7431 420.667 12.9588 422.397 12.9588C422.72 12.9588 423.181 13.028 423.481 13.0972V15.2424L422.305 15.1963C420.367 15.1963 419.098 16.6957 419.098 19.3485V25ZM429.761 25.2307C426.024 25.2307 424.594 23.5929 424.594 21.3092H426.947C427.062 22.6702 427.662 23.5929 429.784 23.5929C431.86 23.5929 432.483 22.6932 432.483 21.6783C432.483 20.7325 431.791 20.2481 430.661 20.0866L428.47 19.7637C425.978 19.4177 424.917 18.5411 424.917 16.5573C424.917 14.5043 426.209 12.8665 429.761 12.8665C433.314 12.8665 434.605 14.5043 434.605 16.6034H432.253C432.137 15.4962 431.768 14.5043 429.738 14.5043C428.008 14.5043 427.362 15.2194 427.362 16.3728C427.362 17.3416 427.916 17.6876 428.839 17.826L431.03 18.1489C433.452 18.495 434.928 19.3715 434.928 21.5399C434.928 23.5929 433.498 25.2307 429.761 25.2307Z" fill="white"/>
<path d="M142.04 57.16C138.952 57.16 137.48 55.816 137.48 53.384H139.192C139.368 55.032 140.088 55.816 142.072 55.816C144.024 55.816 144.824 55 144.824 53.736C144.824 52.904 144.36 52.312 142.552 52.056L140.968 51.816C138.616 51.48 137.768 50.632 137.768 48.904C137.768 46.872 139.16 45.448 142.04 45.448C144.92 45.448 146.312 46.84 146.312 49.064H144.648C144.472 47.56 143.72 46.792 141.992 46.792C140.296 46.792 139.544 47.592 139.544 48.808C139.544 49.672 139.944 50.136 141.544 50.36L143.128 50.6C145.384 50.92 146.6 51.784 146.6 53.624C146.6 55.784 145.128 57.16 142.04 57.16ZM147.99 60.136V58.92H148.726C149.83 58.92 150.47 58.216 150.47 57.464C150.47 57.304 150.438 57.128 150.374 56.968L147.238 48.744H148.998L151.382 55.64L153.782 48.744H155.558L152.39 56.968C151.446 59.4 150.502 60.136 148.71 60.136H147.99ZM159.33 57.16C156.738 57.16 155.746 56.024 155.746 54.44H157.378C157.458 55.384 157.874 56.024 159.346 56.024C160.786 56.024 161.218 55.4 161.218 54.696C161.218 54.04 160.738 53.704 159.954 53.592L158.434 53.368C156.706 53.128 155.97 52.52 155.97 51.144C155.97 49.72 156.866 48.584 159.33 48.584C161.794 48.584 162.69 49.72 162.69 51.176H161.058C160.978 50.408 160.722 49.72 159.314 49.72C158.114 49.72 157.666 50.216 157.666 51.016C157.666 51.688 158.05 51.928 158.69 52.024L160.21 52.248C161.89 52.488 162.914 53.096 162.914 54.6C162.914 56.024 161.922 57.16 159.33 57.16ZM167.074 57.08C165.346 57.08 164.738 56.568 164.738 54.888V49.96H163.394V48.744H164.738V46.248H166.434V48.744H168.338V49.96H166.434V54.936C166.434 55.656 166.706 55.864 167.458 55.864L168.338 55.848V57C168.002 57.032 167.41 57.08 167.074 57.08ZM172.888 57.16C170.264 57.16 168.808 55.496 168.808 52.872C168.808 50.328 170.184 48.584 172.792 48.584C175.4 48.584 176.776 50.36 176.776 52.728C176.776 52.888 176.76 53.032 176.744 53.192H170.504C170.552 55.144 171.48 55.992 172.888 55.992C174.056 55.992 174.792 55.384 175.048 54.44H176.6C176.232 56.12 175.032 57.16 172.888 57.16ZM172.792 49.752C171.512 49.752 170.68 50.52 170.504 52.072H175.08C174.904 50.52 174.072 49.752 172.792 49.752ZM189.122 57H187.49V51.8C187.49 50.552 187.09 49.96 186.146 49.96C185.154 49.96 184.386 50.84 184.386 52.344V57H182.754V51.8C182.754 50.552 182.354 49.96 181.426 49.96C180.434 49.96 179.682 50.84 179.682 52.344V57H178.05V48.744H179.666V50.184C180.05 49.224 180.818 48.584 181.954 48.584C183.186 48.584 183.922 49.144 184.226 50.248C184.642 49.192 185.506 48.584 186.642 48.584C188.306 48.584 189.122 49.544 189.122 51.544V57ZM197.362 57.16C195.442 57.16 194.402 56.2 194.402 54.664C194.402 53.432 195.154 52.456 197.202 52.28L198.802 52.152C199.778 52.056 200.066 51.832 200.066 51.304C200.066 50.36 199.522 49.8 198.322 49.8C197.202 49.8 196.594 50.28 196.514 51.304H194.85C194.85 49.64 195.874 48.584 198.306 48.584C200.722 48.584 201.762 49.64 201.762 51.304V54.888C201.762 56.008 201.858 56.728 202.018 57H200.498C200.242 56.68 200.146 56.344 200.146 55.576C199.698 56.632 198.786 57.16 197.362 57.16ZM197.826 55.992C199.282 55.992 200.066 54.856 200.066 53.496V52.792C199.89 53.016 199.442 53.144 198.802 53.192L197.746 53.288C196.562 53.384 196.098 53.88 196.098 54.552C196.098 55.4 196.61 55.992 197.826 55.992ZM206.163 57.16C204.275 57.16 203.363 56.2 203.363 54.2V48.744H205.059V53.896C205.059 55.144 205.507 55.784 206.674 55.784C207.907 55.784 208.707 54.856 208.707 53.352V48.744H210.403V57H208.787V55.576C208.323 56.52 207.539 57.16 206.163 57.16ZM215.043 57.08C213.315 57.08 212.707 56.568 212.707 54.888V49.96H211.363V48.744H212.707V46.248H214.403V48.744H216.307V49.96H214.403V54.936C214.403 55.656 214.675 55.864 215.427 55.864L216.307 55.848V57C215.971 57.032 215.379 57.08 215.043 57.08ZM220.857 57.16C218.233 57.16 216.777 55.496 216.777 52.872C216.777 50.248 218.233 48.584 220.857 48.584C223.481 48.584 224.937 50.248 224.937 52.872C224.937 55.496 223.481 57.16 220.857 57.16ZM220.857 55.864C222.377 55.864 223.241 54.872 223.241 52.872C223.241 50.888 222.377 49.88 220.857 49.88C219.337 49.88 218.473 50.888 218.473 52.872C218.473 54.872 219.337 55.864 220.857 55.864ZM237.294 57H235.662V51.8C235.662 50.552 235.262 49.96 234.318 49.96C233.326 49.96 232.558 50.84 232.558 52.344V57H230.926V51.8C230.926 50.552 230.526 49.96 229.598 49.96C228.606 49.96 227.854 50.84 227.854 52.344V57H226.222V48.744H227.838V50.184C228.222 49.224 228.99 48.584 230.126 48.584C231.358 48.584 232.094 49.144 232.398 50.248C232.814 49.192 233.678 48.584 234.814 48.584C236.478 48.584 237.294 49.544 237.294 51.544V57ZM241.534 57.16C239.614 57.16 238.574 56.2 238.574 54.664C238.574 53.432 239.326 52.456 241.374 52.28L242.974 52.152C243.95 52.056 244.238 51.832 244.238 51.304C244.238 50.36 243.694 49.8 242.494 49.8C241.374 49.8 240.766 50.28 240.686 51.304H239.022C239.022 49.64 240.046 48.584 242.478 48.584C244.894 48.584 245.934 49.64 245.934 51.304V54.888C245.934 56.008 246.03 56.728 246.19 57H244.67C244.414 56.68 244.318 56.344 244.318 55.576C243.87 56.632 242.958 57.16 241.534 57.16ZM241.998 55.992C243.454 55.992 244.238 54.856 244.238 53.496V52.792C244.062 53.016 243.614 53.144 242.974 53.192L241.918 53.288C240.734 53.384 240.27 53.88 240.27 54.552C240.27 55.4 240.782 55.992 241.998 55.992ZM250.418 57.08C248.69 57.08 248.082 56.568 248.082 54.888V49.96H246.738V48.744H248.082V46.248H249.778V48.744H251.682V49.96H249.778V54.936C249.778 55.656 250.05 55.864 250.802 55.864L251.682 55.848V57C251.346 57.032 250.754 57.08 250.418 57.08ZM254.59 57H252.894V48.744H254.59V57ZM253.742 47.304C253.086 47.304 252.734 46.92 252.734 46.408C252.734 45.896 253.086 45.496 253.742 45.496C254.382 45.496 254.75 45.896 254.75 46.408C254.75 46.92 254.382 47.304 253.742 47.304ZM259.871 57.16C257.327 57.16 255.871 55.496 255.871 52.872C255.871 50.248 257.327 48.584 259.871 48.584C262.479 48.584 263.615 50.248 263.615 51.784H262.047C261.887 50.76 261.279 49.88 259.871 49.88C258.431 49.88 257.567 50.888 257.567 52.872C257.567 54.872 258.431 55.864 259.871 55.864C261.103 55.864 261.871 55.208 262.047 53.896H263.615C263.615 55.592 262.383 57.16 259.871 57.16ZM267.378 57.16C265.458 57.16 264.418 56.2 264.418 54.664C264.418 53.432 265.17 52.456 267.218 52.28L268.818 52.152C269.794 52.056 270.082 51.832 270.082 51.304C270.082 50.36 269.538 49.8 268.338 49.8C267.218 49.8 266.61 50.28 266.53 51.304H264.866C264.866 49.64 265.89 48.584 268.322 48.584C270.738 48.584 271.778 49.64 271.778 51.304V54.888C271.778 56.008 271.874 56.728 272.034 57H270.514C270.258 56.68 270.162 56.344 270.162 55.576C269.714 56.632 268.802 57.16 267.378 57.16ZM267.842 55.992C269.298 55.992 270.082 54.856 270.082 53.496V52.792C269.906 53.016 269.458 53.144 268.818 53.192L267.762 53.288C266.578 53.384 266.114 53.88 266.114 54.552C266.114 55.4 266.626 55.992 267.842 55.992ZM275.074 57H273.378V45.608H275.074V57ZM278.371 57H276.675V45.608H278.371V57ZM280.084 60.136V58.92H280.82C281.924 58.92 282.564 58.216 282.564 57.464C282.564 57.304 282.532 57.128 282.468 56.968L279.332 48.744H281.092L283.476 55.64L285.876 48.744H287.652L284.484 56.968C283.54 59.4 282.596 60.136 280.804 60.136H280.084ZM299.893 56.68C297.669 56.68 296.293 55.048 296.293 52.632C296.293 50.216 297.669 48.584 299.893 48.584C301.333 48.584 302.213 49.208 302.677 50.28V48.744H304.293V56.392C304.293 58.952 302.917 60.296 300.341 60.296C297.941 60.296 296.741 59.128 296.741 57.384H298.325C298.437 58.536 299.173 59.16 300.421 59.16C301.797 59.16 302.597 58.424 302.597 56.824V55.112C302.133 56.136 301.221 56.68 299.893 56.68ZM300.293 55.464C301.653 55.464 302.597 54.504 302.597 52.632C302.597 50.776 301.653 49.8 300.293 49.8C298.917 49.8 297.989 50.776 297.989 52.632C297.989 54.504 298.917 55.464 300.293 55.464ZM309.654 57.16C307.03 57.16 305.574 55.496 305.574 52.872C305.574 50.328 306.95 48.584 309.558 48.584C312.166 48.584 313.542 50.36 313.542 52.728C313.542 52.888 313.526 53.032 313.51 53.192H307.27C307.318 55.144 308.246 55.992 309.654 55.992C310.822 55.992 311.558 55.384 311.814 54.44H313.366C312.998 56.12 311.798 57.16 309.654 57.16ZM309.558 49.752C308.278 49.752 307.446 50.52 307.27 52.072H311.846C311.67 50.52 310.838 49.752 309.558 49.752ZM321.856 57H320.16V51.848C320.16 50.6 319.712 49.96 318.544 49.96C317.312 49.96 316.512 50.888 316.512 52.392V57H314.816V48.744H316.432V50.184C316.88 49.224 317.68 48.584 319.056 48.584C320.944 48.584 321.856 49.544 321.856 51.544V57ZM327.216 57.16C324.592 57.16 323.136 55.496 323.136 52.872C323.136 50.328 324.512 48.584 327.12 48.584C329.728 48.584 331.104 50.36 331.104 52.728C331.104 52.888 331.088 53.032 331.072 53.192H324.832C324.88 55.144 325.808 55.992 327.216 55.992C328.384 55.992 329.12 55.384 329.376 54.44H330.928C330.56 56.12 329.36 57.16 327.216 57.16ZM327.12 49.752C325.84 49.752 325.008 50.52 324.832 52.072H329.408C329.232 50.52 328.4 49.752 327.12 49.752ZM334.074 57H332.378V48.744H333.994V50.648C334.426 49.192 335.162 48.648 336.362 48.648C336.586 48.648 336.906 48.696 337.114 48.744V50.232L336.298 50.2C334.954 50.2 334.074 51.24 334.074 53.08V57ZM340.487 57.16C338.567 57.16 337.527 56.2 337.527 54.664C337.527 53.432 338.279 52.456 340.327 52.28L341.927 52.152C342.903 52.056 343.191 51.832 343.191 51.304C343.191 50.36 342.647 49.8 341.447 49.8C340.327 49.8 339.719 50.28 339.639 51.304H337.975C337.975 49.64 338.999 48.584 341.431 48.584C343.847 48.584 344.887 49.64 344.887 51.304V54.888C344.887 56.008 344.983 56.728 345.143 57H343.623C343.367 56.68 343.271 56.344 343.271 55.576C342.823 56.632 341.911 57.16 340.487 57.16ZM340.951 55.992C342.407 55.992 343.191 54.856 343.191 53.496V52.792C343.015 53.016 342.567 53.144 341.927 53.192L340.871 53.288C339.687 53.384 339.223 53.88 339.223 54.552C339.223 55.4 339.735 55.992 340.951 55.992ZM349.371 57.08C347.643 57.08 347.035 56.568 347.035 54.888V49.96H345.691V48.744H347.035V46.248H348.731V48.744H350.635V49.96H348.731V54.936C348.731 55.656 349.003 55.864 349.755 55.864L350.635 55.848V57C350.299 57.032 349.707 57.08 349.371 57.08ZM355.185 57.16C352.561 57.16 351.105 55.496 351.105 52.872C351.105 50.328 352.481 48.584 355.089 48.584C357.697 48.584 359.073 50.36 359.073 52.728C359.073 52.888 359.057 53.032 359.041 53.192H352.801C352.849 55.144 353.777 55.992 355.185 55.992C356.353 55.992 357.089 55.384 357.345 54.44H358.897C358.529 56.12 357.329 57.16 355.185 57.16ZM355.089 49.752C353.809 49.752 352.977 50.52 352.801 52.072H357.377C357.201 50.52 356.369 49.752 355.089 49.752ZM363.611 57.16C361.019 57.16 360.027 56.024 360.027 54.44H361.659C361.739 55.384 362.155 56.024 363.627 56.024C365.067 56.024 365.499 55.4 365.499 54.696C365.499 54.04 365.019 53.704 364.235 53.592L362.715 53.368C360.987 53.128 360.251 52.52 360.251 51.144C360.251 49.72 361.147 48.584 363.611 48.584C366.075 48.584 366.971 49.72 366.971 51.176H365.339C365.259 50.408 365.003 49.72 363.595 49.72C362.395 49.72 361.947 50.216 361.947 51.016C361.947 51.688 362.331 51.928 362.971 52.024L364.491 52.248C366.171 52.488 367.195 53.096 367.195 54.6C367.195 56.024 366.203 57.16 363.611 57.16ZM376.856 57.16C375.528 57.16 374.632 56.616 374.168 55.592V60.136H372.472V48.744H374.088V50.28C374.536 49.208 375.432 48.584 376.856 48.584C379.08 48.584 380.472 50.168 380.472 52.872C380.472 55.576 379.08 57.16 376.856 57.16ZM376.472 55.864C377.832 55.864 378.776 54.952 378.776 52.872C378.776 50.808 377.832 49.88 376.472 49.88C375.096 49.88 374.168 50.808 374.168 52.872C374.168 54.952 375.096 55.864 376.472 55.864ZM384.553 57.16C382.665 57.16 381.753 56.2 381.753 54.2V48.744H383.449V53.896C383.449 55.144 383.897 55.784 385.065 55.784C386.297 55.784 387.097 54.856 387.097 53.352V48.744H388.793V57H387.177V55.576C386.713 56.52 385.929 57.16 384.553 57.16ZM392.09 57H390.394V48.744H392.01V50.648C392.442 49.192 393.178 48.648 394.378 48.648C394.602 48.648 394.922 48.696 395.13 48.744V50.232L394.314 50.2C392.97 50.2 392.09 51.24 392.09 53.08V57ZM399.574 57.16C397.03 57.16 395.574 55.496 395.574 52.872C395.574 50.248 397.03 48.584 399.574 48.584C402.182 48.584 403.318 50.248 403.318 51.784H401.75C401.59 50.76 400.982 49.88 399.574 49.88C398.134 49.88 397.27 50.888 397.27 52.872C397.27 54.872 398.134 55.864 399.574 55.864C400.806 55.864 401.574 55.208 401.75 53.896H403.318C403.318 55.592 402.086 57.16 399.574 57.16ZM411.481 57H409.785V51.848C409.785 50.6 409.337 49.96 408.169 49.96C406.937 49.96 406.137 50.888 406.137 52.392V57H404.441V45.608H406.137V50.056C406.585 49.16 407.369 48.584 408.681 48.584C410.569 48.584 411.481 49.544 411.481 51.544V57ZM415.721 57.16C413.801 57.16 412.761 56.2 412.761 54.664C412.761 53.432 413.513 52.456 415.561 52.28L417.161 52.152C418.137 52.056 418.425 51.832 418.425 51.304C418.425 50.36 417.881 49.8 416.681 49.8C415.561 49.8 414.953 50.28 414.873 51.304H413.209C413.209 49.64 414.233 48.584 416.665 48.584C419.081 48.584 420.121 49.64 420.121 51.304V54.888C420.121 56.008 420.217 56.728 420.377 57H418.857C418.601 56.68 418.505 56.344 418.505 55.576C418.057 56.632 417.145 57.16 415.721 57.16ZM416.185 55.992C417.641 55.992 418.425 54.856 418.425 53.496V52.792C418.249 53.016 417.801 53.144 417.161 53.192L416.105 53.288C414.921 53.384 414.457 53.88 414.457 54.552C414.457 55.4 414.969 55.992 416.185 55.992ZM424.986 57.16C422.394 57.16 421.402 56.024 421.402 54.44H423.034C423.114 55.384 423.53 56.024 425.002 56.024C426.442 56.024 426.874 55.4 426.874 54.696C426.874 54.04 426.394 53.704 425.61 53.592L424.09 53.368C422.362 53.128 421.626 52.52 421.626 51.144C421.626 49.72 422.522 48.584 424.986 48.584C427.45 48.584 428.346 49.72 428.346 51.176H426.714C426.634 50.408 426.378 49.72 424.97 49.72C423.77 49.72 423.322 50.216 423.322 51.016C423.322 51.688 423.706 51.928 424.346 52.024L425.866 52.248C427.546 52.488 428.57 53.096 428.57 54.6C428.57 56.024 427.578 57.16 424.986 57.16ZM433.607 57.16C430.983 57.16 429.527 55.496 429.527 52.872C429.527 50.328 430.903 48.584 433.511 48.584C436.119 48.584 437.495 50.36 437.495 52.728C437.495 52.888 437.479 53.032 437.463 53.192H431.223C431.271 55.144 432.199 55.992 433.607 55.992C434.775 55.992 435.511 55.384 435.767 54.44H437.319C436.951 56.12 435.751 57.16 433.607 57.16ZM433.511 49.752C432.231 49.752 431.399 50.52 431.223 52.072H435.799C435.623 50.52 434.791 49.752 433.511 49.752ZM450.529 57.16C447.905 57.16 446.449 55.496 446.449 52.872C446.449 50.248 447.905 48.584 450.529 48.584C453.153 48.584 454.609 50.248 454.609 52.872C454.609 55.496 453.153 57.16 450.529 57.16ZM450.529 55.864C452.049 55.864 452.913 54.872 452.913 52.872C452.913 50.888 452.049 49.88 450.529 49.88C449.009 49.88 448.145 50.888 448.145 52.872C448.145 54.872 449.009 55.864 450.529 55.864ZM457.59 57H455.894V48.744H457.51V50.648C457.942 49.192 458.678 48.648 459.878 48.648C460.102 48.648 460.422 48.696 460.63 48.744V50.232L459.814 50.2C458.47 50.2 457.59 51.24 457.59 53.08V57ZM464.674 57.16C462.45 57.16 461.074 55.576 461.074 52.872C461.074 50.168 462.45 48.584 464.674 48.584C466.002 48.584 466.914 49.128 467.378 50.152V45.608H469.074V57H467.458V55.48C466.994 56.536 466.114 57.16 464.674 57.16ZM465.074 55.864C466.434 55.864 467.378 54.952 467.378 52.872C467.378 50.808 466.434 49.88 465.074 49.88C463.698 49.88 462.77 50.808 462.77 52.872C462.77 54.952 463.698 55.864 465.074 55.864ZM474.435 57.16C471.811 57.16 470.355 55.496 470.355 52.872C470.355 50.328 471.731 48.584 474.339 48.584C476.947 48.584 478.323 50.36 478.323 52.728C478.323 52.888 478.307 53.032 478.291 53.192H472.051C472.099 55.144 473.027 55.992 474.435 55.992C475.603 55.992 476.339 55.384 476.595 54.44H478.147C477.779 56.12 476.579 57.16 474.435 57.16ZM474.339 49.752C473.059 49.752 472.227 50.52 472.051 52.072H476.627C476.451 50.52 475.619 49.752 474.339 49.752ZM481.293 57H479.597V48.744H481.213V50.648C481.645 49.192 482.381 48.648 483.581 48.648C483.805 48.648 484.125 48.696 484.333 48.744V50.232L483.517 50.2C482.173 50.2 481.293 51.24 481.293 53.08V57ZM488.689 57.16C486.097 57.16 485.105 56.024 485.105 54.44H486.737C486.817 55.384 487.233 56.024 488.705 56.024C490.145 56.024 490.577 55.4 490.577 54.696C490.577 54.04 490.097 53.704 489.313 53.592L487.793 53.368C486.065 53.128 485.329 52.52 485.329 51.144C485.329 49.72 486.225 48.584 488.689 48.584C491.153 48.584 492.049 49.72 492.049 51.176H490.417C490.337 50.408 490.081 49.72 488.673 49.72C487.473 49.72 487.025 50.216 487.025 51.016C487.025 51.688 487.409 51.928 488.049 52.024L489.569 52.248C491.249 52.488 492.273 53.096 492.273 54.6C492.273 56.024 491.281 57.16 488.689 57.16ZM506.942 57H505.134L503.374 50.984L501.598 57H499.806L496.91 48.744H498.67L500.798 55.08L502.606 48.744H504.142L505.95 55.08L508.062 48.744H509.838L506.942 57ZM517.84 57H516.144V51.848C516.144 50.6 515.696 49.96 514.528 49.96C513.296 49.96 512.496 50.888 512.496 52.392V57H510.8V45.608H512.496V50.056C512.944 49.16 513.728 48.584 515.04 48.584C516.928 48.584 517.84 49.544 517.84 51.544V57ZM523.201 57.16C520.577 57.16 519.121 55.496 519.121 52.872C519.121 50.328 520.497 48.584 523.105 48.584C525.713 48.584 527.089 50.36 527.089 52.728C527.089 52.888 527.073 53.032 527.057 53.192H520.817C520.865 55.144 521.793 55.992 523.201 55.992C524.369 55.992 525.105 55.384 525.361 54.44H526.913C526.545 56.12 525.345 57.16 523.201 57.16ZM523.105 49.752C521.825 49.752 520.993 50.52 520.817 52.072H525.393C525.217 50.52 524.385 49.752 523.105 49.752ZM535.403 57H533.707V51.848C533.707 50.6 533.259 49.96 532.091 49.96C530.859 49.96 530.059 50.888 530.059 52.392V57H528.363V48.744H529.979V50.184C530.427 49.224 531.227 48.584 532.603 48.584C534.491 48.584 535.403 49.544 535.403 51.544V57ZM542.699 57H541.003V48.744H542.699V57ZM541.851 47.304C541.195 47.304 540.843 46.92 540.843 46.408C540.843 45.896 541.195 45.496 541.851 45.496C542.491 45.496 542.859 45.896 542.859 46.408C542.859 46.92 542.491 47.304 541.851 47.304ZM551.34 57H549.644V51.848C549.644 50.6 549.196 49.96 548.028 49.96C546.796 49.96 545.996 50.888 545.996 52.392V57H544.3V48.744H545.916V50.184C546.364 49.224 547.164 48.584 548.54 48.584C550.428 48.584 551.34 49.544 551.34 51.544V57ZM557.094 57H555.046L551.91 48.744H553.67L556.07 55.496L558.454 48.744H560.23L557.094 57ZM564.466 57.16C561.842 57.16 560.386 55.496 560.386 52.872C560.386 50.328 561.762 48.584 564.37 48.584C566.978 48.584 568.354 50.36 568.354 52.728C568.354 52.888 568.338 53.032 568.322 53.192H562.082C562.13 55.144 563.058 55.992 564.466 55.992C565.634 55.992 566.37 55.384 566.626 54.44H568.178C567.81 56.12 566.61 57.16 564.466 57.16ZM564.37 49.752C563.09 49.752 562.258 50.52 562.082 52.072H566.658C566.482 50.52 565.65 49.752 564.37 49.752ZM576.668 57H574.972V51.848C574.972 50.6 574.524 49.96 573.356 49.96C572.124 49.96 571.324 50.888 571.324 52.392V57H569.628V48.744H571.244V50.184C571.692 49.224 572.492 48.584 573.868 48.584C575.756 48.584 576.668 49.544 576.668 51.544V57ZM581.153 57.08C579.424 57.08 578.817 56.568 578.817 54.888V49.96H577.473V48.744H578.817V46.248H580.513V48.744H582.417V49.96H580.513V54.936C580.513 55.656 580.785 55.864 581.536 55.864L582.417 55.848V57C582.081 57.032 581.489 57.08 581.153 57.08ZM586.966 57.16C584.342 57.16 582.886 55.496 582.886 52.872C582.886 50.248 584.342 48.584 586.966 48.584C589.59 48.584 591.046 50.248 591.046 52.872C591.046 55.496 589.59 57.16 586.966 57.16ZM586.966 55.864C588.486 55.864 589.35 54.872 589.35 52.872C589.35 50.888 588.486 49.88 586.966 49.88C585.446 49.88 584.582 50.888 584.582 52.872C584.582 54.872 585.446 55.864 586.966 55.864ZM594.027 57H592.331V48.744H593.947V50.648C594.379 49.192 595.115 48.648 596.315 48.648C596.539 48.648 596.859 48.696 597.067 48.744V50.232L596.251 50.2C594.907 50.2 594.027 51.24 594.027 53.08V57ZM598.303 60.136V58.92H599.039C600.143 58.92 600.783 58.216 600.783 57.464C600.783 57.304 600.751 57.128 600.687 56.968L597.551 48.744H599.311L601.695 55.64L604.095 48.744H605.871L602.703 56.968C601.759 59.4 600.815 60.136 599.023 60.136H598.303ZM139.496 80H137.8V71.744H139.416V73.648C139.848 72.192 140.584 71.648 141.784 71.648C142.008 71.648 142.328 71.696 142.536 71.744V73.232L141.72 73.2C140.376 73.2 139.496 74.24 139.496 76.08V80ZM147.06 80.16C144.436 80.16 142.98 78.496 142.98 75.872C142.98 73.328 144.356 71.584 146.964 71.584C149.572 71.584 150.948 73.36 150.948 75.728C150.948 75.888 150.932 76.032 150.916 76.192H144.676C144.724 78.144 145.652 78.992 147.06 78.992C148.228 78.992 148.964 78.384 149.22 77.44H150.772C150.404 79.12 149.204 80.16 147.06 80.16ZM146.964 72.752C145.684 72.752 144.852 73.52 144.676 75.072H149.252C149.076 73.52 148.244 72.752 146.964 72.752ZM154.862 80.16C152.942 80.16 151.902 79.2 151.902 77.664C151.902 76.432 152.654 75.456 154.702 75.28L156.302 75.152C157.278 75.056 157.566 74.832 157.566 74.304C157.566 73.36 157.022 72.8 155.822 72.8C154.702 72.8 154.094 73.28 154.014 74.304H152.35C152.35 72.64 153.374 71.584 155.806 71.584C158.222 71.584 159.262 72.64 159.262 74.304V77.888C159.262 79.008 159.358 79.728 159.518 80H157.998C157.742 79.68 157.646 79.344 157.646 78.576C157.198 79.632 156.286 80.16 154.862 80.16ZM155.326 78.992C156.782 78.992 157.566 77.856 157.566 76.496V75.792C157.39 76.016 156.942 76.144 156.302 76.192L155.246 76.288C154.062 76.384 153.598 76.88 153.598 77.552C153.598 78.4 154.11 78.992 155.326 78.992ZM164.543 80.16C161.999 80.16 160.543 78.496 160.543 75.872C160.543 73.248 161.999 71.584 164.543 71.584C167.151 71.584 168.286 73.248 168.286 74.784H166.719C166.559 73.76 165.951 72.88 164.543 72.88C163.103 72.88 162.239 73.888 162.239 75.872C162.239 77.872 163.103 78.864 164.543 78.864C165.775 78.864 166.543 78.208 166.719 76.896H168.286C168.286 78.592 167.055 80.16 164.543 80.16ZM176.449 80H174.753V74.848C174.753 73.6 174.305 72.96 173.137 72.96C171.905 72.96 171.105 73.888 171.105 75.392V80H169.409V68.608H171.105V73.056C171.553 72.16 172.337 71.584 173.649 71.584C175.537 71.584 176.449 72.544 176.449 74.544V80ZM181.81 80.16C179.186 80.16 177.73 78.496 177.73 75.872C177.73 73.328 179.106 71.584 181.714 71.584C184.322 71.584 185.698 73.36 185.698 75.728C185.698 75.888 185.682 76.032 185.666 76.192H179.426C179.474 78.144 180.402 78.992 181.81 78.992C182.978 78.992 183.714 78.384 183.97 77.44H185.522C185.154 79.12 183.954 80.16 181.81 80.16ZM181.714 72.752C180.434 72.752 179.602 73.52 179.426 75.072H184.002C183.826 73.52 182.994 72.752 181.714 72.752ZM190.236 80.16C187.644 80.16 186.652 79.024 186.652 77.44H188.284C188.364 78.384 188.78 79.024 190.252 79.024C191.692 79.024 192.124 78.4 192.124 77.696C192.124 77.04 191.644 76.704 190.86 76.592L189.34 76.368C187.612 76.128 186.876 75.52 186.876 74.144C186.876 72.72 187.772 71.584 190.236 71.584C192.7 71.584 193.596 72.72 193.596 74.176H191.964C191.884 73.408 191.628 72.72 190.22 72.72C189.02 72.72 188.572 73.216 188.572 74.016C188.572 74.688 188.956 74.928 189.596 75.024L191.116 75.248C192.796 75.488 193.82 76.096 193.82 77.6C193.82 79.024 192.828 80.16 190.236 80.16ZM203.481 80.16C202.153 80.16 201.257 79.616 200.793 78.592V83.136H199.097V71.744H200.713V73.28C201.161 72.208 202.057 71.584 203.481 71.584C205.705 71.584 207.097 73.168 207.097 75.872C207.097 78.576 205.705 80.16 203.481 80.16ZM203.097 78.864C204.457 78.864 205.401 77.952 205.401 75.872C205.401 73.808 204.457 72.88 203.097 72.88C201.721 72.88 200.793 73.808 200.793 75.872C200.793 77.952 201.721 78.864 203.097 78.864ZM210.074 80H208.378V71.744H209.994V73.648C210.426 72.192 211.162 71.648 212.362 71.648C212.586 71.648 212.906 71.696 213.114 71.744V73.232L212.298 73.2C210.954 73.2 210.074 74.24 210.074 76.08V80ZM217.638 80.16C215.014 80.16 213.558 78.496 213.558 75.872C213.558 73.328 214.934 71.584 217.542 71.584C220.15 71.584 221.526 73.36 221.526 75.728C221.526 75.888 221.51 76.032 221.494 76.192H215.254C215.302 78.144 216.23 78.992 217.638 78.992C218.806 78.992 219.542 78.384 219.798 77.44H221.35C220.982 79.12 219.782 80.16 217.638 80.16ZM217.542 72.752C216.262 72.752 215.43 73.52 215.254 75.072H219.83C219.654 73.52 218.822 72.752 217.542 72.752ZM226.08 80.16C223.856 80.16 222.48 78.576 222.48 75.872C222.48 73.168 223.856 71.584 226.08 71.584C227.408 71.584 228.32 72.128 228.784 73.152V68.608H230.48V80H228.864V78.48C228.4 79.536 227.52 80.16 226.08 80.16ZM226.48 78.864C227.84 78.864 228.784 77.952 228.784 75.872C228.784 73.808 227.84 72.88 226.48 72.88C225.104 72.88 224.176 73.808 224.176 75.872C224.176 77.952 225.104 78.864 226.48 78.864ZM235.841 80.16C233.217 80.16 231.761 78.496 231.761 75.872C231.761 73.328 233.137 71.584 235.745 71.584C238.353 71.584 239.729 73.36 239.729 75.728C239.729 75.888 239.713 76.032 239.697 76.192H233.457C233.505 78.144 234.433 78.992 235.841 78.992C237.009 78.992 237.745 78.384 238.001 77.44H239.553C239.185 79.12 237.985 80.16 235.841 80.16ZM235.745 72.752C234.465 72.752 233.633 73.52 233.457 75.072H238.033C237.857 73.52 237.025 72.752 235.745 72.752ZM243.887 80.08C242.159 80.08 241.551 79.568 241.551 77.888V72.96H240.207V71.744H241.551V69.248H243.247V71.744H245.151V72.96H243.247V77.936C243.247 78.656 243.519 78.864 244.271 78.864L245.151 78.848V80C244.815 80.032 244.223 80.08 243.887 80.08ZM249.701 80.16C247.077 80.16 245.621 78.496 245.621 75.872C245.621 73.328 246.997 71.584 249.605 71.584C252.213 71.584 253.589 73.36 253.589 75.728C253.589 75.888 253.573 76.032 253.557 76.192H247.317C247.365 78.144 248.293 78.992 249.701 78.992C250.869 78.992 251.605 78.384 251.861 77.44H253.413C253.045 79.12 251.845 80.16 249.701 80.16ZM249.605 72.752C248.325 72.752 247.493 73.52 247.317 75.072H251.893C251.717 73.52 250.885 72.752 249.605 72.752ZM256.559 80H254.863V71.744H256.479V73.648C256.911 72.192 257.647 71.648 258.847 71.648C259.071 71.648 259.391 71.696 259.599 71.744V73.232L258.783 73.2C257.439 73.2 256.559 74.24 256.559 76.08V80ZM271.794 80H270.162V74.8C270.162 73.552 269.762 72.96 268.818 72.96C267.826 72.96 267.058 73.84 267.058 75.344V80H265.426V74.8C265.426 73.552 265.026 72.96 264.098 72.96C263.106 72.96 262.354 73.84 262.354 75.344V80H260.722V71.744H262.338V73.184C262.722 72.224 263.49 71.584 264.626 71.584C265.858 71.584 266.594 72.144 266.898 73.248C267.314 72.192 268.178 71.584 269.314 71.584C270.978 71.584 271.794 72.544 271.794 74.544V80ZM275.09 80H273.394V71.744H275.09V80ZM274.242 70.304C273.586 70.304 273.234 69.92 273.234 69.408C273.234 68.896 273.586 68.496 274.242 68.496C274.882 68.496 275.25 68.896 275.25 69.408C275.25 69.92 274.882 70.304 274.242 70.304ZM283.731 80H282.035V74.848C282.035 73.6 281.587 72.96 280.419 72.96C279.187 72.96 278.387 73.888 278.387 75.392V80H276.691V71.744H278.307V73.184C278.755 72.224 279.555 71.584 280.931 71.584C282.819 71.584 283.731 72.544 283.731 74.544V80ZM289.091 80.16C286.467 80.16 285.011 78.496 285.011 75.872C285.011 73.328 286.387 71.584 288.995 71.584C291.603 71.584 292.979 73.36 292.979 75.728C292.979 75.888 292.963 76.032 292.947 76.192H286.707C286.755 78.144 287.683 78.992 289.091 78.992C290.259 78.992 290.995 78.384 291.251 77.44H292.803C292.435 79.12 291.235 80.16 289.091 80.16ZM288.995 72.752C287.715 72.752 286.883 73.52 286.707 75.072H291.283C291.107 73.52 290.275 72.752 288.995 72.752ZM297.533 80.16C295.309 80.16 293.933 78.576 293.933 75.872C293.933 73.168 295.309 71.584 297.533 71.584C298.861 71.584 299.773 72.128 300.237 73.152V68.608H301.933V80H300.317V78.48C299.853 79.536 298.973 80.16 297.533 80.16ZM297.933 78.864C299.293 78.864 300.237 77.952 300.237 75.872C300.237 73.808 299.293 72.88 297.933 72.88C296.557 72.88 295.629 73.808 295.629 75.872C295.629 77.952 296.557 78.864 297.933 78.864ZM313.23 80H311.534V71.744H313.15V73.648C313.582 72.192 314.318 71.648 315.518 71.648C315.742 71.648 316.062 71.696 316.27 71.744V73.232L315.454 73.2C314.11 73.2 313.23 74.24 313.23 76.08V80ZM320.794 80.16C318.17 80.16 316.714 78.496 316.714 75.872C316.714 73.328 318.09 71.584 320.698 71.584C323.306 71.584 324.682 73.36 324.682 75.728C324.682 75.888 324.666 76.032 324.65 76.192H318.41C318.458 78.144 319.386 78.992 320.794 78.992C321.962 78.992 322.698 78.384 322.954 77.44H324.506C324.138 79.12 322.938 80.16 320.794 80.16ZM320.698 72.752C319.418 72.752 318.586 73.52 318.41 75.072H322.986C322.81 73.52 321.978 72.752 320.698 72.752ZM329.716 80.16C327.092 80.16 325.636 78.496 325.636 75.872C325.636 73.248 327.092 71.584 329.716 71.584C332.34 71.584 333.796 73.248 333.796 75.872C333.796 78.496 332.34 80.16 329.716 80.16ZM329.716 78.864C331.236 78.864 332.1 77.872 332.1 75.872C332.1 73.888 331.236 72.88 329.716 72.88C328.196 72.88 327.332 73.888 327.332 75.872C327.332 77.872 328.196 78.864 329.716 78.864ZM336.777 80H335.081V71.744H336.697V73.648C337.129 72.192 337.865 71.648 339.065 71.648C339.289 71.648 339.609 71.696 339.817 71.744V73.232L339.001 73.2C337.657 73.2 336.777 74.24 336.777 76.08V80ZM343.861 80.16C341.637 80.16 340.261 78.576 340.261 75.872C340.261 73.168 341.637 71.584 343.861 71.584C345.189 71.584 346.101 72.128 346.565 73.152V68.608H348.261V80H346.645V78.48C346.181 79.536 345.301 80.16 343.861 80.16ZM344.261 78.864C345.621 78.864 346.565 77.952 346.565 75.872C346.565 73.808 345.621 72.88 344.261 72.88C342.885 72.88 341.957 73.808 341.957 75.872C341.957 77.952 342.885 78.864 344.261 78.864ZM353.623 80.16C350.999 80.16 349.543 78.496 349.543 75.872C349.543 73.328 350.919 71.584 353.527 71.584C356.135 71.584 357.51 73.36 357.51 75.728C357.51 75.888 357.495 76.032 357.479 76.192H351.239C351.287 78.144 352.215 78.992 353.623 78.992C354.791 78.992 355.527 78.384 355.783 77.44H357.335C356.967 79.12 355.767 80.16 353.623 80.16ZM353.527 72.752C352.247 72.752 351.414 73.52 351.239 75.072H355.815C355.639 73.52 354.807 72.752 353.527 72.752ZM360.48 80H358.784V71.744H360.4V73.648C360.832 72.192 361.568 71.648 362.768 71.648C362.992 71.648 363.312 71.696 363.52 71.744V73.232L362.704 73.2C361.36 73.2 360.48 74.24 360.48 76.08V80ZM373.028 80.16C371.7 80.16 370.804 79.616 370.34 78.592V83.136H368.644V71.744H370.26V73.28C370.708 72.208 371.604 71.584 373.028 71.584C375.252 71.584 376.644 73.168 376.644 75.872C376.644 78.576 375.252 80.16 373.028 80.16ZM372.644 78.864C374.004 78.864 374.948 77.952 374.948 75.872C374.948 73.808 374.004 72.88 372.644 72.88C371.268 72.88 370.34 73.808 370.34 75.872C370.34 77.952 371.268 78.864 372.644 78.864ZM381.685 80.16C379.061 80.16 377.605 78.496 377.605 75.872C377.605 73.248 379.061 71.584 381.685 71.584C384.309 71.584 385.765 73.248 385.765 75.872C385.765 78.496 384.309 80.16 381.685 80.16ZM381.685 78.864C383.205 78.864 384.069 77.872 384.069 75.872C384.069 73.888 383.205 72.88 381.685 72.88C380.165 72.88 379.301 73.888 379.301 75.872C379.301 77.872 380.165 78.864 381.685 78.864ZM388.746 80H387.05V71.744H388.746V80ZM387.898 70.304C387.242 70.304 386.89 69.92 386.89 69.408C386.89 68.896 387.242 68.496 387.898 68.496C388.538 68.496 388.906 68.896 388.906 69.408C388.906 69.92 388.538 70.304 387.898 70.304ZM397.387 80H395.691V74.848C395.691 73.6 395.243 72.96 394.075 72.96C392.843 72.96 392.043 73.888 392.043 75.392V80H390.347V71.744H391.963V73.184C392.411 72.224 393.211 71.584 394.587 71.584C396.475 71.584 397.387 72.544 397.387 74.544V80ZM401.871 80.08C400.143 80.08 399.535 79.568 399.535 77.888V72.96H398.191V71.744H399.535V69.248H401.231V71.744H403.135V72.96H401.231V77.936C401.231 78.656 401.503 78.864 402.255 78.864L403.135 78.848V80C402.799 80.032 402.207 80.08 401.871 80.08ZM407.611 80.16C405.019 80.16 404.027 79.024 404.027 77.44H405.659C405.739 78.384 406.155 79.024 407.627 79.024C409.067 79.024 409.499 78.4 409.499 77.696C409.499 77.04 409.019 76.704 408.235 76.592L406.715 76.368C404.987 76.128 404.251 75.52 404.251 74.144C404.251 72.72 405.147 71.584 407.611 71.584C410.075 71.584 410.971 72.72 410.971 74.176H409.339C409.259 73.408 409.003 72.72 407.595 72.72C406.395 72.72 405.947 73.216 405.947 74.016C405.947 74.688 406.331 74.928 406.971 75.024L408.491 75.248C410.171 75.488 411.195 76.096 411.195 77.6C411.195 79.024 410.203 80.16 407.611 80.16ZM412.984 82.304L412.104 81.92C412.504 81.28 412.584 80.768 412.584 79.776V78.064H414.04V79.776C414.04 80.928 413.752 81.744 412.984 82.304ZM427.529 80.16C424.905 80.16 423.449 78.496 423.449 75.872C423.449 73.328 424.825 71.584 427.433 71.584C430.041 71.584 431.417 73.36 431.417 75.728C431.417 75.888 431.401 76.032 431.385 76.192H425.145C425.193 78.144 426.121 78.992 427.529 78.992C428.697 78.992 429.433 78.384 429.689 77.44H431.241C430.873 79.12 429.673 80.16 427.529 80.16ZM427.433 72.752C426.153 72.752 425.321 73.52 425.145 75.072H429.721C429.545 73.52 428.713 72.752 427.433 72.752ZM439.731 80H438.035V74.848C438.035 73.6 437.587 72.96 436.419 72.96C435.187 72.96 434.387 73.888 434.387 75.392V80H432.691V71.744H434.307V73.184C434.755 72.224 435.555 71.584 436.931 71.584C438.819 71.584 439.731 72.544 439.731 74.544V80ZM444.595 80.16C442.003 80.16 441.011 79.024 441.011 77.44H442.643C442.723 78.384 443.139 79.024 444.611 79.024C446.051 79.024 446.483 78.4 446.483 77.696C446.483 77.04 446.003 76.704 445.219 76.592L443.699 76.368C441.971 76.128 441.235 75.52 441.235 74.144C441.235 72.72 442.131 71.584 444.595 71.584C447.059 71.584 447.955 72.72 447.955 74.176H446.323C446.243 73.408 445.987 72.72 444.579 72.72C443.379 72.72 442.931 73.216 442.931 74.016C442.931 74.688 443.315 74.928 443.955 75.024L445.475 75.248C447.155 75.488 448.179 76.096 448.179 77.6C448.179 79.024 447.187 80.16 444.595 80.16ZM452.256 80.16C450.368 80.16 449.456 79.2 449.456 77.2V71.744H451.152V76.896C451.152 78.144 451.6 78.784 452.768 78.784C454 78.784 454.8 77.856 454.8 76.352V71.744H456.496V80H454.88V78.576C454.416 79.52 453.632 80.16 452.256 80.16ZM459.793 80H458.097V71.744H459.713V73.648C460.145 72.192 460.881 71.648 462.081 71.648C462.305 71.648 462.625 71.696 462.833 71.744V73.232L462.017 73.2C460.673 73.2 459.793 74.24 459.793 76.08V80ZM465.652 80H463.956V71.744H465.652V80ZM464.804 70.304C464.148 70.304 463.796 69.92 463.796 69.408C463.796 68.896 464.148 68.496 464.804 68.496C465.444 68.496 465.812 68.896 465.812 69.408C465.812 69.92 465.444 70.304 464.804 70.304ZM474.293 80H472.597V74.848C472.597 73.6 472.149 72.96 470.981 72.96C469.749 72.96 468.949 73.888 468.949 75.392V80H467.253V71.744H468.869V73.184C469.317 72.224 470.117 71.584 471.493 71.584C473.381 71.584 474.293 72.544 474.293 74.544V80ZM479.174 79.68C476.95 79.68 475.574 78.048 475.574 75.632C475.574 73.216 476.95 71.584 479.174 71.584C480.614 71.584 481.494 72.208 481.958 73.28V71.744H483.574V79.392C483.574 81.952 482.198 83.296 479.622 83.296C477.222 83.296 476.022 82.128 476.022 80.384H477.606C477.718 81.536 478.454 82.16 479.702 82.16C481.078 82.16 481.878 81.424 481.878 79.824V78.112C481.414 79.136 480.502 79.68 479.174 79.68ZM479.574 78.464C480.934 78.464 481.878 77.504 481.878 75.632C481.878 73.776 480.934 72.8 479.574 72.8C478.198 72.8 477.27 73.776 477.27 75.632C477.27 77.504 478.198 78.464 479.574 78.464ZM489.287 83.136V81.92H490.023C491.127 81.92 491.767 81.216 491.767 80.464C491.767 80.304 491.735 80.128 491.671 79.968L488.535 71.744H490.295L492.679 78.64L495.079 71.744H496.855L493.687 79.968C492.743 82.4 491.799 83.136 490.007 83.136H489.287ZM501.091 80.16C498.467 80.16 497.011 78.496 497.011 75.872C497.011 73.248 498.467 71.584 501.091 71.584C503.715 71.584 505.171 73.248 505.171 75.872C505.171 78.496 503.715 80.16 501.091 80.16ZM501.091 78.864C502.611 78.864 503.475 77.872 503.475 75.872C503.475 73.888 502.611 72.88 501.091 72.88C499.571 72.88 498.707 73.888 498.707 75.872C498.707 77.872 499.571 78.864 501.091 78.864ZM509.256 80.16C507.368 80.16 506.456 79.2 506.456 77.2V71.744H508.152V76.896C508.152 78.144 508.6 78.784 509.768 78.784C511 78.784 511.8 77.856 511.8 76.352V71.744H513.496V80H511.88V78.576C511.416 79.52 510.632 80.16 509.256 80.16ZM526.137 80H524.441V74.848C524.441 73.6 523.993 72.96 522.825 72.96C521.593 72.96 520.793 73.888 520.793 75.392V80H519.097V71.744H520.713V73.184C521.161 72.224 521.961 71.584 523.337 71.584C525.225 71.584 526.137 72.544 526.137 74.544V80ZM531.498 80.16C528.874 80.16 527.418 78.496 527.418 75.872C527.418 73.328 528.794 71.584 531.402 71.584C534.01 71.584 535.385 73.36 535.385 75.728C535.385 75.888 535.37 76.032 535.354 76.192H529.114C529.162 78.144 530.09 78.992 531.498 78.992C532.666 78.992 533.402 78.384 533.658 77.44H535.21C534.842 79.12 533.642 80.16 531.498 80.16ZM531.402 72.752C530.122 72.752 529.289 73.52 529.114 75.072H533.69C533.514 73.52 532.682 72.752 531.402 72.752ZM540.719 80H538.671L535.535 71.744H537.295L539.695 78.496L542.079 71.744H543.855L540.719 80ZM548.091 80.16C545.467 80.16 544.011 78.496 544.011 75.872C544.011 73.328 545.387 71.584 547.995 71.584C550.603 71.584 551.979 73.36 551.979 75.728C551.979 75.888 551.963 76.032 551.947 76.192H545.707C545.755 78.144 546.683 78.992 548.091 78.992C549.259 78.992 549.995 78.384 550.251 77.44H551.803C551.435 79.12 550.235 80.16 548.091 80.16ZM547.995 72.752C546.715 72.752 545.883 73.52 545.707 75.072H550.283C550.107 73.52 549.275 72.752 547.995 72.752ZM554.949 80H553.253V71.744H554.869V73.648C555.301 72.192 556.037 71.648 557.237 71.648C557.461 71.648 557.781 71.696 557.989 71.744V73.232L557.173 73.2C555.829 73.2 554.949 74.24 554.949 76.08V80ZM564.809 80H563.113V71.744H564.729V73.648C565.161 72.192 565.897 71.648 567.097 71.648C567.321 71.648 567.641 71.696 567.849 71.744V73.232L567.033 73.2C565.689 73.2 564.809 74.24 564.809 76.08V80ZM571.772 80.16C569.884 80.16 568.972 79.2 568.972 77.2V71.744H570.668V76.896C570.668 78.144 571.116 78.784 572.284 78.784C573.516 78.784 574.316 77.856 574.316 76.352V71.744H576.012V80H574.396V78.576C573.932 79.52 573.148 80.16 571.772 80.16ZM584.653 80H582.957V74.848C582.957 73.6 582.509 72.96 581.341 72.96C580.109 72.96 579.309 73.888 579.309 75.392V80H577.613V71.744H579.229V73.184C579.677 72.224 580.477 71.584 581.853 71.584C583.741 71.584 584.653 72.544 584.653 74.544V80ZM598.013 80.16C595.389 80.16 593.933 78.496 593.933 75.872C593.933 73.248 595.389 71.584 598.013 71.584C600.637 71.584 602.093 73.248 602.093 75.872C602.093 78.496 600.637 80.16 598.013 80.16ZM598.013 78.864C599.533 78.864 600.397 77.872 600.397 75.872C600.397 73.888 599.533 72.88 598.013 72.88C596.493 72.88 595.629 73.888 595.629 75.872C595.629 77.872 596.493 78.864 598.013 78.864ZM606.178 80.16C604.29 80.16 603.378 79.2 603.378 77.2V71.744H605.074V76.896C605.074 78.144 605.522 78.784 606.69 78.784C607.922 78.784 608.722 77.856 608.722 76.352V71.744H610.418V80H608.802V78.576C608.338 79.52 607.554 80.16 606.178 80.16ZM615.059 80.08C613.331 80.08 612.723 79.568 612.723 77.888V72.96H611.379V71.744H612.723V69.248H614.419V71.744H616.323V72.96H614.419V77.936C614.419 78.656 614.691 78.864 615.443 78.864L616.323 78.848V80C615.987 80.032 615.395 80.08 615.059 80.08ZM625.294 80.16C622.67 80.16 621.214 78.496 621.214 75.872C621.214 73.248 622.67 71.584 625.294 71.584C627.918 71.584 629.374 73.248 629.374 75.872C629.374 78.496 627.918 80.16 625.294 80.16ZM625.294 78.864C626.814 78.864 627.678 77.872 627.678 75.872C627.678 73.888 626.814 72.88 625.294 72.88C623.774 72.88 622.91 73.888 622.91 75.872C622.91 77.872 623.774 78.864 625.294 78.864ZM632.747 80H631.051V72.96H629.707V71.744H631.051V70.88C631.051 69.28 631.723 68.528 633.387 68.528C633.723 68.528 634.315 68.576 634.651 68.608V69.776L633.771 69.744C633.019 69.744 632.747 70.096 632.747 70.816V71.744H634.651V72.96H632.747V80ZM141.064 103.16C138.472 103.16 137.48 102.024 137.48 100.44H139.112C139.192 101.384 139.608 102.024 141.08 102.024C142.52 102.024 142.952 101.4 142.952 100.696C142.952 100.04 142.472 99.704 141.688 99.592L140.168 99.368C138.44 99.128 137.704 98.52 137.704 97.144C137.704 95.72 138.6 94.584 141.064 94.584C143.528 94.584 144.424 95.72 144.424 97.176H142.792C142.712 96.408 142.456 95.72 141.048 95.72C139.848 95.72 139.4 96.216 139.4 97.016C139.4 97.688 139.784 97.928 140.424 98.024L141.944 98.248C143.624 98.488 144.648 99.096 144.648 100.6C144.648 102.024 143.656 103.16 141.064 103.16ZM148.809 103.08C147.081 103.08 146.473 102.568 146.473 100.888V95.96H145.129V94.744H146.473V92.248H148.169V94.744H150.073V95.96H148.169V100.936C148.169 101.656 148.441 101.864 149.193 101.864L150.073 101.848V103C149.737 103.032 149.145 103.08 148.809 103.08ZM154.623 103.16C151.999 103.16 150.543 101.496 150.543 98.872C150.543 96.248 151.999 94.584 154.623 94.584C157.247 94.584 158.703 96.248 158.703 98.872C158.703 101.496 157.247 103.16 154.623 103.16ZM154.623 101.864C156.143 101.864 157.007 100.872 157.007 98.872C157.007 96.888 156.143 95.88 154.623 95.88C153.103 95.88 152.239 96.888 152.239 98.872C152.239 100.872 153.103 101.864 154.623 101.864ZM163.668 103.16C161.124 103.16 159.668 101.496 159.668 98.872C159.668 96.248 161.124 94.584 163.668 94.584C166.276 94.584 167.411 96.248 167.411 97.784H165.844C165.684 96.76 165.076 95.88 163.668 95.88C162.228 95.88 161.364 96.888 161.364 98.872C161.364 100.872 162.228 101.864 163.668 101.864C164.9 101.864 165.668 101.208 165.844 99.896H167.411C167.411 101.592 166.18 103.16 163.668 103.16ZM176.278 103H174.31L171.638 99.224L170.23 100.6V103H168.534V91.608H170.23V98.68L174.15 94.744H176.118L172.79 98.04L176.278 103ZM178.086 103.112C177.414 103.112 177.03 102.696 177.03 102.168C177.03 101.64 177.414 101.224 178.086 101.224C178.758 101.224 179.126 101.64 179.126 102.168C179.126 102.696 178.758 103.112 178.086 103.112Z" fill="white"/>
</svg>
