<svg width="76" height="76" viewBox="0 0 76 76" fill="none" xmlns="http://www.w3.org/2000/svg">
<g filter="url(#filter0_d_66_969)">
<rect x="9" y="5" width="58" height="58" rx="29" fill="url(#paint0_linear_66_969)"/>
<rect x="9.5" y="5.5" width="57" height="57" rx="28.5" stroke="#0D7284"/>
<path d="M47.9999 25H40.4999V28C40.4999 31.5838 37.5839 34.5001 33.9998 34.5001H30.9998C28.9913 34.5001 27.1934 33.5839 26 32.1475V40C26 41.0995 26.9006 42.0001 27.9998 42.0001H40.0001L44 46H46.0001V42.0001H47.9999C49.0997 42.0001 50 41.0995 50 40V27.0001C50 25.9003 49.0997 25 47.9999 25ZM47 39.4999H29V37.9999H47V39.4999ZM47 36.0001H38.9999V34.5001H47V36.0001ZM47 32.5H41.5001V31H47V32.5ZM47 28.9999H42.5V27.4999H47V28.9999Z" fill="white"/>
<path d="M36.9998 25H36.5V23.5H35.4998L35 25H33.2498V23.5L34.5002 22.9999V22H30.5V22.9999L31.7498 23.5V25H30.0002L29.4998 23.5H28.5002V25H27.9998C27.4694 25.0002 26.9609 25.211 26.5859 25.5861C26.2109 25.9611 26.0002 26.4697 26 27.0001V28C26 30.7606 28.2383 33.0001 30.9998 33.0001H33.9998C36.7619 33.0001 38.9999 30.7606 38.9999 28V27.0001C38.9999 26.7374 38.9482 26.4773 38.8477 26.2346C38.7472 25.992 38.5999 25.7715 38.4142 25.5857C38.2284 25.4 38.0079 25.2527 37.7653 25.1522C37.5226 25.0517 37.2625 25 36.9998 25ZM31.25 28.75C31.25 28.9489 31.171 29.1397 31.0303 29.2803C30.8897 29.421 30.6989 29.5 30.5 29.5C30.3011 29.5 30.1103 29.421 29.9697 29.2803C29.829 29.1397 29.75 28.9489 29.75 28.75V28.2499C29.75 28.051 29.829 27.8602 29.9697 27.7196C30.1103 27.5789 30.3011 27.4999 30.5 27.4999C30.6989 27.4999 30.8897 27.5789 31.0303 27.7196C31.171 27.8602 31.25 28.051 31.25 28.2499V28.75ZM35.2502 28.75C35.2502 28.9489 35.1712 29.1397 35.0305 29.2803C34.8899 29.421 34.6991 29.5 34.5002 29.5C34.3013 29.5 34.1105 29.421 33.9699 29.2803C33.8292 29.1397 33.7502 28.9489 33.7502 28.75V28.2499C33.7502 28.051 33.8292 27.8602 33.9699 27.7196C34.1105 27.5789 34.3013 27.4999 34.5002 27.4999C34.6991 27.4999 34.8899 27.5789 35.0305 27.7196C35.1712 27.8602 35.2502 28.051 35.2502 28.2499V28.75Z" fill="white"/>
</g>
<defs>
<filter id="filter0_d_66_969" x="0.1" y="0.1" width="75.8" height="75.8" filterUnits="userSpaceOnUse" color-interpolation-filters="sRGB">
<feFlood flood-opacity="0" result="BackgroundImageFix"/>
<feColorMatrix in="SourceAlpha" type="matrix" values="0 0 0 0 0 0 0 0 0 0 0 0 0 0 0 0 0 0 127 0" result="hardAlpha"/>
<feOffset dy="4"/>
<feGaussianBlur stdDeviation="4.45"/>
<feComposite in2="hardAlpha" operator="out"/>
<feColorMatrix type="matrix" values="0 0 0 0 0 0 0 0 0 0 0 0 0 0 0 0 0 0 0.15 0"/>
<feBlend mode="normal" in2="BackgroundImageFix" result="effect1_dropShadow_66_969"/>
<feBlend mode="normal" in="SourceGraphic" in2="effect1_dropShadow_66_969" result="shape"/>
</filter>
<linearGradient id="paint0_linear_66_969" x1="38" y1="5" x2="38" y2="63" gradientUnits="userSpaceOnUse">
<stop stop-color="#117D90"/>
<stop offset="1" stop-color="#0A4A55"/>
</linearGradient>
</defs>
</svg>
