<svg width="193" height="211" viewBox="0 0 193 211" fill="none" xmlns="http://www.w3.org/2000/svg">
<path d="M80.0219 4.51362C90.2186 -1.37343 102.781 -1.37343 112.978 4.51362L175.718 40.7364C185.914 46.6234 192.196 57.5031 192.196 69.2772V141.723C192.196 153.497 185.914 164.377 175.718 170.264L112.978 206.486C102.781 212.373 90.2186 212.373 80.0219 206.486L17.2823 170.264C7.0856 164.377 0.804192 153.497 0.804192 141.723V69.2772C0.804192 57.5031 7.0856 46.6234 17.2823 40.7364L80.0219 4.51362Z" fill="#03414C"/>
<path d="M55.8363 167.807L35.6803 155.209C33.2925 153.717 33.2417 150.257 35.5845 148.695L56.3704 134.838C58.982 133.097 62.4719 135.018 62.3972 138.156L61.7673 164.611C61.6958 167.614 58.3837 169.399 55.8363 167.807Z" fill="url(#paint0_linear_0_1)"/>
<path d="M97.3959 31.0727L65.2721 49.8769C62.7395 51.3594 62.7081 55.0091 65.2148 56.5349L124.687 92.7356C125.843 93.4391 126.549 94.6943 126.549 96.0475V167.472C126.549 170.486 129.836 172.348 132.421 170.797L163.438 152.187C164.606 151.486 165.32 150.224 165.32 148.862V72.7677C165.32 71.4236 164.624 70.1754 163.481 69.469L101.392 31.1201C100.171 30.3662 98.6341 30.3479 97.3959 31.0727Z" fill="url(#paint1_linear_0_1)"/>
<path d="M63.1986 72.7472L34.4071 89.5405C31.8385 91.0387 31.8431 94.7516 34.4153 96.2435L75.182 119.888C76.3778 120.582 77.1139 121.86 77.1139 123.242V174.227C77.1139 177.247 80.4146 179.108 82.9986 177.544L111.115 160.528C112.275 159.826 112.984 158.568 112.984 157.211V103.245C112.984 101.901 112.288 100.653 111.145 99.9465L67.1894 72.7977C65.9706 72.0449 64.436 72.0255 63.1986 72.7472Z" fill="url(#paint2_linear_0_1)"/>
<defs>
<linearGradient id="paint0_linear_0_1" x1="98.9019" y1="30.5416" x2="98.9019" y2="178.11" gradientUnits="userSpaceOnUse">
<stop stop-color="#14BA9C"/>
<stop offset="1" stop-color="#45E6C9"/>
</linearGradient>
<linearGradient id="paint1_linear_0_1" x1="98.9019" y1="30.5416" x2="98.9019" y2="178.11" gradientUnits="userSpaceOnUse">
<stop stop-color="#14BA9C"/>
<stop offset="1" stop-color="#45E6C9"/>
</linearGradient>
<linearGradient id="paint2_linear_0_1" x1="98.9019" y1="30.5416" x2="98.9019" y2="178.11" gradientUnits="userSpaceOnUse">
<stop stop-color="#14BA9C"/>
<stop offset="1" stop-color="#45E6C9"/>
</linearGradient>
</defs>
</svg>
