<svg width="506" height="86" viewBox="0 0 506 86" fill="none" xmlns="http://www.w3.org/2000/svg">
<mask id="path-1-outside-1_1_676" maskUnits="userSpaceOnUse" x="-0.272766" y="0.00012207" width="507" height="86" fill="black">
<rect fill="white" x="-0.272766" y="0.00012207" width="507" height="86"/>
<path d="M12.695 84.0001H2.04372L33.6424 1.15715H45.8321L77.3125 84.0001H66.3062L57.5485 61.6325H21.4526L12.695 84.0001ZM39.4414 12.4001L24.5297 52.2831H54.4715L39.4414 12.4001ZM110.864 84.7102C93.2304 84.7102 81.6324 72.7571 81.6324 53.94C81.6324 35.4778 93.5855 22.933 111.101 22.933C125.894 22.933 135.244 31.2173 137.729 44.4722H127.551C125.776 36.4246 119.859 31.5724 110.983 31.5724C99.3845 31.5724 91.5736 40.8034 91.5736 53.94C91.5736 67.0765 99.3845 76.0709 110.983 76.0709C119.622 76.0709 125.539 71.1003 127.433 63.4077H137.729C135.362 76.4259 125.539 84.7102 110.864 84.7102ZM176.625 84.7102C158.991 84.7102 147.393 72.7571 147.393 53.94C147.393 35.4778 159.346 22.933 176.861 22.933C191.655 22.933 201.004 31.2173 203.49 44.4722H193.312C191.536 36.4246 185.619 31.5724 176.743 31.5724C165.145 31.5724 157.334 40.8034 157.334 53.94C157.334 67.0765 165.145 76.0709 176.743 76.0709C185.382 76.0709 191.3 71.1003 193.193 63.4077H203.49C201.123 76.4259 191.3 84.7102 176.625 84.7102ZM257.534 53.8216V23.6431H267.238V84.0001H258.836L257.534 75.9525C253.983 80.4497 248.184 84.7102 238.243 84.7102C224.988 84.7102 214.455 77.2543 214.455 57.2537V23.6431H224.16V56.6619C224.16 69.2067 229.841 75.8342 239.9 75.8342C250.906 75.8342 257.534 67.4315 257.534 53.8216ZM309.552 23.6431H312.274V33.1109H307.422C294.759 33.1109 291.327 43.6438 291.327 53.2299V84.0001H281.622V23.6431H290.025L291.327 32.7558C294.167 28.1403 298.783 23.6431 309.552 23.6431ZM373.135 75.1241H376.212V84.0001H370.887C362.839 84.0001 360.117 80.5681 359.999 74.6507C356.212 80.0947 350.176 84.7102 339.762 84.7102C326.507 84.7102 317.512 78.0828 317.512 67.0765C317.512 55.0051 325.915 48.2593 341.773 48.2593H359.525V44.1171C359.525 36.3062 353.963 31.5724 344.495 31.5724C335.974 31.5724 330.294 35.5962 329.11 41.7502H319.406C320.826 29.9155 330.412 22.933 344.969 22.933C360.354 22.933 369.23 30.6256 369.23 44.7089V71.1003C369.23 74.2957 370.413 75.1241 373.135 75.1241ZM359.525 59.3839V56.4252H340.827C332.187 56.4252 327.335 59.6206 327.335 66.4848C327.335 72.4021 332.424 76.4259 340.472 76.4259C352.543 76.4259 359.525 69.4434 359.525 59.3839ZM411.236 84.7102C393.602 84.7102 382.004 72.7571 382.004 53.94C382.004 35.4778 393.957 22.933 411.473 22.933C426.266 22.933 435.616 31.2173 438.101 44.4722H427.923C426.148 36.4246 420.23 31.5724 411.354 31.5724C399.756 31.5724 391.945 40.8034 391.945 53.94C391.945 67.0765 399.756 76.0709 411.354 76.0709C419.994 76.0709 425.911 71.1003 427.805 63.4077H438.101C435.734 76.4259 425.911 84.7102 411.236 84.7102ZM449.895 84.0001V1.15715H459.6V55.7152L489.896 23.6431H501.85L478.298 48.6143L503.506 84.0001H491.79L471.789 55.5968L459.6 68.1416V84.0001H449.895Z"/>
</mask>
<path d="M12.695 84.0001H2.04372L33.6424 1.15715H45.8321L77.3125 84.0001H66.3062L57.5485 61.6325H21.4526L12.695 84.0001ZM39.4414 12.4001L24.5297 52.2831H54.4715L39.4414 12.4001ZM110.864 84.7102C93.2304 84.7102 81.6324 72.7571 81.6324 53.94C81.6324 35.4778 93.5855 22.933 111.101 22.933C125.894 22.933 135.244 31.2173 137.729 44.4722H127.551C125.776 36.4246 119.859 31.5724 110.983 31.5724C99.3845 31.5724 91.5736 40.8034 91.5736 53.94C91.5736 67.0765 99.3845 76.0709 110.983 76.0709C119.622 76.0709 125.539 71.1003 127.433 63.4077H137.729C135.362 76.4259 125.539 84.7102 110.864 84.7102ZM176.625 84.7102C158.991 84.7102 147.393 72.7571 147.393 53.94C147.393 35.4778 159.346 22.933 176.861 22.933C191.655 22.933 201.004 31.2173 203.49 44.4722H193.312C191.536 36.4246 185.619 31.5724 176.743 31.5724C165.145 31.5724 157.334 40.8034 157.334 53.94C157.334 67.0765 165.145 76.0709 176.743 76.0709C185.382 76.0709 191.3 71.1003 193.193 63.4077H203.49C201.123 76.4259 191.3 84.7102 176.625 84.7102ZM257.534 53.8216V23.6431H267.238V84.0001H258.836L257.534 75.9525C253.983 80.4497 248.184 84.7102 238.243 84.7102C224.988 84.7102 214.455 77.2543 214.455 57.2537V23.6431H224.16V56.6619C224.16 69.2067 229.841 75.8342 239.9 75.8342C250.906 75.8342 257.534 67.4315 257.534 53.8216ZM309.552 23.6431H312.274V33.1109H307.422C294.759 33.1109 291.327 43.6438 291.327 53.2299V84.0001H281.622V23.6431H290.025L291.327 32.7558C294.167 28.1403 298.783 23.6431 309.552 23.6431ZM373.135 75.1241H376.212V84.0001H370.887C362.839 84.0001 360.117 80.5681 359.999 74.6507C356.212 80.0947 350.176 84.7102 339.762 84.7102C326.507 84.7102 317.512 78.0828 317.512 67.0765C317.512 55.0051 325.915 48.2593 341.773 48.2593H359.525V44.1171C359.525 36.3062 353.963 31.5724 344.495 31.5724C335.974 31.5724 330.294 35.5962 329.11 41.7502H319.406C320.826 29.9155 330.412 22.933 344.969 22.933C360.354 22.933 369.23 30.6256 369.23 44.7089V71.1003C369.23 74.2957 370.413 75.1241 373.135 75.1241ZM359.525 59.3839V56.4252H340.827C332.187 56.4252 327.335 59.6206 327.335 66.4848C327.335 72.4021 332.424 76.4259 340.472 76.4259C352.543 76.4259 359.525 69.4434 359.525 59.3839ZM411.236 84.7102C393.602 84.7102 382.004 72.7571 382.004 53.94C382.004 35.4778 393.957 22.933 411.473 22.933C426.266 22.933 435.616 31.2173 438.101 44.4722H427.923C426.148 36.4246 420.23 31.5724 411.354 31.5724C399.756 31.5724 391.945 40.8034 391.945 53.94C391.945 67.0765 399.756 76.0709 411.354 76.0709C419.994 76.0709 425.911 71.1003 427.805 63.4077H438.101C435.734 76.4259 425.911 84.7102 411.236 84.7102ZM449.895 84.0001V1.15715H459.6V55.7152L489.896 23.6431H501.85L478.298 48.6143L503.506 84.0001H491.79L471.789 55.5968L459.6 68.1416V84.0001H449.895Z" fill="#03414C"/>
<path d="M12.695 84.0001V85.1552H13.4832L13.7705 84.4212L12.695 84.0001ZM2.04372 84.0001L0.96447 83.5885L0.36687 85.1552H2.04372V84.0001ZM33.6424 1.15715V0.00205612H32.8467L32.5631 0.745491L33.6424 1.15715ZM45.8321 1.15715L46.9119 0.746838L46.6289 0.00205612H45.8321V1.15715ZM77.3125 84.0001V85.1552H78.9871L78.3922 83.5898L77.3125 84.0001ZM66.3062 84.0001L65.2306 84.4212L65.518 85.1552H66.3062V84.0001ZM57.5485 61.6325L58.6241 61.2114L58.3367 60.4774H57.5485V61.6325ZM21.4526 61.6325V60.4774H20.6644L20.3771 61.2114L21.4526 61.6325ZM39.4414 12.4001L40.5223 11.9928L39.4371 9.11328L38.3595 11.9956L39.4414 12.4001ZM24.5297 52.2831L23.4477 51.8786L22.8646 53.4382H24.5297V52.2831ZM54.4715 52.2831V53.4382H56.1412L55.5524 51.8758L54.4715 52.2831ZM12.695 84.0001V82.845H2.04372V84.0001V85.1552H12.695V84.0001ZM2.04372 84.0001L3.12296 84.4118L34.7216 1.5688L33.6424 1.15715L32.5631 0.745491L0.96447 83.5885L2.04372 84.0001ZM33.6424 1.15715V2.31224H45.8321V1.15715V0.00205612H33.6424V1.15715ZM45.8321 1.15715L44.7524 1.56746L76.2327 84.4104L77.3125 84.0001L78.3922 83.5898L46.9119 0.746838L45.8321 1.15715ZM77.3125 84.0001V82.845H66.3062V84.0001V85.1552H77.3125V84.0001ZM66.3062 84.0001L67.3818 83.579L58.6241 61.2114L57.5485 61.6325L56.4729 62.0536L65.2306 84.4212L66.3062 84.0001ZM57.5485 61.6325V60.4774H21.4526V61.6325V62.7876H57.5485V61.6325ZM21.4526 61.6325L20.3771 61.2114L11.6194 83.579L12.695 84.0001L13.7705 84.4212L22.5282 62.0536L21.4526 61.6325ZM39.4414 12.4001L38.3595 11.9956L23.4477 51.8786L24.5297 52.2831L25.6116 52.6876L40.5233 12.8046L39.4414 12.4001ZM24.5297 52.2831V53.4382H54.4715V52.2831V51.128H24.5297V52.2831ZM54.4715 52.2831L55.5524 51.8758L40.5223 11.9928L39.4414 12.4001L38.3605 12.8075L53.3906 52.6904L54.4715 52.2831ZM137.729 44.4722V45.6273H139.121L138.864 44.2593L137.729 44.4722ZM127.551 44.4722L126.423 44.721L126.623 45.6273H127.551V44.4722ZM127.433 63.4077V62.2526H126.528L126.311 63.1316L127.433 63.4077ZM137.729 63.4077L138.865 63.6144L139.113 62.2526H137.729V63.4077ZM110.864 84.7102V83.5551C102.317 83.5551 95.3268 80.6648 90.4707 75.5835C85.6099 70.4973 82.7875 63.1105 82.7875 53.94H81.6324H80.4773C80.4773 63.5867 83.4539 71.585 88.8006 77.1796C94.1519 82.7791 101.778 85.8653 110.864 85.8653V84.7102ZM81.6324 53.94H82.7875C82.7875 44.9605 85.6908 37.5081 90.6354 32.3092C95.5754 27.1151 102.63 24.0881 111.101 24.0881V22.933V21.7779C102.056 21.7779 94.3767 25.0234 88.9614 30.7171C83.5506 36.4062 80.4773 44.4573 80.4773 53.94H81.6324ZM111.101 22.933V24.0881C118.277 24.0881 124.038 26.094 128.293 29.6213C132.549 33.1493 135.392 38.2763 136.594 44.6851L137.729 44.4722L138.864 44.2593C137.581 37.4132 134.506 31.7707 129.768 27.8427C125.028 23.9142 118.718 21.7779 111.101 21.7779V22.933ZM137.729 44.4722V43.3171H127.551V44.4722V45.6273H137.729V44.4722ZM127.551 44.4722L128.679 44.2234C127.743 39.9781 125.694 36.505 122.645 34.0978C119.598 31.6916 115.635 30.4173 110.983 30.4173V31.5724V32.7274C115.207 32.7274 118.64 33.8792 121.214 35.911C123.786 37.9419 125.584 40.9187 126.423 44.721L127.551 44.4722ZM110.983 31.5724V30.4173C104.855 30.4173 99.6805 32.8658 96.0536 37.0761C92.439 41.2722 90.4185 47.1475 90.4185 53.94H91.5736H92.7287C92.7287 47.5958 94.6136 42.2874 97.8039 38.5838C100.982 34.8944 105.512 32.7274 110.983 32.7274V31.5724ZM91.5736 53.94H90.4185C90.4185 60.7331 92.4395 66.5529 96.0593 70.692C99.6905 74.8443 104.865 77.226 110.983 77.226V76.0709V74.9158C105.502 74.9158 100.972 72.8003 97.7983 69.1712C94.6131 65.529 92.7287 60.2834 92.7287 53.94H91.5736ZM110.983 76.0709V77.226C115.53 77.226 119.429 75.9145 122.452 73.5311C125.474 71.1491 127.554 67.749 128.554 63.6838L127.433 63.4077L126.311 63.1316C125.418 66.759 123.593 69.6905 121.022 71.7169C118.453 73.742 115.074 74.9158 110.983 74.9158V76.0709ZM127.433 63.4077V64.5628H137.729V63.4077V62.2526H127.433V63.4077ZM137.729 63.4077L136.592 63.2011C135.453 69.4687 132.534 74.5362 128.187 78.0416C123.838 81.549 117.981 83.5551 110.864 83.5551V84.7102V85.8653C118.422 85.8653 124.814 83.7293 129.637 79.8399C134.462 75.9486 137.638 70.3649 138.865 63.6144L137.729 63.4077ZM203.49 44.4722V45.6273H204.881L204.625 44.2593L203.49 44.4722ZM193.312 44.4722L192.184 44.721L192.384 45.6273H193.312V44.4722ZM193.193 63.4077V62.2526H192.288L192.072 63.1316L193.193 63.4077ZM203.49 63.4077L204.626 63.6144L204.874 62.2526H203.49V63.4077ZM176.625 84.7102V83.5551C168.078 83.5551 161.087 80.6648 156.231 75.5835C151.371 70.4973 148.548 63.1105 148.548 53.94H147.393H146.238C146.238 63.5867 149.214 71.585 154.561 77.1796C159.912 82.7791 167.538 85.8653 176.625 85.8653V84.7102ZM147.393 53.94H148.548C148.548 44.9605 151.451 37.5081 156.396 32.3092C161.336 27.1151 168.391 24.0881 176.861 24.0881V22.933V21.7779C167.817 21.7779 160.137 25.0234 154.722 30.7171C149.311 36.4062 146.238 44.4573 146.238 53.94H147.393ZM176.861 22.933V24.0881C184.038 24.0881 189.799 26.094 194.054 29.6213C198.31 33.1493 201.153 38.2763 202.354 44.6851L203.49 44.4722L204.625 44.2593C203.341 37.4132 200.267 31.7707 195.528 27.8427C190.789 23.9142 184.478 21.7779 176.861 21.7779V22.933ZM203.49 44.4722V43.3171H193.312V44.4722V45.6273H203.49V44.4722ZM193.312 44.4722L194.44 44.2234C193.503 39.9781 191.455 36.505 188.406 34.0978C185.358 31.6916 181.395 30.4173 176.743 30.4173V31.5724V32.7274C180.967 32.7274 184.401 33.8792 186.974 35.911C189.547 37.9419 191.345 40.9187 192.184 44.721L193.312 44.4722ZM176.743 31.5724V30.4173C170.615 30.4173 165.441 32.8658 161.814 37.0761C158.2 41.2722 156.179 47.1475 156.179 53.94H157.334H158.489C158.489 47.5958 160.374 42.2874 163.565 38.5838C166.743 34.8944 171.273 32.7274 176.743 32.7274V31.5724ZM157.334 53.94H156.179C156.179 60.7331 158.2 66.5529 161.82 70.692C165.451 74.8443 170.625 77.226 176.743 77.226V76.0709V74.9158C171.263 74.9158 166.733 72.8003 163.559 69.1712C160.374 65.529 158.489 60.2834 158.489 53.94H157.334ZM176.743 76.0709V77.226C181.291 77.226 185.19 75.9145 188.213 73.5311C191.234 71.1491 193.314 67.749 194.315 63.6838L193.193 63.4077L192.072 63.1316C191.179 66.759 189.353 69.6905 186.783 71.7169C184.214 73.742 180.835 74.9158 176.743 74.9158V76.0709ZM193.193 63.4077V64.5628H203.49V63.4077V62.2526H193.193V63.4077ZM203.49 63.4077L202.353 63.2011C201.214 69.4687 198.294 74.5362 193.948 78.0416C189.598 81.549 183.742 83.5551 176.625 83.5551V84.7102V85.8653C184.183 85.8653 190.575 83.7293 195.398 79.8399C200.223 75.9486 203.399 70.3649 204.626 63.6144L203.49 63.4077ZM257.534 23.6431V22.488H256.379V23.6431H257.534ZM267.238 23.6431H268.393V22.488H267.238V23.6431ZM267.238 84.0001V85.1552H268.393V84.0001H267.238ZM258.836 84.0001L257.695 84.1846L257.852 85.1552H258.836V84.0001ZM257.534 75.9525L258.674 75.7681L258.255 73.1753L256.627 75.2368L257.534 75.9525ZM214.455 23.6431V22.488H213.3V23.6431H214.455ZM224.16 23.6431H225.315V22.488H224.16V23.6431ZM257.534 53.8216H258.689V23.6431H257.534H256.379V53.8216H257.534ZM257.534 23.6431V24.7982H267.238V23.6431V22.488H257.534V23.6431ZM267.238 23.6431H266.083V84.0001H267.238H268.393V23.6431H267.238ZM267.238 84.0001V82.845H258.836V84.0001V85.1552H267.238V84.0001ZM258.836 84.0001L259.976 83.8157L258.674 75.7681L257.534 75.9525L256.393 76.137L257.695 84.1846L258.836 84.0001ZM257.534 75.9525L256.627 75.2368C253.266 79.4943 247.785 83.5551 238.243 83.5551V84.7102V85.8653C248.583 85.8653 254.701 81.4051 258.44 76.6683L257.534 75.9525ZM238.243 84.7102V83.5551C231.826 83.5551 226.214 81.7533 222.202 77.6724C218.19 73.5909 215.611 67.0592 215.611 57.2537H214.455H213.3C213.3 67.4488 215.987 74.6454 220.555 79.2919C225.123 83.9392 231.406 85.8653 238.243 85.8653V84.7102ZM214.455 57.2537H215.611V23.6431H214.455H213.3V57.2537H214.455ZM214.455 23.6431V24.7982H224.16V23.6431V22.488H214.455V23.6431ZM224.16 23.6431H223.005V56.6619H224.16H225.315V23.6431H224.16ZM224.16 56.6619H223.005C223.005 63.0879 224.457 68.1835 227.369 71.6902C230.309 75.2314 234.6 76.9893 239.9 76.9893V75.8342V74.6791C235.14 74.6791 231.561 73.1232 229.146 70.2145C226.703 67.2713 225.315 62.7808 225.315 56.6619H224.16ZM239.9 75.8342V76.9893C245.726 76.9893 250.478 74.7504 253.747 70.6519C256.991 66.5851 258.689 60.799 258.689 53.8216H257.534H256.379C256.379 60.4542 254.763 65.6744 251.941 69.2113C249.145 72.7166 245.081 74.6791 239.9 74.6791V75.8342ZM312.274 23.6431H313.429V22.488H312.274V23.6431ZM312.274 33.1109V34.266H313.429V33.1109H312.274ZM291.327 84.0001V85.1552H292.482V84.0001H291.327ZM281.622 84.0001H280.467V85.1552H281.622V84.0001ZM281.622 23.6431V22.488H280.467V23.6431H281.622ZM290.025 23.6431L291.168 23.4797L291.027 22.488H290.025V23.6431ZM291.327 32.7558L290.183 32.9192L290.635 36.0834L292.311 33.3612L291.327 32.7558ZM309.552 23.6431V24.7982H312.274V23.6431V22.488H309.552V23.6431ZM312.274 23.6431H311.119V33.1109H312.274H313.429V23.6431H312.274ZM312.274 33.1109V31.9558H307.422V33.1109V34.266H312.274V33.1109ZM307.422 33.1109V31.9558C300.706 31.9558 296.31 34.7818 293.652 38.955C291.043 43.0496 290.172 48.3322 290.172 53.2299H291.327H292.482C292.482 48.5415 293.327 43.7645 295.6 40.1962C297.823 36.7064 301.475 34.266 307.422 34.266V33.1109ZM291.327 53.2299H290.172V84.0001H291.327H292.482V53.2299H291.327ZM291.327 84.0001V82.845H281.622V84.0001V85.1552H291.327V84.0001ZM281.622 84.0001H282.777V23.6431H281.622H280.467V84.0001H281.622ZM281.622 23.6431V24.7982H290.025V23.6431V22.488H281.622V23.6431ZM290.025 23.6431L288.881 23.8064L290.183 32.9192L291.327 32.7558L292.47 32.5925L291.168 23.4797L290.025 23.6431ZM291.327 32.7558L292.311 33.3612C293.67 31.1521 295.414 29.0362 298.057 27.4609C300.7 25.8862 304.333 24.7982 309.552 24.7982V23.6431V22.488C304.002 22.488 299.942 23.6485 296.875 25.4763C293.808 27.3035 291.824 29.744 290.343 32.1504L291.327 32.7558ZM376.212 75.1241H377.368V73.969H376.212V75.1241ZM376.212 84.0001V85.1552H377.368V84.0001H376.212ZM359.999 74.6507L361.154 74.6276L361.083 71.0702L359.051 73.9911L359.999 74.6507ZM359.525 48.2593V49.4144H360.681V48.2593H359.525ZM329.11 41.7502V42.9053H330.064L330.245 41.9683L329.11 41.7502ZM319.406 41.7502L318.259 41.6126L318.104 42.9053H319.406V41.7502ZM359.525 56.4252H360.681V55.2702H359.525V56.4252ZM373.135 75.1241V76.2792H376.212V75.1241V73.969H373.135V75.1241ZM376.212 75.1241H375.057V84.0001H376.212H377.368V75.1241H376.212ZM376.212 84.0001V82.845H370.887V84.0001V85.1552H376.212V84.0001ZM370.887 84.0001V82.845C366.997 82.845 364.654 82.0112 363.26 80.7024C361.88 79.4063 361.21 77.4348 361.154 74.6276L359.999 74.6507L358.844 74.6738C358.906 77.784 359.656 80.4872 361.679 82.3864C363.688 84.2731 366.729 85.1552 370.887 85.1552V84.0001ZM359.999 74.6507L359.051 73.9911C355.451 79.1655 349.751 83.5551 339.762 83.5551V84.7102V85.8653C350.601 85.8653 356.972 81.0238 360.947 75.3103L359.999 74.6507ZM339.762 84.7102V83.5551C333.312 83.5551 328.023 81.9416 324.375 79.1084C320.757 76.2991 318.667 72.2303 318.667 67.0765H317.512H316.357C316.357 72.929 318.765 77.677 322.958 80.933C327.12 84.1651 332.956 85.8653 339.762 85.8653V84.7102ZM317.512 67.0765H318.667C318.667 61.3336 320.65 56.9914 324.408 54.0508C328.211 51.0746 333.984 49.4144 341.773 49.4144V48.2593V47.1042C333.705 47.1042 327.347 48.8169 322.984 52.2315C318.576 55.6815 316.357 60.7479 316.357 67.0765H317.512ZM341.773 48.2593V49.4144H359.525V48.2593V47.1042H341.773V48.2593ZM359.525 48.2593H360.681V44.1171H359.525H358.37V48.2593H359.525ZM359.525 44.1171H360.681C360.681 39.9171 359.173 36.4386 356.303 34.0308C353.46 31.645 349.408 30.4173 344.495 30.4173V31.5724V32.7274C349.05 32.7274 352.514 33.8667 354.818 35.8005C357.097 37.7124 358.37 40.5062 358.37 44.1171H359.525ZM344.495 31.5724V30.4173C335.626 30.4173 329.298 34.6549 327.976 41.5321L329.11 41.7502L330.245 41.9683C331.289 36.5374 336.323 32.7274 344.495 32.7274V31.5724ZM329.11 41.7502V40.5951H319.406V41.7502V42.9053H329.11V41.7502ZM319.406 41.7502L320.553 41.8878C321.227 36.2723 323.821 31.8617 327.945 28.8348C332.09 25.7921 337.866 24.0881 344.969 24.0881V22.933V21.7779C337.515 21.7779 331.22 23.5652 326.578 26.9724C321.914 30.3954 319.005 35.3934 318.259 41.6126L319.406 41.7502ZM344.969 22.933V24.0881C352.483 24.0881 358.237 25.9669 362.101 29.4029C365.944 32.8202 368.075 37.9191 368.075 44.7089H369.23H370.385C370.385 37.4154 368.078 31.6263 363.636 27.6766C359.216 23.7454 352.84 21.7779 344.969 21.7779V22.933ZM369.23 44.7089H368.075V71.1003H369.23H370.385V44.7089H369.23ZM369.23 71.1003H368.075C368.075 72.7826 368.374 74.2019 369.365 75.1464C370.344 76.0805 371.723 76.2792 373.135 76.2792V75.1241V73.969C371.826 73.969 371.252 73.7535 370.959 73.4745C370.677 73.2059 370.385 72.6134 370.385 71.1003H369.23ZM359.525 59.3839H360.681V56.4252H359.525H358.37V59.3839H359.525ZM359.525 56.4252V55.2702H340.827V56.4252V57.5803H359.525V56.4252ZM340.827 56.4252V55.2702C336.397 55.2702 332.74 56.0836 330.165 57.9447C327.522 59.8541 326.18 62.7466 326.18 66.4847H327.335H328.49C328.49 63.3588 329.574 61.2216 331.518 59.8172C333.528 58.3646 336.617 57.5803 340.827 57.5803V56.4252ZM327.335 66.4847H326.18C326.18 69.8095 327.625 72.6311 330.183 74.5912C332.715 76.531 336.268 77.581 340.472 77.581V76.4259V75.2708C336.628 75.2708 333.613 74.3089 331.588 72.7575C329.59 71.2263 328.49 69.0773 328.49 66.4847H327.335ZM340.472 76.4259V77.581C346.728 77.581 351.794 75.7689 355.309 72.5261C358.831 69.2758 360.681 64.6914 360.681 59.3839H359.525H358.37C358.37 64.1359 356.729 68.0725 353.742 70.8283C350.747 73.5917 346.287 75.2708 340.472 75.2708V76.4259ZM438.101 44.4722V45.6273H439.493L439.236 44.2593L438.101 44.4722ZM427.923 44.4722L426.795 44.721L426.995 45.6273H427.923V44.4722ZM427.805 63.4077V62.2526H426.899L426.683 63.1316L427.805 63.4077ZM438.101 63.4077L439.237 63.6144L439.485 62.2526H438.101V63.4077ZM411.236 84.7102V83.5551C402.689 83.5551 395.699 80.6648 390.843 75.5835C385.982 70.4973 383.159 63.1105 383.159 53.94H382.004H380.849C380.849 63.5867 383.826 71.585 389.172 77.1796C394.524 82.7791 402.15 85.8653 411.236 85.8653V84.7102ZM382.004 53.94H383.159C383.159 44.9605 386.063 37.5081 391.007 32.3092C395.947 27.1151 403.002 24.0881 411.473 24.0881V22.933V21.7779C402.428 21.7779 394.749 25.0234 389.333 30.7171C383.923 36.4062 380.849 44.4573 380.849 53.94H382.004ZM411.473 22.933V24.0881C418.649 24.0881 424.41 26.094 428.665 29.6213C432.921 33.1493 435.764 38.2763 436.966 44.6851L438.101 44.4722L439.236 44.2593C437.953 37.4132 434.878 31.7707 430.14 27.8427C425.4 23.9142 419.09 21.7779 411.473 21.7779V22.933ZM438.101 44.4722V43.3171H427.923V44.4722V45.6273H438.101V44.4722ZM427.923 44.4722L429.051 44.2234C428.115 39.9781 426.066 36.505 423.017 34.0978C419.969 31.6916 416.006 30.4173 411.354 30.4173V31.5724V32.7274C415.578 32.7274 419.012 33.8792 421.586 35.911C424.158 37.9419 425.956 40.9187 426.795 44.721L427.923 44.4722ZM411.354 31.5724V30.4173C405.227 30.4173 400.052 32.8658 396.426 37.0761C392.811 41.2722 390.79 47.1475 390.79 53.94H391.945H393.101C393.101 47.5958 394.986 42.2874 398.176 38.5838C401.354 34.8944 405.884 32.7274 411.354 32.7274V31.5724ZM391.945 53.94H390.79C390.79 60.7331 392.811 66.5529 396.431 70.692C400.062 74.8443 405.237 77.226 411.354 77.226V76.0709V74.9158C405.874 74.9158 401.344 72.8003 398.17 69.1712C394.985 65.529 393.101 60.2834 393.101 53.94H391.945ZM411.354 76.0709V77.226C415.902 77.226 419.801 75.9145 422.824 73.5311C425.846 71.1491 427.926 67.749 428.926 63.6838L427.805 63.4077L426.683 63.1316C425.79 66.759 423.965 69.6905 421.394 71.7169C418.825 73.742 415.446 74.9158 411.354 74.9158V76.0709ZM427.805 63.4077V64.5628H438.101V63.4077V62.2526H427.805V63.4077ZM438.101 63.4077L436.964 63.2011C435.825 69.4687 432.906 74.5362 428.559 78.0416C424.21 81.549 418.353 83.5551 411.236 83.5551V84.7102V85.8653C418.794 85.8653 425.186 83.7293 430.009 79.8399C434.834 75.9486 438.01 70.3649 439.237 63.6144L438.101 63.4077ZM449.895 84.0001H448.74V85.1552H449.895V84.0001ZM449.895 1.15715V0.00205612H448.74V1.15715H449.895ZM459.6 1.15715H460.755V0.00205612H459.6V1.15715ZM459.6 55.7152H458.445V58.62L460.439 56.5084L459.6 55.7152ZM489.896 23.6431V22.488H489.399L489.057 22.8499L489.896 23.6431ZM501.85 23.6431L502.69 24.4356L504.527 22.488H501.85V23.6431ZM478.298 48.6143L477.458 47.8218L476.807 48.5119L477.358 49.2845L478.298 48.6143ZM503.506 84.0001V85.1552H505.747L504.447 83.3299L503.506 84.0001ZM491.79 84.0001L490.846 84.6652L491.191 85.1552H491.79V84.0001ZM471.789 55.5968L472.734 54.9318L471.932 53.7928L470.961 54.7919L471.789 55.5968ZM459.6 68.1416L458.771 67.3366L458.445 67.6728V68.1416H459.6ZM459.6 84.0001V85.1552H460.755V84.0001H459.6ZM449.895 84.0001H451.05V1.15715H449.895H448.74V84.0001H449.895ZM449.895 1.15715V2.31224H459.6V1.15715V0.00205612H449.895V1.15715ZM459.6 1.15715H458.445V55.7152H459.6H460.755V1.15715H459.6ZM459.6 55.7152L460.439 56.5084L490.736 24.4363L489.896 23.6431L489.057 22.8499L458.76 54.922L459.6 55.7152ZM489.896 23.6431V24.7982H501.85V23.6431V22.488H489.896V23.6431ZM501.85 23.6431L501.009 22.8506L477.458 47.8218L478.298 48.6143L479.139 49.4069L502.69 24.4356L501.85 23.6431ZM478.298 48.6143L477.358 49.2845L502.566 84.6703L503.506 84.0001L504.447 83.3299L479.239 47.9441L478.298 48.6143ZM503.506 84.0001V82.845H491.79V84.0001V85.1552H503.506V84.0001ZM491.79 84.0001L492.734 83.3351L472.734 54.9318L471.789 55.5968L470.845 56.2619L490.846 84.6652L491.79 84.0001ZM471.789 55.5968L470.961 54.7919L458.771 67.3366L459.6 68.1416L460.428 68.9466L472.618 56.4018L471.789 55.5968ZM459.6 68.1416H458.445V84.0001H459.6H460.755V68.1416H459.6ZM459.6 84.0001V82.845H449.895V84.0001V85.1552H459.6V84.0001Z" fill="#03414C" mask="url(#path-1-outside-1_1_676)"/>
</svg>
