<svg width="212" height="286" viewBox="0 0 212 286" fill="none" xmlns="http://www.w3.org/2000/svg">
<path d="M45.181 266.031L6.18503 241.616C1.56543 238.724 1.46703 232.019 5.99975 228.992L46.2143 202.135C51.2668 198.761 58.0188 202.485 57.8743 208.566L56.6557 259.838C56.5173 265.658 50.1094 269.117 45.181 266.031Z" fill="#117D90" fill-opacity="0.32"/>
<path d="M125.586 1.02935L63.4363 37.4735C58.5365 40.3467 58.4758 47.42 63.3255 50.3772L178.387 120.537C180.623 121.901 181.988 124.333 181.988 126.956V265.383C181.988 271.224 188.349 274.832 193.348 271.827L253.358 235.758C255.618 234.4 257 231.954 257 229.314V81.8377C257 79.2327 255.653 76.8135 253.441 75.4445L133.318 1.12115C130.956 -0.340057 127.982 -0.375369 125.586 1.02935Z" fill="#117D90" fill-opacity="0.32"/>
<path d="M59.4246 81.798L3.72185 114.345C-1.24765 117.248 -1.23886 124.444 3.73772 127.336L82.609 173.161C84.9226 174.505 86.3467 176.982 86.3467 179.661V278.474C86.3467 284.328 92.7325 287.933 97.7317 284.903L152.128 251.925C154.374 250.564 155.745 248.126 155.745 245.496V140.906C155.745 138.301 154.399 135.881 152.186 134.512L67.1458 81.8957C64.7877 80.4367 61.8187 80.3991 59.4246 81.798Z" fill="#117D90" fill-opacity="0.32"/>
</svg>
